999
FreeCAD v1.0 39319 (Git)
  0
SECTION
  2
HEADER
  9
$ACADVER
  1
AC1014
  9
$ACADMAINTVER
 70
     9
  9
$DWGCODEPAGE
  3
ANSI_1252
  9
$TEXTSTYLE
  7
STANDARD
  9
$DIMSTYLE
  2
STANDARD
  9
$DIMTXSTY
  7
STANDARD
  9
$CMLSTYLE
  2
STANDARD
  9
$LUNITS
 70
2
  9
$INSUNITS
 70
4
  9
$PEXTMAX
 10
50
 20
50
 30
50
  9
$PEXTMIN
 10
0
 20
0
 30
0
  9
$HANDSEED
  5
FFFF
  0
ENDSEC
  0
SECTION
  2
CLASSES
  0
CLASS
  1
ACDBDICTIONARYWDFLT
  2
AcDbDictionaryWithDefault
  3
ObjectDBX Classes
 90
        0
280
     0
281
     0
  0
CLASS
  1
XRECORD
  2
AcDbXrecord
  3
ObjectDBX Classes
 90
        0
280
     0
281
     0
  0
CLASS
  1
LWPOLYLINE
  2
AcDbPolyline
  3
ObjectDBX Classes
 90
        0
280
     0
281
     1
  0
ENDSEC
  0
SECTION
  2
TABLES
  0
TABLE
  2
VPORT
  5
20
330
0
100
AcDbSymbolTable
 70
     1
  0
VPORT
  5
21
330
20
100
AcDbSymbolTableRecord
100
AcDbViewportTableRecord
  2
*ACTIVE
 70
     0
  0
ENDTAB
  0
TABLE
  2
LTYPE
  5
22
330
0
100
AcDbSymbolTable
 70
     1
  0
LTYPE
  5
23
330
21
100
AcDbSymbolTableRecord
100
AcDbLinetypeTableRecord
  2
BYBLOCK
 70
     0
  3

 72
    65
 73
     0
 40
0.0
  0
LTYPE
  5
24
330
21
100
AcDbSymbolTableRecord
100
AcDbLinetypeTableRecord
  2
BYLAYER
 70
     0
  3

 72
    65
 73
     0
 40
0.0
  0
LTYPE
  5
25
330
21
100
AcDbSymbolTableRecord
100
AcDbLinetypeTableRecord
  2
CONTINUOUS
 70
     0
  3
Solid line
 72
    65
 73
     0
 40
0.0
  0
ENDTAB
  0
TABLE
  2
LAYER
  5
CDE
330
0
100
AcDbSymbolTable
 70
3
  0
LAYER
  5
CDF
330
CDE
100
AcDbSymbolTableRecord
100
AcDbLayerTableRecord
  2
0
 70
   0
 62
   7
  6
CONTINUOUS
  0
LAYER
  5
CE0
330
CDE
100
AcDbSymbolTableRecord
100
AcDbLayerTableRecord
  2
none
 70
    0
 62
    7
  6
CONTINUOUS
  0
LAYER
  5
CE1
330
CDE
100
AcDbSymbolTableRecord
100
AcDbLayerTableRecord
  2
Part__Feature
 70
    0
 62
    7
  6
CONTINUOUS
  0
ENDTAB
  0
TABLE
  2
STYLE
  5
70
330
0
100
AcDbSymbolTable
 70
     2
  0
STYLE
  5
71
330
70
100
AcDbSymbolTableRecord
100
AcDbTextStyleTableRecord
  2
STANDARD
 70
     0
 40
0.0
 41
1.0
 50
0.0
 71
     0
 42
2.5
  3
arial.ttf
  4

  0
STYLE
  5
72
330
70
100
AcDbSymbolTableRecord
100
AcDbTextStyleTableRecord
  2
ANNOTATIVE
 70
     0
 40
0.0
 41
1.0
 50
0.0
 71
     0
 42
2.5
  3
arial.ttf
  4

  0
ENDTAB
  0
TABLE
  2
VIEW
  5
73
330
0
100
AcDbSymbolTable
 70
     0
  0
ENDTAB
  0
TABLE
  2
UCS
  5
74
330
0
100
AcDbSymbolTable
 70
     0
  0
ENDTAB
  0
TABLE
  2
APPID
  5
75
330
0
100
AcDbSymbolTable
 70
     2
  0
APPID
  5
76
330
75
100
AcDbSymbolTableRecord
100
AcDbRegAppTableRecord
  2
ACAD
 70
     0
  0
APPID
  5
77
330
75
100
AcDbSymbolTableRecord
100
AcDbRegAppTableRecord
  2
ACADANNOTATIVE
 70
     0
  0
ENDTAB
  0
TABLE
  2
DIMSTYLE
  5
78
330
0
100
AcDbSymbolTable
 70
     2
  0
DIMSTYLE
105
79
330
78
100
AcDbSymbolTableRecord
100
AcDbDimStyleTableRecord
  2
STANDARD
 70
     0
  3

  4

  5

  6

  7

 40
0.0
 41
2.5
 42
0.625
 43
3.75
 44
1.25
 45
0.0
 46
0.0
 47
0.0
 48
0.0
140
2.5
141
2.5
142
0.0
143
0.03937007874016
144
1.0
145
0.0
146
1.0
147
0.625
 71
     0
 72
     0
 73
     0
 74
     0
 75
     0
 76
     0
 77
     1
 78
     8
170
     0
171
     3
172
     1
173
     0
174
     0
175
     0
176
     0
177
     0
178
     0
270
     2
271
     2
272
     2
273
     2
274
     3
340
71
275
     0
280
     0
281
     0
282
     0
283
     0
284
     8
285
     0
286
     0
287
     3
288
     0
  0
ENDTAB
  0
TABLE
  2
BLOCK_RECORD
  5
A01
330
0
100
AcDbSymbolTable
  70
5
  0
BLOCK_RECORD
  5
A02
330
A01
100
AcDbSymbolTableRecord
100
AcDbBlockTableRecord
  2
*MODEL_SPACE
  0
BLOCK_RECORD
  5
A03
330
A01
100
AcDbSymbolTableRecord
100
AcDbBlockTableRecord
  2
*PAPER_SPACE
  0
ENDTAB
  0
ENDSEC
  0
SECTION
  2
BLOCKS
  0
BLOCK
  5
A04
330
A02
100
AcDbEntity
  8
0
100
AcDbBlockBegin
  2
*MODEL_SPACE
 70
   0
 10
0
 20
0
 30
0
  3
*MODEL_SPACE
  1
 
  0
ENDBLK
  5
A05
330
A02
100
AcDbEntity
  8
0
100
AcDbBlockEnd
  0
BLOCK
  5
A06
330
A03
100
AcDbEntity
 67
1
  8
0
100
AcDbBlockBegin
  2
*PAPER_SPACE
 70
   0
 10
0
 20
0
 30
0
  3
*PAPER_SPACE
  1
 
  0
ENDBLK
  5
A07
330
A03
100
AcDbEntity
 67
    1
  8
0
100
AcDbBlockEnd
  0
ENDSEC
  0
SECTION
  2
ENTITIES
  0
LINE
  5
A08
330
A02
100
AcDbEntity
  8
Part__Feature
100
AcDbLine
 10
185.000000000
 20
-329.089653438
 30
12.000000000
 11
185.000000000
 21
-329.089653438
 31
0.000000000
  0
ARC
  5
A09
330
A02
100
AcDbEntity
  8
Part__Feature
100
AcDbCircle
 10
190.000000000
 20
-329.089653438
 30
-0.000000000
 40
5.000000000
100
AcDbArc
 50
180.000000000
 51
0.000000000
  0
LINE
  5
A0A
330
A02
100
AcDbEntity
  8
Part__Feature
100
AcDbLine
 10
195.000000000
 20
-329.089653438
 30
12.000000000
 11
195.000000000
 21
-329.089653438
 31
0.000000000
  0
ARC
  5
A0B
330
A02
100
AcDbEntity
  8
Part__Feature
100
AcDbCircle
 10
190.000000000
 20
-329.089653438
 30
12.000000000
 40
5.000000000
100
AcDbArc
 50
180.000000000
 51
0.000000000
  0
LINE
  5
A0C
330
A02
100
AcDbEntity
  8
Part__Feature
100
AcDbLine
 10
-385.000000000
 20
0.000000000
 30
12.000000000
 11
-385.000000000
 21
0.000000000
 31
0.000000000
  0
ARC
  5
A0D
330
A02
100
AcDbEntity
  8
Part__Feature
100
AcDbCircle
 10
-380.000000000
 20
0.000000000
 30
0.000000000
 40
5.000000000
100
AcDbArc
 50
-180.000000000
 51
0.000000000
  0
LINE
  5
A0E
330
A02
100
AcDbEntity
  8
Part__Feature
100
AcDbLine
 10
-375.000000000
 20
0.000000000
 30
12.000000000
 11
-375.000000000
 21
0.000000000
 31
0.000000000
  0
ARC
  5
A0F
330
A02
100
AcDbEntity
  8
Part__Feature
100
AcDbCircle
 10
-380.000000000
 20
0.000000000
 30
12.000000000
 40
5.000000000
100
AcDbArc
 50
-180.000000000
 51
0.000000000
  0
LINE
  5
A10
330
A02
100
AcDbEntity
  8
Part__Feature
100
AcDbLine
 10
185.000000000
 20
329.089653438
 30
12.000000000
 11
185.000000000
 21
329.089653438
 31
0.000000000
  0
ARC
  5
A11
330
A02
100
AcDbEntity
  8
Part__Feature
100
AcDbCircle
 10
190.000000000
 20
329.089653438
 30
0.000000000
 40
5.000000000
100
AcDbArc
 50
180.000000000
 51
0.000000000
  0
LINE
  5
A12
330
A02
100
AcDbEntity
  8
Part__Feature
100
AcDbLine
 10
195.000000000
 20
329.089653438
 30
12.000000000
 11
195.000000000
 21
329.089653438
 31
0.000000000
  0
ARC
  5
A13
330
A02
100
AcDbEntity
  8
Part__Feature
100
AcDbCircle
 10
190.000000000
 20
329.089653438
 30
12.000000000
 40
5.000000000
100
AcDbArc
 50
180.000000000
 51
0.000000000
  0
LINE
  5
A14
330
A02
100
AcDbEntity
  8
Part__Feature
100
AcDbLine
 10
-135.000000000
 20
-320.429399400
 30
0.000000000
 11
-135.000000000
 21
-320.429399400
 31
19.000000000
  0
ARC
  5
A15
330
A02
100
AcDbEntity
  8
Part__Feature
100
AcDbCircle
 10
-185.000000000
 20
-320.429399400
 30
19.000000000
 40
50.000000000
100
AcDbArc
 50
180.000000000
 51
0.000000000
  0
LINE
  5
A16
330
A02
100
AcDbEntity
  8
Part__Feature
100
AcDbLine
 10
-235.000000000
 20
-320.429399400
 30
0.000000000
 11
-235.000000000
 21
-320.429399400
 31
19.000000000
  0
ARC
  5
A17
330
A02
100
AcDbEntity
  8
Part__Feature
100
AcDbCircle
 10
-185.000000000
 20
-320.429399400
 30
0.000000000
 40
50.000000000
100
AcDbArc
 50
180.000000000
 51
0.000000000
  0
LINE
  5
A18
330
A02
100
AcDbEntity
  8
Part__Feature
100
AcDbLine
 10
420.000000000
 20
0.000000000
 30
0.000000000
 11
420.000000000
 21
0.000000000
 31
19.000000000
  0
ARC
  5
A19
330
A02
100
AcDbEntity
  8
Part__Feature
100
AcDbCircle
 10
370.000000000
 20
0.000000000
 30
19.000000000
 40
50.000000000
100
AcDbArc
 50
180.000000000
 51
-0.000000000
  0
LINE
  5
A1A
330
A02
100
AcDbEntity
  8
Part__Feature
100
AcDbLine
 10
320.000000000
 20
0.000000000
 30
0.000000000
 11
320.000000000
 21
0.000000000
 31
19.000000000
  0
ARC
  5
A1B
330
A02
100
AcDbEntity
  8
Part__Feature
100
AcDbCircle
 10
370.000000000
 20
0.000000000
 30
0.000000000
 40
50.000000000
100
AcDbArc
 50
180.000000000
 51
-0.000000000
  0
LINE
  5
A1C
330
A02
100
AcDbEntity
  8
Part__Feature
100
AcDbLine
 10
-135.000000000
 20
320.429399400
 30
0.000000000
 11
-135.000000000
 21
320.429399400
 31
19.000000000
  0
ARC
  5
A1D
330
A02
100
AcDbEntity
  8
Part__Feature
100
AcDbCircle
 10
-185.000000000
 20
320.429399400
 30
19.000000000
 40
50.000000000
100
AcDbArc
 50
180.000000000
 51
0.000000000
  0
LINE
  5
A1E
330
A02
100
AcDbEntity
  8
Part__Feature
100
AcDbLine
 10
-235.000000000
 20
320.429399400
 30
0.000000000
 11
-235.000000000
 21
320.429399400
 31
19.000000000
  0
ARC
  5
A1F
330
A02
100
AcDbEntity
  8
Part__Feature
100
AcDbCircle
 10
-185.000000000
 20
320.429399400
 30
0.000000000
 40
50.000000000
100
AcDbArc
 50
180.000000000
 51
0.000000000
  0
LINE
  5
A20
330
A02
100
AcDbEntity
  8
Part__Feature
100
AcDbLine
 10
-94.101237139
 20
367.051813990
 30
0.000000000
 11
-94.101237139
 21
367.051813990
 31
19.000000000
  0
ARC
  5
A21
330
A02
100
AcDbEntity
  8
Part__Feature
100
AcDbCircle
 10
-98.351237139
 20
367.051813990
 30
19.000000000
 40
4.250000000
100
AcDbArc
 50
180.000000000
 51
0.000000000
  0
LINE
  5
A22
330
A02
100
AcDbEntity
  8
Part__Feature
100
AcDbLine
 10
-102.601237139
 20
367.051813990
 30
0.000000000
 11
-102.601237139
 21
367.051813990
 31
19.000000000
  0
ARC
  5
A23
330
A02
100
AcDbEntity
  8
Part__Feature
100
AcDbCircle
 10
-98.351237139
 20
367.051813990
 30
0.000000000
 40
4.250000000
100
AcDbArc
 50
180.000000000
 51
0.000000000
  0
LINE
  5
A24
330
A02
100
AcDbEntity
  8
Part__Feature
100
AcDbLine
 10
102.601237139
 20
367.051813990
 30
0.000000000
 11
102.601237139
 21
367.051813990
 31
19.000000000
  0
ARC
  5
A25
330
A02
100
AcDbEntity
  8
Part__Feature
100
AcDbCircle
 10
98.351237139
 20
367.051813990
 30
19.000000000
 40
4.250000000
100
AcDbArc
 50
180.000000000
 51
0.000000000
  0
LINE
  5
A26
330
A02
100
AcDbEntity
  8
Part__Feature
100
AcDbLine
 10
94.101237139
 20
367.051813990
 30
0.000000000
 11
94.101237139
 21
367.051813990
 31
19.000000000
  0
ARC
  5
A27
330
A02
100
AcDbEntity
  8
Part__Feature
100
AcDbCircle
 10
98.351237139
 20
367.051813990
 30
0.000000000
 40
4.250000000
100
AcDbArc
 50
180.000000000
 51
0.000000000
  0
LINE
  5
A28
330
A02
100
AcDbEntity
  8
Part__Feature
100
AcDbLine
 10
272.950576851
 20
268.700576851
 30
0.000000000
 11
272.950576851
 21
268.700576851
 31
19.000000000
  0
ARC
  5
A29
330
A02
100
AcDbEntity
  8
Part__Feature
100
AcDbCircle
 10
268.700576851
 20
268.700576851
 30
19.000000000
 40
4.250000000
100
AcDbArc
 50
180.000000000
 51
0.000000000
  0
LINE
  5
A2A
330
A02
100
AcDbEntity
  8
Part__Feature
100
AcDbLine
 10
264.450576851
 20
268.700576851
 30
0.000000000
 11
264.450576851
 21
268.700576851
 31
19.000000000
  0
ARC
  5
A2B
330
A02
100
AcDbEntity
  8
Part__Feature
100
AcDbCircle
 10
268.700576851
 20
268.700576851
 30
0.000000000
 40
4.250000000
100
AcDbArc
 50
180.000000000
 51
0.000000000
  0
LINE
  5
A2C
330
A02
100
AcDbEntity
  8
Part__Feature
100
AcDbLine
 10
371.301813990
 20
-98.351237139
 30
0.000000000
 11
371.301813990
 21
-98.351237139
 31
19.000000000
  0
ARC
  5
A2D
330
A02
100
AcDbEntity
  8
Part__Feature
100
AcDbCircle
 10
367.051813990
 20
-98.351237139
 30
19.000000000
 40
4.250000000
100
AcDbArc
 50
180.000000000
 51
0.000000000
  0
LINE
  5
A2E
330
A02
100
AcDbEntity
  8
Part__Feature
100
AcDbLine
 10
362.801813990
 20
-98.351237139
 30
0.000000000
 11
362.801813990
 21
-98.351237139
 31
19.000000000
  0
ARC
  5
A2F
330
A02
100
AcDbEntity
  8
Part__Feature
100
AcDbCircle
 10
367.051813990
 20
-98.351237139
 30
0.000000000
 40
4.250000000
100
AcDbArc
 50
180.000000000
 51
0.000000000
  0
LINE
  5
A30
330
A02
100
AcDbEntity
  8
Part__Feature
100
AcDbLine
 10
371.301813990
 20
98.351237139
 30
0.000000000
 11
371.301813990
 21
98.351237139
 31
19.000000000
  0
ARC
  5
A31
330
A02
100
AcDbEntity
  8
Part__Feature
100
AcDbCircle
 10
367.051813990
 20
98.351237139
 30
19.000000000
 40
4.250000000
100
AcDbArc
 50
180.000000000
 51
0.000000000
  0
LINE
  5
A32
330
A02
100
AcDbEntity
  8
Part__Feature
100
AcDbLine
 10
362.801813990
 20
98.351237139
 30
0.000000000
 11
362.801813990
 21
98.351237139
 31
19.000000000
  0
ARC
  5
A33
330
A02
100
AcDbEntity
  8
Part__Feature
100
AcDbCircle
 10
367.051813990
 20
98.351237139
 30
0.000000000
 40
4.250000000
100
AcDbArc
 50
180.000000000
 51
0.000000000
  0
LINE
  5
A34
330
A02
100
AcDbEntity
  8
Part__Feature
100
AcDbLine
 10
272.950576851
 20
-268.700576851
 30
0.000000000
 11
272.950576851
 21
-268.700576851
 31
19.000000000
  0
ARC
  5
A35
330
A02
100
AcDbEntity
  8
Part__Feature
100
AcDbCircle
 10
268.700576851
 20
-268.700576851
 30
19.000000000
 40
4.250000000
100
AcDbArc
 50
180.000000000
 51
0.000000000
  0
LINE
  5
A36
330
A02
100
AcDbEntity
  8
Part__Feature
100
AcDbLine
 10
264.450576851
 20
-268.700576851
 30
0.000000000
 11
264.450576851
 21
-268.700576851
 31
19.000000000
  0
ARC
  5
A37
330
A02
100
AcDbEntity
  8
Part__Feature
100
AcDbCircle
 10
268.700576851
 20
-268.700576851
 30
0.000000000
 40
4.250000000
100
AcDbArc
 50
180.000000000
 51
0.000000000
  0
LINE
  5
A38
330
A02
100
AcDbEntity
  8
Part__Feature
100
AcDbLine
 10
102.601237139
 20
-367.051813990
 30
0.000000000
 11
102.601237139
 21
-367.051813990
 31
19.000000000
  0
ARC
  5
A39
330
A02
100
AcDbEntity
  8
Part__Feature
100
AcDbCircle
 10
98.351237139
 20
-367.051813990
 30
19.000000000
 40
4.250000000
100
AcDbArc
 50
180.000000000
 51
0.000000000
  0
LINE
  5
A3A
330
A02
100
AcDbEntity
  8
Part__Feature
100
AcDbLine
 10
94.101237139
 20
-367.051813990
 30
0.000000000
 11
94.101237139
 21
-367.051813990
 31
19.000000000
  0
ARC
  5
A3B
330
A02
100
AcDbEntity
  8
Part__Feature
100
AcDbCircle
 10
98.351237139
 20
-367.051813990
 30
0.000000000
 40
4.250000000
100
AcDbArc
 50
180.000000000
 51
0.000000000
  0
LINE
  5
A3C
330
A02
100
AcDbEntity
  8
Part__Feature
100
AcDbLine
 10
-94.101237139
 20
-367.051813990
 30
0.000000000
 11
-94.101237139
 21
-367.051813990
 31
19.000000000
  0
ARC
  5
A3D
330
A02
100
AcDbEntity
  8
Part__Feature
100
AcDbCircle
 10
-98.351237139
 20
-367.051813990
 30
19.000000000
 40
4.250000000
100
AcDbArc
 50
180.000000000
 51
0.000000000
  0
LINE
  5
A3E
330
A02
100
AcDbEntity
  8
Part__Feature
100
AcDbLine
 10
-102.601237139
 20
-367.051813990
 30
0.000000000
 11
-102.601237139
 21
-367.051813990
 31
19.000000000
  0
ARC
  5
A3F
330
A02
100
AcDbEntity
  8
Part__Feature
100
AcDbCircle
 10
-98.351237139
 20
-367.051813990
 30
0.000000000
 40
4.250000000
100
AcDbArc
 50
180.000000000
 51
0.000000000
  0
LINE
  5
A40
330
A02
100
AcDbEntity
  8
Part__Feature
100
AcDbLine
 10
-264.450576851
 20
-268.700576851
 30
0.000000000
 11
-264.450576851
 21
-268.700576851
 31
19.000000000
  0
ARC
  5
A41
330
A02
100
AcDbEntity
  8
Part__Feature
100
AcDbCircle
 10
-268.700576851
 20
-268.700576851
 30
19.000000000
 40
4.250000000
100
AcDbArc
 50
180.000000000
 51
0.000000000
  0
LINE
  5
A42
330
A02
100
AcDbEntity
  8
Part__Feature
100
AcDbLine
 10
-272.950576851
 20
-268.700576851
 30
0.000000000
 11
-272.950576851
 21
-268.700576851
 31
19.000000000
  0
ARC
  5
A43
330
A02
100
AcDbEntity
  8
Part__Feature
100
AcDbCircle
 10
-268.700576851
 20
-268.700576851
 30
0.000000000
 40
4.250000000
100
AcDbArc
 50
180.000000000
 51
0.000000000
  0
LINE
  5
A44
330
A02
100
AcDbEntity
  8
Part__Feature
100
AcDbLine
 10
-362.801813990
 20
-98.351237139
 30
0.000000000
 11
-362.801813990
 21
-98.351237139
 31
19.000000000
  0
ARC
  5
A45
330
A02
100
AcDbEntity
  8
Part__Feature
100
AcDbCircle
 10
-367.051813990
 20
-98.351237139
 30
19.000000000
 40
4.250000000
100
AcDbArc
 50
180.000000000
 51
0.000000000
  0
LINE
  5
A46
330
A02
100
AcDbEntity
  8
Part__Feature
100
AcDbLine
 10
-371.301813990
 20
-98.351237139
 30
0.000000000
 11
-371.301813990
 21
-98.351237139
 31
19.000000000
  0
ARC
  5
A47
330
A02
100
AcDbEntity
  8
Part__Feature
100
AcDbCircle
 10
-367.051813990
 20
-98.351237139
 30
0.000000000
 40
4.250000000
100
AcDbArc
 50
180.000000000
 51
0.000000000
  0
LINE
  5
A48
330
A02
100
AcDbEntity
  8
Part__Feature
100
AcDbLine
 10
-362.801813990
 20
98.351237139
 30
0.000000000
 11
-362.801813990
 21
98.351237139
 31
19.000000000
  0
ARC
  5
A49
330
A02
100
AcDbEntity
  8
Part__Feature
100
AcDbCircle
 10
-367.051813990
 20
98.351237139
 30
19.000000000
 40
4.250000000
100
AcDbArc
 50
180.000000000
 51
0.000000000
  0
LINE
  5
A4A
330
A02
100
AcDbEntity
  8
Part__Feature
100
AcDbLine
 10
-371.301813990
 20
98.351237139
 30
0.000000000
 11
-371.301813990
 21
98.351237139
 31
19.000000000
  0
ARC
  5
A4B
330
A02
100
AcDbEntity
  8
Part__Feature
100
AcDbCircle
 10
-367.051813990
 20
98.351237139
 30
0.000000000
 40
4.250000000
100
AcDbArc
 50
180.000000000
 51
0.000000000
  0
LINE
  5
A4C
330
A02
100
AcDbEntity
  8
Part__Feature
100
AcDbLine
 10
-264.450576851
 20
268.700576851
 30
0.000000000
 11
-264.450576851
 21
268.700576851
 31
19.000000000
  0
ARC
  5
A4D
330
A02
100
AcDbEntity
  8
Part__Feature
100
AcDbCircle
 10
-268.700576851
 20
268.700576851
 30
19.000000000
 40
4.250000000
100
AcDbArc
 50
180.000000000
 51
0.000000000
  0
LINE
  5
A4E
330
A02
100
AcDbEntity
  8
Part__Feature
100
AcDbLine
 10
-272.950576851
 20
268.700576851
 30
0.000000000
 11
-272.950576851
 21
268.700576851
 31
19.000000000
  0
ARC
  5
A4F
330
A02
100
AcDbEntity
  8
Part__Feature
100
AcDbCircle
 10
-268.700576851
 20
268.700576851
 30
0.000000000
 40
4.250000000
100
AcDbArc
 50
180.000000000
 51
0.000000000
  0
LINE
  5
A50
330
A02
100
AcDbEntity
  8
Part__Feature
100
AcDbLine
 10
-59.900000000
 20
425.058819459
 30
0.000000000
 11
-59.900000000
 21
425.058819459
 31
19.000000000
  0
ARC
  5
A51
330
A02
100
AcDbEntity
  8
Part__Feature
100
AcDbCircle
 10
-65.000000000
 20
425.058819459
 30
19.000000000
 40
5.100000000
100
AcDbArc
 50
180.000000000
 51
0.000000000
  0
LINE
  5
A52
330
A02
100
AcDbEntity
  8
Part__Feature
100
AcDbLine
 10
-70.100000000
 20
425.058819459
 30
0.000000000
 11
-70.100000000
 21
425.058819459
 31
19.000000000
  0
ARC
  5
A53
330
A02
100
AcDbEntity
  8
Part__Feature
100
AcDbCircle
 10
-65.000000000
 20
425.058819459
 30
0.000000000
 40
5.100000000
100
AcDbArc
 50
180.000000000
 51
0.000000000
  0
LINE
  5
A54
330
A02
100
AcDbEntity
  8
Part__Feature
100
AcDbLine
 10
70.100000000
 20
425.058819459
 30
0.000000000
 11
70.100000000
 21
425.058819459
 31
19.000000000
  0
ARC
  5
A55
330
A02
100
AcDbEntity
  8
Part__Feature
100
AcDbCircle
 10
65.000000000
 20
425.058819459
 30
19.000000000
 40
5.100000000
100
AcDbArc
 50
180.000000000
 51
0.000000000
  0
LINE
  5
A56
330
A02
100
AcDbEntity
  8
Part__Feature
100
AcDbLine
 10
59.900000000
 20
425.058819459
 30
0.000000000
 11
59.900000000
 21
425.058819459
 31
19.000000000
  0
ARC
  5
A57
330
A02
100
AcDbEntity
  8
Part__Feature
100
AcDbCircle
 10
65.000000000
 20
425.058819459
 30
0.000000000
 40
5.100000000
100
AcDbArc
 50
180.000000000
 51
0.000000000
  0
LINE
  5
A58
330
A02
100
AcDbEntity
  8
Part__Feature
100
AcDbLine
 10
340.711735754
 20
268.821060976
 30
0.000000000
 11
340.711735754
 21
268.821060976
 31
19.000000000
  0
ARC
  5
A59
330
A02
100
AcDbEntity
  8
Part__Feature
100
AcDbCircle
 10
335.611735754
 20
268.821060976
 30
19.000000000
 40
5.100000000
100
AcDbArc
 50
180.000000000
 51
0.000000000
  0
LINE
  5
A5A
330
A02
100
AcDbEntity
  8
Part__Feature
100
AcDbLine
 10
330.511735754
 20
268.821060976
 30
0.000000000
 11
330.511735754
 21
268.821060976
 31
19.000000000
  0
ARC
  5
A5B
330
A02
100
AcDbEntity
  8
Part__Feature
100
AcDbCircle
 10
335.611735754
 20
268.821060976
 30
0.000000000
 40
5.100000000
100
AcDbArc
 50
180.000000000
 51
0.000000000
  0
LINE
  5
A5C
330
A02
100
AcDbEntity
  8
Part__Feature
100
AcDbLine
 10
405.711735754
 20
156.237758484
 30
0.000000000
 11
405.711735754
 21
156.237758484
 31
19.000000000
  0
ARC
  5
A5D
330
A02
100
AcDbEntity
  8
Part__Feature
100
AcDbCircle
 10
400.611735754
 20
156.237758484
 30
19.000000000
 40
5.100000000
100
AcDbArc
 50
180.000000000
 51
0.000000000
  0
LINE
  5
A5E
330
A02
100
AcDbEntity
  8
Part__Feature
100
AcDbLine
 10
395.511735754
 20
156.237758484
 30
0.000000000
 11
395.511735754
 21
156.237758484
 31
19.000000000
  0
ARC
  5
A5F
330
A02
100
AcDbEntity
  8
Part__Feature
100
AcDbCircle
 10
400.611735754
 20
156.237758484
 30
0.000000000
 40
5.100000000
100
AcDbArc
 50
180.000000000
 51
0.000000000
  0
LINE
  5
A60
330
A02
100
AcDbEntity
  8
Part__Feature
100
AcDbLine
 10
405.711735754
 20
-156.237758484
 30
0.000000000
 11
405.711735754
 21
-156.237758484
 31
19.000000000
  0
ARC
  5
A61
330
A02
100
AcDbEntity
  8
Part__Feature
100
AcDbCircle
 10
400.611735754
 20
-156.237758484
 30
19.000000000
 40
5.100000000
100
AcDbArc
 50
180.000000000
 51
0.000000000
  0
LINE
  5
A62
330
A02
100
AcDbEntity
  8
Part__Feature
100
AcDbLine
 10
395.511735754
 20
-156.237758484
 30
0.000000000
 11
395.511735754
 21
-156.237758484
 31
19.000000000
  0
ARC
  5
A63
330
A02
100
AcDbEntity
  8
Part__Feature
100
AcDbCircle
 10
400.611735754
 20
-156.237758484
 30
0.000000000
 40
5.100000000
100
AcDbArc
 50
180.000000000
 51
0.000000000
  0
LINE
  5
A64
330
A02
100
AcDbEntity
  8
Part__Feature
100
AcDbLine
 10
340.711735754
 20
-268.821060976
 30
0.000000000
 11
340.711735754
 21
-268.821060976
 31
19.000000000
  0
ARC
  5
A65
330
A02
100
AcDbEntity
  8
Part__Feature
100
AcDbCircle
 10
335.611735754
 20
-268.821060976
 30
19.000000000
 40
5.100000000
100
AcDbArc
 50
180.000000000
 51
0.000000000
  0
LINE
  5
A66
330
A02
100
AcDbEntity
  8
Part__Feature
100
AcDbLine
 10
330.511735754
 20
-268.821060976
 30
0.000000000
 11
330.511735754
 21
-268.821060976
 31
19.000000000
  0
ARC
  5
A67
330
A02
100
AcDbEntity
  8
Part__Feature
100
AcDbCircle
 10
335.611735754
 20
-268.821060976
 30
0.000000000
 40
5.100000000
100
AcDbArc
 50
180.000000000
 51
0.000000000
  0
LINE
  5
A68
330
A02
100
AcDbEntity
  8
Part__Feature
100
AcDbLine
 10
70.100000000
 20
-425.058819459
 30
0.000000000
 11
70.100000000
 21
-425.058819459
 31
19.000000000
  0
ARC
  5
A69
330
A02
100
AcDbEntity
  8
Part__Feature
100
AcDbCircle
 10
65.000000000
 20
-425.058819459
 30
19.000000000
 40
5.100000000
100
AcDbArc
 50
180.000000000
 51
0.000000000
  0
LINE
  5
A6A
330
A02
100
AcDbEntity
  8
Part__Feature
100
AcDbLine
 10
59.900000000
 20
-425.058819459
 30
0.000000000
 11
59.900000000
 21
-425.058819459
 31
19.000000000
  0
ARC
  5
A6B
330
A02
100
AcDbEntity
  8
Part__Feature
100
AcDbCircle
 10
65.000000000
 20
-425.058819459
 30
0.000000000
 40
5.100000000
100
AcDbArc
 50
180.000000000
 51
0.000000000
  0
LINE
  5
A6C
330
A02
100
AcDbEntity
  8
Part__Feature
100
AcDbLine
 10
-59.900000000
 20
-425.058819459
 30
0.000000000
 11
-59.900000000
 21
-425.058819459
 31
19.000000000
  0
ARC
  5
A6D
330
A02
100
AcDbEntity
  8
Part__Feature
100
AcDbCircle
 10
-65.000000000
 20
-425.058819459
 30
19.000000000
 40
5.100000000
100
AcDbArc
 50
180.000000000
 51
0.000000000
  0
LINE
  5
A6E
330
A02
100
AcDbEntity
  8
Part__Feature
100
AcDbLine
 10
-70.100000000
 20
-425.058819459
 30
0.000000000
 11
-70.100000000
 21
-425.058819459
 31
19.000000000
  0
ARC
  5
A6F
330
A02
100
AcDbEntity
  8
Part__Feature
100
AcDbCircle
 10
-65.000000000
 20
-425.058819459
 30
0.000000000
 40
5.100000000
100
AcDbArc
 50
180.000000000
 51
0.000000000
  0
LINE
  5
A70
330
A02
100
AcDbEntity
  8
Part__Feature
100
AcDbLine
 10
-330.511735754
 20
-268.821060976
 30
0.000000000
 11
-330.511735754
 21
-268.821060976
 31
19.000000000
  0
ARC
  5
A71
330
A02
100
AcDbEntity
  8
Part__Feature
100
AcDbCircle
 10
-335.611735754
 20
-268.821060976
 30
19.000000000
 40
5.100000000
100
AcDbArc
 50
180.000000000
 51
0.000000000
  0
LINE
  5
A72
330
A02
100
AcDbEntity
  8
Part__Feature
100
AcDbLine
 10
-340.711735754
 20
-268.821060976
 30
0.000000000
 11
-340.711735754
 21
-268.821060976
 31
19.000000000
  0
ARC
  5
A73
330
A02
100
AcDbEntity
  8
Part__Feature
100
AcDbCircle
 10
-335.611735754
 20
-268.821060976
 30
0.000000000
 40
5.100000000
100
AcDbArc
 50
180.000000000
 51
0.000000000
  0
LINE
  5
A74
330
A02
100
AcDbEntity
  8
Part__Feature
100
AcDbLine
 10
-395.511735754
 20
-156.237758484
 30
0.000000000
 11
-395.511735754
 21
-156.237758484
 31
19.000000000
  0
ARC
  5
A75
330
A02
100
AcDbEntity
  8
Part__Feature
100
AcDbCircle
 10
-400.611735754
 20
-156.237758484
 30
19.000000000
 40
5.100000000
100
AcDbArc
 50
180.000000000
 51
0.000000000
  0
LINE
  5
A76
330
A02
100
AcDbEntity
  8
Part__Feature
100
AcDbLine
 10
-405.711735754
 20
-156.237758484
 30
0.000000000
 11
-405.711735754
 21
-156.237758484
 31
19.000000000
  0
ARC
  5
A77
330
A02
100
AcDbEntity
  8
Part__Feature
100
AcDbCircle
 10
-400.611735754
 20
-156.237758484
 30
0.000000000
 40
5.100000000
100
AcDbArc
 50
180.000000000
 51
0.000000000
  0
LINE
  5
A78
330
A02
100
AcDbEntity
  8
Part__Feature
100
AcDbLine
 10
-395.511735754
 20
156.237758484
 30
0.000000000
 11
-395.511735754
 21
156.237758484
 31
19.000000000
  0
ARC
  5
A79
330
A02
100
AcDbEntity
  8
Part__Feature
100
AcDbCircle
 10
-400.611735754
 20
156.237758484
 30
19.000000000
 40
5.100000000
100
AcDbArc
 50
180.000000000
 51
0.000000000
  0
LINE
  5
A7A
330
A02
100
AcDbEntity
  8
Part__Feature
100
AcDbLine
 10
-405.711735754
 20
156.237758484
 30
0.000000000
 11
-405.711735754
 21
156.237758484
 31
19.000000000
  0
ARC
  5
A7B
330
A02
100
AcDbEntity
  8
Part__Feature
100
AcDbCircle
 10
-400.611735754
 20
156.237758484
 30
0.000000000
 40
5.100000000
100
AcDbArc
 50
180.000000000
 51
0.000000000
  0
LINE
  5
A7C
330
A02
100
AcDbEntity
  8
Part__Feature
100
AcDbLine
 10
-330.511735754
 20
268.821060976
 30
0.000000000
 11
-330.511735754
 21
268.821060976
 31
19.000000000
  0
ARC
  5
A7D
330
A02
100
AcDbEntity
  8
Part__Feature
100
AcDbCircle
 10
-335.611735754
 20
268.821060976
 30
19.000000000
 40
5.100000000
100
AcDbArc
 50
180.000000000
 51
0.000000000
  0
LINE
  5
A7E
330
A02
100
AcDbEntity
  8
Part__Feature
100
AcDbLine
 10
-340.711735754
 20
268.821060976
 30
0.000000000
 11
-340.711735754
 21
268.821060976
 31
19.000000000
  0
ARC
  5
A7F
330
A02
100
AcDbEntity
  8
Part__Feature
100
AcDbCircle
 10
-335.611735754
 20
268.821060976
 30
0.000000000
 40
5.100000000
100
AcDbArc
 50
180.000000000
 51
0.000000000
  0
LINE
  5
A80
330
A02
100
AcDbEntity
  8
Part__Feature
100
AcDbLine
 10
-295.460488313
 20
235.247422612
 30
11.000000000
 11
-295.460488313
 21
235.247422612
 31
19.000000000
  0
ARC
  5
A81
330
A02
100
AcDbEntity
  8
Part__Feature
100
AcDbCircle
 10
-323.460488313
 20
186.750000000
 30
19.000000000
 40
56.000000000
100
AcDbArc
 50
0.000000000
 51
60.000000000
  0
LINE
  5
A82
330
A02
100
AcDbEntity
  8
Part__Feature
100
AcDbLine
 10
-267.460488313
 20
186.750000000
 30
11.000000000
 11
-267.460488313
 21
186.750000000
 31
19.000000000
  0
ARC
  5
A83
330
A02
100
AcDbEntity
  8
Part__Feature
100
AcDbCircle
 10
-323.460488313
 20
186.750000000
 30
11.000000000
 40
56.000000000
100
AcDbArc
 50
0.000000000
 51
60.000000000
  0
LINE
  5
A84
330
A02
100
AcDbEntity
  8
Part__Feature
100
AcDbLine
 10
-351.460488313
 20
-138.252577388
 30
11.000000000
 11
-351.460488313
 21
-138.252577388
 31
19.000000000
  0
ARC
  5
A85
330
A02
100
AcDbEntity
  8
Part__Feature
100
AcDbCircle
 10
-323.460488313
 20
-186.750000000
 30
19.000000000
 40
56.000000000
100
AcDbArc
 50
0.000000000
 51
120.000000000
  0
LINE
  5
A86
330
A02
100
AcDbEntity
  8
Part__Feature
100
AcDbLine
 10
-267.460488313
 20
-186.750000000
 30
11.000000000
 11
-267.460488313
 21
-186.750000000
 31
19.000000000
  0
ARC
  5
A87
330
A02
100
AcDbEntity
  8
Part__Feature
100
AcDbCircle
 10
-323.460488313
 20
-186.750000000
 30
11.000000000
 40
56.000000000
100
AcDbArc
 50
0.000000000
 51
120.000000000
  0
ARC
  5
A88
330
A02
100
AcDbEntity
  8
Part__Feature
100
AcDbCircle
 10
0.000000000
 20
0.000000000
 30
19.000000000
 40
445.000000000
100
AcDbArc
 50
0.000000000
 51
22.770576959
  0
LINE
  5
A89
330
A02
100
AcDbEntity
  8
Part__Feature
100
AcDbLine
 10
445.000000000
 20
0.000000000
 30
19.000000000
 11
445.000000000
 21
0.000000000
 31
0.000000000
  0
ARC
  5
A8A
330
A02
100
AcDbEntity
  8
Part__Feature
100
AcDbCircle
 10
0.000000000
 20
0.000000000
 30
0.000000000
 40
445.000000000
100
AcDbArc
 50
0.000000000
 51
180.000000000
  0
LINE
  5
A8B
330
A02
100
AcDbEntity
  8
Part__Feature
100
AcDbLine
 10
-445.000000000
 20
0.000000000
 30
19.000000000
 11
-445.000000000
 21
0.000000000
 31
0.000000000
  0
ARC
  5
A8C
330
A02
100
AcDbEntity
  8
Part__Feature
100
AcDbCircle
 10
0.000000000
 20
0.000000000
 30
19.000000000
 40
445.000000000
100
AcDbArc
 50
157.229423041
 51
180.000000000
  0
LINE
  5
A8D
330
A02
100
AcDbEntity
  8
Part__Feature
100
AcDbLine
 10
-410.317603571
 20
172.233748726
 30
11.000000000
 11
-410.317603571
 21
172.233748726
 31
19.000000000
  0
ARC
  5
A8E
330
A02
100
AcDbEntity
  8
Part__Feature
100
AcDbCircle
 10
0.000000000
 20
0.000000000
 30
11.000000000
 40
445.000000000
100
AcDbArc
 50
142.770576959
 51
157.229423041
  0
LINE
  5
A8F
330
A02
100
AcDbEntity
  8
Part__Feature
100
AcDbLine
 10
-354.317603571
 20
269.228593949
 30
11.000000000
 11
-354.317603571
 21
269.228593949
 31
19.000000000
  0
ARC
  5
A90
330
A02
100
AcDbEntity
  8
Part__Feature
100
AcDbCircle
 10
0.000000000
 20
0.000000000
 30
19.000000000
 40
445.000000000
100
AcDbArc
 50
97.229423041
 51
142.770576959
  0
LINE
  5
A91
330
A02
100
AcDbEntity
  8
Part__Feature
100
AcDbLine
 10
-56.000000000
 20
441.462342675
 30
11.000000000
 11
-56.000000000
 21
441.462342675
 31
19.000000000
  0
ARC
  5
A92
330
A02
100
AcDbEntity
  8
Part__Feature
100
AcDbCircle
 10
0.000000000
 20
0.000000000
 30
11.000000000
 40
445.000000000
100
AcDbArc
 50
82.770576959
 51
97.229423041
  0
LINE
  5
A93
330
A02
100
AcDbEntity
  8
Part__Feature
100
AcDbLine
 10
56.000000000
 20
441.462342675
 30
11.000000000
 11
56.000000000
 21
441.462342675
 31
19.000000000
  0
ARC
  5
A94
330
A02
100
AcDbEntity
  8
Part__Feature
100
AcDbCircle
 10
0.000000000
 20
0.000000000
 30
19.000000000
 40
445.000000000
100
AcDbArc
 50
37.229423041
 51
82.770576959
  0
LINE
  5
A95
330
A02
100
AcDbEntity
  8
Part__Feature
100
AcDbLine
 10
354.317603571
 20
269.228593949
 30
11.000000000
 11
354.317603571
 21
269.228593949
 31
19.000000000
  0
ARC
  5
A96
330
A02
100
AcDbEntity
  8
Part__Feature
100
AcDbCircle
 10
0.000000000
 20
0.000000000
 30
11.000000000
 40
445.000000000
100
AcDbArc
 50
22.770576959
 51
37.229423041
  0
LINE
  5
A97
330
A02
100
AcDbEntity
  8
Part__Feature
100
AcDbLine
 10
410.317603571
 20
172.233748726
 30
11.000000000
 11
410.317603571
 21
172.233748726
 31
19.000000000
  0
ARC
  5
A98
330
A02
100
AcDbEntity
  8
Part__Feature
100
AcDbCircle
 10
0.000000000
 20
0.000000000
 30
6.000000000
 40
293.500000000
100
AcDbArc
 50
-164.992600862
 51
-75.007399138
  0
SPLINE
  5
A99
330
A02
100
AcDbEntity
  8
Part__Feature
100
AcDbSpline
210
0
220
0
230
1
 70
8
 71
1
 72
4
 73
2
 74
0
 40
0.015198102
 40
0.015198102
 40
0.023831286
 40
0.023831286
 10
-283.489417792
 20
-76.000000000
 30
6.000000000
 10
-289.696824284
 20
-76.000000000
 30
0.000000000
  0
ARC
  5
A9A
330
A02
100
AcDbEntity
  8
Part__Feature
100
AcDbCircle
 10
0.000000000
 20
0.000000000
 30
0.000000000
 40
299.500000000
100
AcDbArc
 50
-165.300099760
 51
-74.699900240
  0
SPLINE
  5
A9B
330
A02
100
AcDbEntity
  8
Part__Feature
100
AcDbSpline
210
0
220
0
230
1
 70
8
 71
1
 72
4
 73
2
 74
0
 40
0.000000288
 40
0.000000288
 40
0.008633473
 40
0.008633473
 10
79.030481454
 20
-288.884809225
 30
0.000000000
 10
75.926778208
 20
-283.509037512
 30
6.000000000
  0
ARC
  5
A9C
330
A02
100
AcDbEntity
  8
Part__Feature
100
AcDbCircle
 10
0.000000000
 20
0.000000000
 30
0.000000000
 40
299.500000000
100
AcDbArc
 50
-71.487950413
 51
-67.868202726
  0
SPLINE
  5
A9D
330
A02
100
AcDbEntity
  8
Part__Feature
100
AcDbSpline
210
0
220
0
230
1
 70
8
 71
1
 72
4
 73
2
 74
0
 40
0.000000284
 40
0.000000284
 40
0.004476679
 40
0.004476679
 10
112.833150234
 20
-277.432748983
 30
0.000000000
 10
111.242958445
 20
-274.678456011
 30
3.150122322
  0
SPLINE
  5
A9E
330
A02
100
AcDbEntity
  8
Part__Feature
100
AcDbSpline
210
0
220
0
230
1
 70
8
 71
2
 72
6
 73
3
 74
0
 40
0.000000233
 40
0.000000233
 40
0.000000233
 40
0.018913389
 40
0.018913389
 40
0.018913389
 10
111.242958445
 20
-274.678456011
 30
3.150122322
 10
103.127388332
 20
-279.363982600
 30
1.850737042
 10
95.092473927
 20
-284.002942595
 30
0.000000000
  0
ARC
  5
A9F
330
A02
100
AcDbEntity
  8
Part__Feature
100
AcDbCircle
 10
0.000000000
 20
0.000000000
 30
0.000000000
 40
299.500000000
100
AcDbArc
 50
-52.131797274
 51
-48.512049587
  0
SPLINE
  5
AA0
330
A02
100
AcDbEntity
  8
Part__Feature
100
AcDbSpline
210
0
220
0
230
1
 70
8
 71
2
 72
6
 73
3
 74
0
 40
0.000001023
 40
0.000001023
 40
0.000001023
 40
0.018914180
 40
0.018914180
 40
0.018914180
 10
198.407526073
 20
-224.353969427
 30
0.000000000
 10
190.372611668
 20
-228.992929421
 30
1.850737042
 10
182.257041555
 20
-233.678456011
 30
3.150122322
  0
SPLINE
  5
AA1
330
A02
100
AcDbEntity
  8
Part__Feature
100
AcDbSpline
210
0
220
0
230
1
 70
8
 71
1
 72
4
 73
2
 74
0
 40
0.000000325
 40
0.000000325
 40
0.004476720
 40
0.004476720
 10
182.257041555
 20
-233.678456011
 30
3.150122322
 10
183.847233344
 20
-236.432748983
 30
0.000000000
  0
ARC
  5
AA2
330
A02
100
AcDbEntity
  8
Part__Feature
100
AcDbCircle
 10
0.000000000
 20
0.000000000
 30
19.000000000
 40
293.500000000
100
AcDbArc
 50
-164.992600862
 51
-75.007399138
  0
LINE
  5
AA3
330
A02
100
AcDbEntity
  8
Part__Feature
100
AcDbLine
 10
-283.489417792
 20
-76.000000000
 30
19.000000000
 11
-283.489417792
 21
-76.000000000
 31
6.000000000
  0
ARC
  5
AA4
330
A02
100
AcDbEntity
  8
Part__Feature
100
AcDbCircle
 10
0.000000000
 20
0.000000000
 30
6.000000000
 40
293.500000000
100
AcDbArc
 50
-164.992600862
 51
-75.007399138
  0
LINE
  5
AA5
330
A02
100
AcDbEntity
  8
Part__Feature
100
AcDbLine
 10
75.926778208
 20
-283.509037512
 30
19.000000000
 11
75.926778208
 21
-283.509037512
 31
6.000000000
  0
ARC
  5
AA6
330
A02
100
AcDbEntity
  8
Part__Feature
100
AcDbCircle
 10
0.000000000
 20
0.000000000
 30
6.000000000
 40
293.500000000
100
AcDbArc
 50
75.007399138
 51
164.992600862
  0
SPLINE
  5
AA7
330
A02
100
AcDbEntity
  8
Part__Feature
100
AcDbSpline
210
0
220
0
230
1
 70
8
 71
1
 72
4
 73
2
 74
0
 40
0.000000288
 40
0.000000288
 40
0.008633474
 40
0.008633474
 10
75.926778208
 20
283.509037512
 30
6.000000000
 10
79.030481454
 20
288.884809225
 30
0.000000000
  0
ARC
  5
AA8
330
A02
100
AcDbEntity
  8
Part__Feature
100
AcDbCircle
 10
0.000000000
 20
0.000000000
 30
0.000000000
 40
299.500000000
100
AcDbArc
 50
74.699900240
 51
165.300099760
  0
SPLINE
  5
AA9
330
A02
100
AcDbEntity
  8
Part__Feature
100
AcDbSpline
210
0
220
0
230
1
 70
8
 71
1
 72
4
 73
2
 74
0
 40
0.021816274
 40
0.021816274
 40
0.030449458
 40
0.030449458
 10
-289.696824284
 20
76.000000000
 30
0.000000000
 10
-283.489417792
 20
76.000000000
 30
6.000000000
  0
ARC
  5
AAA
330
A02
100
AcDbEntity
  8
Part__Feature
100
AcDbCircle
 10
0.000000000
 20
0.000000000
 30
0.000000000
 40
299.500000000
100
AcDbArc
 50
168.512049587
 51
172.131797274
  0
SPLINE
  5
AAB
330
A02
100
AcDbEntity
  8
Part__Feature
100
AcDbSpline
210
0
220
0
230
1
 70
8
 71
1
 72
4
 73
2
 74
0
 40
0.015150382
 40
0.015150382
 40
0.019626777
 40
0.019626777
 10
-296.680383578
 20
41.000000000
 30
0.000000000
 10
-293.500000000
 20
41.000000000
 30
3.150122322
  0
SPLINE
  5
AAC
330
A02
100
AcDbEntity
  8
Part__Feature
100
AcDbSpline
210
0
220
0
230
1
 70
8
 71
2
 72
8
 73
5
 74
0
 40
0.061591381
 40
0.061591381
 40
0.061591381
 40
0.071007702
 40
0.071007702
 40
0.080424022
 40
0.080424022
 40
0.080424022
 10
-293.500000000
 20
41.000000000
 30
3.150122322
 10
-293.500000000
 20
45.688705435
 30
2.501045336
 10
-293.500000000
 20
50.355831426
 30
1.711552006
 10
-293.500000000
 20
55.019293280
 30
0.922511280
 10
-293.500000000
 20
59.648973168
 30
0.000000000
  0
ARC
  5
AAD
330
A02
100
AcDbEntity
  8
Part__Feature
100
AcDbCircle
 10
0.000000000
 20
0.000000000
 30
0.000000000
 40
299.500000000
100
AcDbArc
 50
-172.131797274
 51
-168.512049587
  0
SPLINE
  5
AAE
330
A02
100
AcDbEntity
  8
Part__Feature
100
AcDbSpline
210
0
220
0
230
1
 70
8
 71
2
 72
6
 73
3
 74
0
 40
0.068317504
 40
0.068317504
 40
0.068317504
 40
0.087215867
 40
0.087215867
 40
0.087215867
 10
-293.500000000
 20
-59.648973168
 30
0.000000000
 10
-293.500000000
 20
-50.352073093
 30
1.853932404
 10
-293.500000000
 20
-41.000000000
 30
3.150122322
  0
SPLINE
  5
AAF
330
A02
100
AcDbEntity
  8
Part__Feature
100
AcDbSpline
210
0
220
0
230
1
 70
8
 71
1
 72
4
 73
2
 74
0
 40
0.010920293
 40
0.010920293
 40
0.015396688
 40
0.015396688
 10
-293.500000000
 20
-41.000000000
 30
3.150122322
 10
-296.680383578
 20
-41.000000000
 30
0.000000000
  0
ARC
  5
AB0
330
A02
100
AcDbEntity
  8
Part__Feature
100
AcDbCircle
 10
0.000000000
 20
0.000000000
 30
19.000000000
 40
293.500000000
100
AcDbArc
 50
75.007399138
 51
164.992600862
  0
LINE
  5
AB1
330
A02
100
AcDbEntity
  8
Part__Feature
100
AcDbLine
 10
75.926778208
 20
283.509037512
 30
19.000000000
 11
75.926778208
 21
283.509037512
 31
6.000000000
  0
ARC
  5
AB2
330
A02
100
AcDbEntity
  8
Part__Feature
100
AcDbCircle
 10
0.000000000
 20
0.000000000
 30
6.000000000
 40
293.500000000
100
AcDbArc
 50
75.007399138
 51
164.992600862
  0
LINE
  5
AB3
330
A02
100
AcDbEntity
  8
Part__Feature
100
AcDbLine
 10
-283.489417792
 20
76.000000000
 30
19.000000000
 11
-283.489417792
 21
76.000000000
 31
6.000000000
  0
ARC
  5
AB4
330
A02
100
AcDbEntity
  8
Part__Feature
100
AcDbCircle
 10
0.000000000
 20
0.000000000
 30
0.000000000
 40
299.500000000
100
AcDbArc
 50
-45.300099760
 51
45.300099760
  0
SPLINE
  5
AB5
330
A02
100
AcDbEntity
  8
Part__Feature
100
AcDbSpline
210
0
220
0
230
1
 70
8
 71
1
 72
4
 73
2
 74
0
 40
0.000000288
 40
0.000000288
 40
0.008633473
 40
0.008633473
 10
210.666342829
 20
212.884809225
 30
0.000000000
 10
207.562639584
 20
207.509037512
 30
6.000000000
  0
ARC
  5
AB6
330
A02
100
AcDbEntity
  8
Part__Feature
100
AcDbCircle
 10
0.000000000
 20
0.000000000
 30
6.000000000
 40
293.500000000
100
AcDbArc
 50
-44.992600862
 51
44.992600862
  0
SPLINE
  5
AB7
330
A02
100
AcDbEntity
  8
Part__Feature
100
AcDbSpline
210
0
220
0
230
1
 70
8
 71
1
 72
4
 73
2
 74
0
 40
0.000000288
 40
0.000000288
 40
0.008633474
 40
0.008633474
 10
207.562639584
 20
-207.509037512
 30
6.000000000
 10
210.666342829
 20
-212.884809225
 30
0.000000000
  0
ARC
  5
AB8
330
A02
100
AcDbEntity
  8
Part__Feature
100
AcDbCircle
 10
0.000000000
 20
0.000000000
 30
0.000000000
 40
299.500000000
100
AcDbArc
 50
48.512049587
 51
52.131797274
  0
SPLINE
  5
AB9
330
A02
100
AcDbEntity
  8
Part__Feature
100
AcDbSpline
210
0
220
0
230
1
 70
8
 71
1
 72
4
 73
2
 74
0
 40
0.000000284
 40
0.000000284
 40
0.004476679
 40
0.004476679
 10
183.847233344
 20
236.432748983
 30
0.000000000
 10
182.257041555
 20
233.678456011
 30
3.150122322
  0
SPLINE
  5
ABA
330
A02
100
AcDbEntity
  8
Part__Feature
100
AcDbSpline
210
0
220
0
230
1
 70
8
 71
2
 72
6
 73
3
 74
0
 40
0.000000233
 40
0.000000233
 40
0.000000233
 40
0.018913389
 40
0.018913389
 40
0.018913389
 10
182.257041555
 20
233.678456011
 30
3.150122322
 10
190.372611668
 20
228.992929421
 30
1.850737042
 10
198.407526073
 20
224.353969427
 30
0.000000000
  0
LINE
  5
ABB
330
A02
100
AcDbEntity
  8
Part__Feature
100
AcDbLine
 10
80.932069312
 20
-292.178456011
 30
19.000000000
 11
75.926778208
 21
-283.509037512
 31
19.000000000
  0
ARC
  5
ABC
330
A02
100
AcDbEntity
  8
Part__Feature
100
AcDbCircle
 10
0.000000000
 20
0.000000000
 30
19.000000000
 40
293.500000000
100
AcDbArc
 50
-164.992600862
 51
-75.007399138
  0
LINE
  5
ABD
330
A02
100
AcDbEntity
  8
Part__Feature
100
AcDbLine
 10
-283.489417792
 20
-76.000000000
 30
19.000000000
 11
-293.500000000
 21
-76.000000000
 31
19.000000000
  0
LINE
  5
ABE
330
A02
100
AcDbEntity
  8
Part__Feature
100
AcDbLine
 10
-293.500000000
 20
-76.000000000
 30
19.000000000
 11
-293.500000000
 21
-41.000000000
 31
19.000000000
  0
LINE
  5
ABF
330
A02
100
AcDbEntity
  8
Part__Feature
100
AcDbLine
 10
-293.500000000
 20
-41.000000000
 30
19.000000000
 11
-333.500000000
 21
-41.000000000
 31
19.000000000
  0
LINE
  5
AC0
330
A02
100
AcDbEntity
  8
Part__Feature
100
AcDbLine
 10
-333.500000000
 20
-41.000000000
 30
19.000000000
 11
-333.500000000
 21
41.000000000
 31
19.000000000
  0
LINE
  5
AC1
330
A02
100
AcDbEntity
  8
Part__Feature
100
AcDbLine
 10
-333.500000000
 20
41.000000000
 30
19.000000000
 11
-293.500000000
 21
41.000000000
 31
19.000000000
  0
LINE
  5
AC2
330
A02
100
AcDbEntity
  8
Part__Feature
100
AcDbLine
 10
-293.500000000
 20
41.000000000
 30
19.000000000
 11
-293.500000000
 21
76.000000000
 31
19.000000000
  0
LINE
  5
AC3
330
A02
100
AcDbEntity
  8
Part__Feature
100
AcDbLine
 10
-293.500000000
 20
76.000000000
 30
19.000000000
 11
-283.489417792
 21
76.000000000
 31
19.000000000
  0
ARC
  5
AC4
330
A02
100
AcDbEntity
  8
Part__Feature
100
AcDbCircle
 10
0.000000000
 20
0.000000000
 30
19.000000000
 40
293.500000000
100
AcDbArc
 50
75.007399138
 51
164.992600862
  0
LINE
  5
AC5
330
A02
100
AcDbEntity
  8
Part__Feature
100
AcDbLine
 10
75.926778208
 20
283.509037512
 30
19.000000000
 11
80.932069312
 21
292.178456011
 31
19.000000000
  0
LINE
  5
AC6
330
A02
100
AcDbEntity
  8
Part__Feature
100
AcDbLine
 10
80.932069312
 20
292.178456011
 30
19.000000000
 11
111.242958445
 21
274.678456011
 31
19.000000000
  0
LINE
  5
AC7
330
A02
100
AcDbEntity
  8
Part__Feature
100
AcDbLine
 10
111.242958445
 20
274.678456011
 30
19.000000000
 11
131.242958445
 21
309.319472162
 31
19.000000000
  0
LINE
  5
AC8
330
A02
100
AcDbEntity
  8
Part__Feature
100
AcDbLine
 10
131.242958445
 20
309.319472162
 30
19.000000000
 11
202.257041555
 21
268.319472162
 31
19.000000000
  0
LINE
  5
AC9
330
A02
100
AcDbEntity
  8
Part__Feature
100
AcDbLine
 10
202.257041555
 20
268.319472162
 30
19.000000000
 11
182.257041555
 21
233.678456011
 31
19.000000000
  0
LINE
  5
ACA
330
A02
100
AcDbEntity
  8
Part__Feature
100
AcDbLine
 10
182.257041555
 20
233.678456011
 30
19.000000000
 11
212.567930688
 21
216.178456011
 31
19.000000000
  0
LINE
  5
ACB
330
A02
100
AcDbEntity
  8
Part__Feature
100
AcDbLine
 10
212.567930688
 20
216.178456011
 30
19.000000000
 11
207.562639584
 21
207.509037512
 31
19.000000000
  0
ARC
  5
ACC
330
A02
100
AcDbEntity
  8
Part__Feature
100
AcDbCircle
 10
0.000000000
 20
0.000000000
 30
19.000000000
 40
293.500000000
100
AcDbArc
 50
-44.992600862
 51
44.992600862
  0
LINE
  5
ACD
330
A02
100
AcDbEntity
  8
Part__Feature
100
AcDbLine
 10
207.562639584
 20
-207.509037512
 30
19.000000000
 11
212.567930688
 21
-216.178456011
 31
19.000000000
  0
LINE
  5
ACE
330
A02
100
AcDbEntity
  8
Part__Feature
100
AcDbLine
 10
212.567930688
 20
-216.178456011
 30
19.000000000
 11
182.257041555
 21
-233.678456011
 31
19.000000000
  0
LINE
  5
ACF
330
A02
100
AcDbEntity
  8
Part__Feature
100
AcDbLine
 10
182.257041555
 20
-233.678456011
 30
19.000000000
 11
202.257041555
 21
-268.319472162
 31
19.000000000
  0
LINE
  5
AD0
330
A02
100
AcDbEntity
  8
Part__Feature
100
AcDbLine
 10
202.257041555
 20
-268.319472162
 30
19.000000000
 11
131.242958445
 21
-309.319472162
 31
19.000000000
  0
LINE
  5
AD1
330
A02
100
AcDbEntity
  8
Part__Feature
100
AcDbLine
 10
131.242958445
 20
-309.319472162
 30
19.000000000
 11
111.242958445
 21
-274.678456011
 31
19.000000000
  0
LINE
  5
AD2
330
A02
100
AcDbEntity
  8
Part__Feature
100
AcDbLine
 10
111.242958445
 20
-274.678456011
 30
19.000000000
 11
80.932069312
 21
-292.178456011
 31
19.000000000
  0
ARC
  5
AD3
330
A02
100
AcDbEntity
  8
Part__Feature
100
AcDbCircle
 10
-185.000000000
 20
-320.429399400
 30
19.000000000
 40
50.000000000
100
AcDbArc
 50
0.000000000
 51
180.000000000
  0
ARC
  5
AD4
330
A02
100
AcDbEntity
  8
Part__Feature
100
AcDbCircle
 10
-185.000000000
 20
-320.429399400
 30
19.000000000
 40
50.000000000
100
AcDbArc
 50
180.000000000
 51
0.000000000
  0
ARC
  5
AD5
330
A02
100
AcDbEntity
  8
Part__Feature
100
AcDbCircle
 10
370.000000000
 20
0.000000000
 30
19.000000000
 40
50.000000000
100
AcDbArc
 50
0.000000000
 51
180.000000000
  0
ARC
  5
AD6
330
A02
100
AcDbEntity
  8
Part__Feature
100
AcDbCircle
 10
370.000000000
 20
0.000000000
 30
19.000000000
 40
50.000000000
100
AcDbArc
 50
180.000000000
 51
-0.000000000
  0
ARC
  5
AD7
330
A02
100
AcDbEntity
  8
Part__Feature
100
AcDbCircle
 10
-185.000000000
 20
320.429399400
 30
19.000000000
 40
50.000000000
100
AcDbArc
 50
0.000000000
 51
180.000000000
  0
ARC
  5
AD8
330
A02
100
AcDbEntity
  8
Part__Feature
100
AcDbCircle
 10
-185.000000000
 20
320.429399400
 30
19.000000000
 40
50.000000000
100
AcDbArc
 50
180.000000000
 51
0.000000000
  0
ARC
  5
AD9
330
A02
100
AcDbEntity
  8
Part__Feature
100
AcDbCircle
 10
-98.351237139
 20
367.051813990
 30
19.000000000
 40
4.250000000
100
AcDbArc
 50
0.000000000
 51
180.000000000
  0
ARC
  5
ADA
330
A02
100
AcDbEntity
  8
Part__Feature
100
AcDbCircle
 10
-98.351237139
 20
367.051813990
 30
19.000000000
 40
4.250000000
100
AcDbArc
 50
180.000000000
 51
0.000000000
  0
ARC
  5
ADB
330
A02
100
AcDbEntity
  8
Part__Feature
100
AcDbCircle
 10
98.351237139
 20
367.051813990
 30
19.000000000
 40
4.250000000
100
AcDbArc
 50
0.000000000
 51
180.000000000
  0
ARC
  5
ADC
330
A02
100
AcDbEntity
  8
Part__Feature
100
AcDbCircle
 10
98.351237139
 20
367.051813990
 30
19.000000000
 40
4.250000000
100
AcDbArc
 50
180.000000000
 51
0.000000000
  0
ARC
  5
ADD
330
A02
100
AcDbEntity
  8
Part__Feature
100
AcDbCircle
 10
268.700576851
 20
268.700576851
 30
19.000000000
 40
4.250000000
100
AcDbArc
 50
0.000000000
 51
180.000000000
  0
ARC
  5
ADE
330
A02
100
AcDbEntity
  8
Part__Feature
100
AcDbCircle
 10
268.700576851
 20
268.700576851
 30
19.000000000
 40
4.250000000
100
AcDbArc
 50
180.000000000
 51
0.000000000
  0
ARC
  5
ADF
330
A02
100
AcDbEntity
  8
Part__Feature
100
AcDbCircle
 10
367.051813990
 20
-98.351237139
 30
19.000000000
 40
4.250000000
100
AcDbArc
 50
0.000000000
 51
180.000000000
  0
ARC
  5
AE0
330
A02
100
AcDbEntity
  8
Part__Feature
100
AcDbCircle
 10
367.051813990
 20
-98.351237139
 30
19.000000000
 40
4.250000000
100
AcDbArc
 50
180.000000000
 51
0.000000000
  0
ARC
  5
AE1
330
A02
100
AcDbEntity
  8
Part__Feature
100
AcDbCircle
 10
367.051813990
 20
98.351237139
 30
19.000000000
 40
4.250000000
100
AcDbArc
 50
0.000000000
 51
180.000000000
  0
ARC
  5
AE2
330
A02
100
AcDbEntity
  8
Part__Feature
100
AcDbCircle
 10
367.051813990
 20
98.351237139
 30
19.000000000
 40
4.250000000
100
AcDbArc
 50
180.000000000
 51
0.000000000
  0
ARC
  5
AE3
330
A02
100
AcDbEntity
  8
Part__Feature
100
AcDbCircle
 10
268.700576851
 20
-268.700576851
 30
19.000000000
 40
4.250000000
100
AcDbArc
 50
0.000000000
 51
180.000000000
  0
ARC
  5
AE4
330
A02
100
AcDbEntity
  8
Part__Feature
100
AcDbCircle
 10
268.700576851
 20
-268.700576851
 30
19.000000000
 40
4.250000000
100
AcDbArc
 50
180.000000000
 51
0.000000000
  0
ARC
  5
AE5
330
A02
100
AcDbEntity
  8
Part__Feature
100
AcDbCircle
 10
98.351237139
 20
-367.051813990
 30
19.000000000
 40
4.250000000
100
AcDbArc
 50
0.000000000
 51
180.000000000
  0
ARC
  5
AE6
330
A02
100
AcDbEntity
  8
Part__Feature
100
AcDbCircle
 10
98.351237139
 20
-367.051813990
 30
19.000000000
 40
4.250000000
100
AcDbArc
 50
180.000000000
 51
0.000000000
  0
ARC
  5
AE7
330
A02
100
AcDbEntity
  8
Part__Feature
100
AcDbCircle
 10
-98.351237139
 20
-367.051813990
 30
19.000000000
 40
4.250000000
100
AcDbArc
 50
0.000000000
 51
180.000000000
  0
ARC
  5
AE8
330
A02
100
AcDbEntity
  8
Part__Feature
100
AcDbCircle
 10
-98.351237139
 20
-367.051813990
 30
19.000000000
 40
4.250000000
100
AcDbArc
 50
180.000000000
 51
0.000000000
  0
ARC
  5
AE9
330
A02
100
AcDbEntity
  8
Part__Feature
100
AcDbCircle
 10
-268.700576851
 20
-268.700576851
 30
19.000000000
 40
4.250000000
100
AcDbArc
 50
0.000000000
 51
180.000000000
  0
ARC
  5
AEA
330
A02
100
AcDbEntity
  8
Part__Feature
100
AcDbCircle
 10
-268.700576851
 20
-268.700576851
 30
19.000000000
 40
4.250000000
100
AcDbArc
 50
180.000000000
 51
0.000000000
  0
ARC
  5
AEB
330
A02
100
AcDbEntity
  8
Part__Feature
100
AcDbCircle
 10
-367.051813990
 20
-98.351237139
 30
19.000000000
 40
4.250000000
100
AcDbArc
 50
0.000000000
 51
180.000000000
  0
ARC
  5
AEC
330
A02
100
AcDbEntity
  8
Part__Feature
100
AcDbCircle
 10
-367.051813990
 20
-98.351237139
 30
19.000000000
 40
4.250000000
100
AcDbArc
 50
180.000000000
 51
0.000000000
  0
ARC
  5
AED
330
A02
100
AcDbEntity
  8
Part__Feature
100
AcDbCircle
 10
-367.051813990
 20
98.351237139
 30
19.000000000
 40
4.250000000
100
AcDbArc
 50
0.000000000
 51
180.000000000
  0
ARC
  5
AEE
330
A02
100
AcDbEntity
  8
Part__Feature
100
AcDbCircle
 10
-367.051813990
 20
98.351237139
 30
19.000000000
 40
4.250000000
100
AcDbArc
 50
180.000000000
 51
0.000000000
  0
ARC
  5
AEF
330
A02
100
AcDbEntity
  8
Part__Feature
100
AcDbCircle
 10
-268.700576851
 20
268.700576851
 30
19.000000000
 40
4.250000000
100
AcDbArc
 50
0.000000000
 51
180.000000000
  0
ARC
  5
AF0
330
A02
100
AcDbEntity
  8
Part__Feature
100
AcDbCircle
 10
-268.700576851
 20
268.700576851
 30
19.000000000
 40
4.250000000
100
AcDbArc
 50
180.000000000
 51
0.000000000
  0
ARC
  5
AF1
330
A02
100
AcDbEntity
  8
Part__Feature
100
AcDbCircle
 10
-65.000000000
 20
425.058819459
 30
19.000000000
 40
5.100000000
100
AcDbArc
 50
0.000000000
 51
180.000000000
  0
ARC
  5
AF2
330
A02
100
AcDbEntity
  8
Part__Feature
100
AcDbCircle
 10
-65.000000000
 20
425.058819459
 30
19.000000000
 40
5.100000000
100
AcDbArc
 50
180.000000000
 51
0.000000000
  0
ARC
  5
AF3
330
A02
100
AcDbEntity
  8
Part__Feature
100
AcDbCircle
 10
65.000000000
 20
425.058819459
 30
19.000000000
 40
5.100000000
100
AcDbArc
 50
0.000000000
 51
180.000000000
  0
ARC
  5
AF4
330
A02
100
AcDbEntity
  8
Part__Feature
100
AcDbCircle
 10
65.000000000
 20
425.058819459
 30
19.000000000
 40
5.100000000
100
AcDbArc
 50
180.000000000
 51
0.000000000
  0
ARC
  5
AF5
330
A02
100
AcDbEntity
  8
Part__Feature
100
AcDbCircle
 10
335.611735754
 20
268.821060976
 30
19.000000000
 40
5.100000000
100
AcDbArc
 50
0.000000000
 51
180.000000000
  0
ARC
  5
AF6
330
A02
100
AcDbEntity
  8
Part__Feature
100
AcDbCircle
 10
335.611735754
 20
268.821060976
 30
19.000000000
 40
5.100000000
100
AcDbArc
 50
180.000000000
 51
0.000000000
  0
ARC
  5
AF7
330
A02
100
AcDbEntity
  8
Part__Feature
100
AcDbCircle
 10
400.611735754
 20
156.237758484
 30
19.000000000
 40
5.100000000
100
AcDbArc
 50
0.000000000
 51
180.000000000
  0
ARC
  5
AF8
330
A02
100
AcDbEntity
  8
Part__Feature
100
AcDbCircle
 10
400.611735754
 20
156.237758484
 30
19.000000000
 40
5.100000000
100
AcDbArc
 50
180.000000000
 51
0.000000000
  0
ARC
  5
AF9
330
A02
100
AcDbEntity
  8
Part__Feature
100
AcDbCircle
 10
400.611735754
 20
-156.237758484
 30
19.000000000
 40
5.100000000
100
AcDbArc
 50
0.000000000
 51
180.000000000
  0
ARC
  5
AFA
330
A02
100
AcDbEntity
  8
Part__Feature
100
AcDbCircle
 10
400.611735754
 20
-156.237758484
 30
19.000000000
 40
5.100000000
100
AcDbArc
 50
180.000000000
 51
0.000000000
  0
ARC
  5
AFB
330
A02
100
AcDbEntity
  8
Part__Feature
100
AcDbCircle
 10
335.611735754
 20
-268.821060976
 30
19.000000000
 40
5.100000000
100
AcDbArc
 50
0.000000000
 51
180.000000000
  0
ARC
  5
AFC
330
A02
100
AcDbEntity
  8
Part__Feature
100
AcDbCircle
 10
335.611735754
 20
-268.821060976
 30
19.000000000
 40
5.100000000
100
AcDbArc
 50
180.000000000
 51
0.000000000
  0
ARC
  5
AFD
330
A02
100
AcDbEntity
  8
Part__Feature
100
AcDbCircle
 10
65.000000000
 20
-425.058819459
 30
19.000000000
 40
5.100000000
100
AcDbArc
 50
0.000000000
 51
180.000000000
  0
ARC
  5
AFE
330
A02
100
AcDbEntity
  8
Part__Feature
100
AcDbCircle
 10
65.000000000
 20
-425.058819459
 30
19.000000000
 40
5.100000000
100
AcDbArc
 50
180.000000000
 51
0.000000000
  0
ARC
  5
AFF
330
A02
100
AcDbEntity
  8
Part__Feature
100
AcDbCircle
 10
-65.000000000
 20
-425.058819459
 30
19.000000000
 40
5.100000000
100
AcDbArc
 50
0.000000000
 51
180.000000000
  0
ARC
  5
B00
330
A02
100
AcDbEntity
  8
Part__Feature
100
AcDbCircle
 10
-65.000000000
 20
-425.058819459
 30
19.000000000
 40
5.100000000
100
AcDbArc
 50
180.000000000
 51
0.000000000
  0
ARC
  5
B01
330
A02
100
AcDbEntity
  8
Part__Feature
100
AcDbCircle
 10
-335.611735754
 20
-268.821060976
 30
19.000000000
 40
5.100000000
100
AcDbArc
 50
0.000000000
 51
180.000000000
  0
ARC
  5
B02
330
A02
100
AcDbEntity
  8
Part__Feature
100
AcDbCircle
 10
-335.611735754
 20
-268.821060976
 30
19.000000000
 40
5.100000000
100
AcDbArc
 50
180.000000000
 51
0.000000000
  0
ARC
  5
B03
330
A02
100
AcDbEntity
  8
Part__Feature
100
AcDbCircle
 10
-400.611735754
 20
-156.237758484
 30
19.000000000
 40
5.100000000
100
AcDbArc
 50
0.000000000
 51
180.000000000
  0
ARC
  5
B04
330
A02
100
AcDbEntity
  8
Part__Feature
100
AcDbCircle
 10
-400.611735754
 20
-156.237758484
 30
19.000000000
 40
5.100000000
100
AcDbArc
 50
180.000000000
 51
0.000000000
  0
ARC
  5
B05
330
A02
100
AcDbEntity
  8
Part__Feature
100
AcDbCircle
 10
-400.611735754
 20
156.237758484
 30
19.000000000
 40
5.100000000
100
AcDbArc
 50
0.000000000
 51
180.000000000
  0
ARC
  5
B06
330
A02
100
AcDbEntity
  8
Part__Feature
100
AcDbCircle
 10
-400.611735754
 20
156.237758484
 30
19.000000000
 40
5.100000000
100
AcDbArc
 50
180.000000000
 51
0.000000000
  0
ARC
  5
B07
330
A02
100
AcDbEntity
  8
Part__Feature
100
AcDbCircle
 10
-335.611735754
 20
268.821060976
 30
19.000000000
 40
5.100000000
100
AcDbArc
 50
0.000000000
 51
180.000000000
  0
ARC
  5
B08
330
A02
100
AcDbEntity
  8
Part__Feature
100
AcDbCircle
 10
-335.611735754
 20
268.821060976
 30
19.000000000
 40
5.100000000
100
AcDbArc
 50
180.000000000
 51
0.000000000
  0
LINE
  5
B09
330
A02
100
AcDbEntity
  8
Part__Feature
100
AcDbLine
 10
-410.317603571
 20
172.233748726
 30
19.000000000
 11
-351.460488313
 21
138.252577388
 31
19.000000000
  0
ARC
  5
B0A
330
A02
100
AcDbEntity
  8
Part__Feature
100
AcDbCircle
 10
0.000000000
 20
0.000000000
 30
19.000000000
 40
445.000000000
100
AcDbArc
 50
157.229423041
 51
180.000000000
  0
ARC
  5
B0B
330
A02
100
AcDbEntity
  8
Part__Feature
100
AcDbCircle
 10
0.000000000
 20
0.000000000
 30
19.000000000
 40
445.000000000
100
AcDbArc
 50
180.000000000
 51
-157.229423041
  0
LINE
  5
B0C
330
A02
100
AcDbEntity
  8
Part__Feature
100
AcDbLine
 10
-351.460488313
 20
-138.252577388
 30
19.000000000
 11
-410.317603571
 21
-172.233748726
 31
19.000000000
  0
ARC
  5
B0D
330
A02
100
AcDbEntity
  8
Part__Feature
100
AcDbCircle
 10
-323.460488313
 20
-186.750000000
 30
19.000000000
 40
56.000000000
100
AcDbArc
 50
0.000000000
 51
120.000000000
  0
ARC
  5
B0E
330
A02
100
AcDbEntity
  8
Part__Feature
100
AcDbCircle
 10
-323.460488313
 20
-186.750000000
 30
19.000000000
 40
56.000000000
100
AcDbArc
 50
-60.000000000
 51
0.000000000
  0
LINE
  5
B0F
330
A02
100
AcDbEntity
  8
Part__Feature
100
AcDbLine
 10
-354.317603571
 20
-269.228593949
 30
19.000000000
 11
-295.460488313
 21
-235.247422612
 31
19.000000000
  0
ARC
  5
B10
330
A02
100
AcDbEntity
  8
Part__Feature
100
AcDbCircle
 10
0.000000000
 20
0.000000000
 30
19.000000000
 40
445.000000000
100
AcDbArc
 50
-142.770576959
 51
-97.229423041
  0
LINE
  5
B11
330
A02
100
AcDbEntity
  8
Part__Feature
100
AcDbLine
 10
-56.000000000
 20
-373.500000000
 30
19.000000000
 11
-56.000000000
 21
-441.462342675
 31
19.000000000
  0
ARC
  5
B12
330
A02
100
AcDbEntity
  8
Part__Feature
100
AcDbCircle
 10
-0.000000000
 20
-373.500000000
 30
19.000000000
 40
56.000000000
100
AcDbArc
 50
0.000000000
 51
180.000000000
  0
LINE
  5
B13
330
A02
100
AcDbEntity
  8
Part__Feature
100
AcDbLine
 10
56.000000000
 20
-441.462342675
 30
19.000000000
 11
56.000000000
 21
-373.500000000
 31
19.000000000
  0
ARC
  5
B14
330
A02
100
AcDbEntity
  8
Part__Feature
100
AcDbCircle
 10
0.000000000
 20
0.000000000
 30
19.000000000
 40
445.000000000
100
AcDbArc
 50
-82.770576959
 51
-37.229423041
  0
LINE
  5
B15
330
A02
100
AcDbEntity
  8
Part__Feature
100
AcDbLine
 10
295.460488313
 20
-235.247422612
 30
19.000000000
 11
354.317603571
 21
-269.228593949
 31
19.000000000
  0
ARC
  5
B16
330
A02
100
AcDbEntity
  8
Part__Feature
100
AcDbCircle
 10
323.460488313
 20
-186.750000000
 30
19.000000000
 40
56.000000000
100
AcDbArc
 50
60.000000000
 51
-120.000000000
  0
LINE
  5
B17
330
A02
100
AcDbEntity
  8
Part__Feature
100
AcDbLine
 10
410.317603571
 20
-172.233748726
 30
19.000000000
 11
351.460488313
 21
-138.252577388
 31
19.000000000
  0
ARC
  5
B18
330
A02
100
AcDbEntity
  8
Part__Feature
100
AcDbCircle
 10
0.000000000
 20
0.000000000
 30
19.000000000
 40
445.000000000
100
AcDbArc
 50
-22.770576959
 51
-0.000000000
  0
ARC
  5
B19
330
A02
100
AcDbEntity
  8
Part__Feature
100
AcDbCircle
 10
0.000000000
 20
0.000000000
 30
19.000000000
 40
445.000000000
100
AcDbArc
 50
0.000000000
 51
22.770576959
  0
LINE
  5
B1A
330
A02
100
AcDbEntity
  8
Part__Feature
100
AcDbLine
 10
351.460488313
 20
138.252577388
 30
19.000000000
 11
410.317603571
 21
172.233748726
 31
19.000000000
  0
ARC
  5
B1B
330
A02
100
AcDbEntity
  8
Part__Feature
100
AcDbCircle
 10
323.460488313
 20
186.750000000
 30
19.000000000
 40
56.000000000
100
AcDbArc
 50
120.000000000
 51
-60.000000000
  0
LINE
  5
B1C
330
A02
100
AcDbEntity
  8
Part__Feature
100
AcDbLine
 10
354.317603571
 20
269.228593949
 30
19.000000000
 11
295.460488313
 21
235.247422612
 31
19.000000000
  0
ARC
  5
B1D
330
A02
100
AcDbEntity
  8
Part__Feature
100
AcDbCircle
 10
0.000000000
 20
0.000000000
 30
19.000000000
 40
445.000000000
100
AcDbArc
 50
37.229423041
 51
82.770576959
  0
LINE
  5
B1E
330
A02
100
AcDbEntity
  8
Part__Feature
100
AcDbLine
 10
56.000000000
 20
373.500000000
 30
19.000000000
 11
56.000000000
 21
441.462342675
 31
19.000000000
  0
ARC
  5
B1F
330
A02
100
AcDbEntity
  8
Part__Feature
100
AcDbCircle
 10
0.000000000
 20
373.500000000
 30
19.000000000
 40
56.000000000
100
AcDbArc
 50
180.000000000
 51
0.000000000
  0
LINE
  5
B20
330
A02
100
AcDbEntity
  8
Part__Feature
100
AcDbLine
 10
-56.000000000
 20
441.462342675
 30
19.000000000
 11
-56.000000000
 21
373.500000000
 31
19.000000000
  0
ARC
  5
B21
330
A02
100
AcDbEntity
  8
Part__Feature
100
AcDbCircle
 10
0.000000000
 20
0.000000000
 30
19.000000000
 40
445.000000000
100
AcDbArc
 50
97.229423041
 51
142.770576959
  0
LINE
  5
B22
330
A02
100
AcDbEntity
  8
Part__Feature
100
AcDbLine
 10
-295.460488313
 20
235.247422612
 30
19.000000000
 11
-354.317603571
 21
269.228593949
 31
19.000000000
  0
ARC
  5
B23
330
A02
100
AcDbEntity
  8
Part__Feature
100
AcDbCircle
 10
-323.460488313
 20
186.750000000
 30
19.000000000
 40
56.000000000
100
AcDbArc
 50
0.000000000
 51
60.000000000
  0
ARC
  5
B24
330
A02
100
AcDbEntity
  8
Part__Feature
100
AcDbCircle
 10
-323.460488313
 20
186.750000000
 30
19.000000000
 40
56.000000000
100
AcDbArc
 50
-120.000000000
 51
0.000000000
  0
ARC
  5
B25
330
A02
100
AcDbEntity
  8
Part__Feature
100
AcDbCircle
 10
190.000000000
 20
-329.089653438
 30
-0.000000000
 40
5.000000000
100
AcDbArc
 50
0.000000000
 51
180.000000000
  0
ARC
  5
B26
330
A02
100
AcDbEntity
  8
Part__Feature
100
AcDbCircle
 10
190.000000000
 20
-329.089653438
 30
-0.000000000
 40
5.000000000
100
AcDbArc
 50
180.000000000
 51
0.000000000
  0
ARC
  5
B27
330
A02
100
AcDbEntity
  8
Part__Feature
100
AcDbCircle
 10
-380.000000000
 20
0.000000000
 30
0.000000000
 40
5.000000000
100
AcDbArc
 50
0.000000000
 51
180.000000000
  0
ARC
  5
B28
330
A02
100
AcDbEntity
  8
Part__Feature
100
AcDbCircle
 10
-380.000000000
 20
0.000000000
 30
0.000000000
 40
5.000000000
100
AcDbArc
 50
-180.000000000
 51
0.000000000
  0
ARC
  5
B29
330
A02
100
AcDbEntity
  8
Part__Feature
100
AcDbCircle
 10
190.000000000
 20
329.089653438
 30
0.000000000
 40
5.000000000
100
AcDbArc
 50
0.000000000
 51
180.000000000
  0
ARC
  5
B2A
330
A02
100
AcDbEntity
  8
Part__Feature
100
AcDbCircle
 10
190.000000000
 20
329.089653438
 30
0.000000000
 40
5.000000000
100
AcDbArc
 50
180.000000000
 51
0.000000000
  0
ARC
  5
B2B
330
A02
100
AcDbEntity
  8
Part__Feature
100
AcDbCircle
 10
0.000000000
 20
0.000000000
 30
0.000000000
 40
299.500000000
100
AcDbArc
 50
-165.300099760
 51
-74.699900240
  0
LINE
  5
B2C
330
A02
100
AcDbEntity
  8
Part__Feature
100
AcDbLine
 10
80.932069312
 20
-292.178456011
 30
0.000000000
 11
79.030481454
 21
-288.884809225
 31
0.000000000
  0
LINE
  5
B2D
330
A02
100
AcDbEntity
  8
Part__Feature
100
AcDbLine
 10
80.932069312
 20
-292.178456011
 30
0.000000000
 11
95.092473927
 21
-284.002942595
 31
0.000000000
  0
ARC
  5
B2E
330
A02
100
AcDbEntity
  8
Part__Feature
100
AcDbCircle
 10
0.000000000
 20
0.000000000
 30
0.000000000
 40
299.500000000
100
AcDbArc
 50
-71.487950413
 51
-67.868202726
  0
LINE
  5
B2F
330
A02
100
AcDbEntity
  8
Part__Feature
100
AcDbLine
 10
131.242958445
 20
-309.319472162
 30
0.000000000
 11
112.833150234
 21
-277.432748983
 31
0.000000000
  0
LINE
  5
B30
330
A02
100
AcDbEntity
  8
Part__Feature
100
AcDbLine
 10
202.257041555
 20
-268.319472162
 30
0.000000000
 11
131.242958445
 21
-309.319472162
 31
0.000000000
  0
LINE
  5
B31
330
A02
100
AcDbEntity
  8
Part__Feature
100
AcDbLine
 10
202.257041555
 20
-268.319472162
 30
0.000000000
 11
183.847233344
 21
-236.432748983
 31
0.000000000
  0
ARC
  5
B32
330
A02
100
AcDbEntity
  8
Part__Feature
100
AcDbCircle
 10
0.000000000
 20
0.000000000
 30
0.000000000
 40
299.500000000
100
AcDbArc
 50
-52.131797274
 51
-48.512049587
  0
LINE
  5
B33
330
A02
100
AcDbEntity
  8
Part__Feature
100
AcDbLine
 10
212.567930688
 20
-216.178456011
 30
0.000000000
 11
198.407526073
 21
-224.353969427
 31
0.000000000
  0
LINE
  5
B34
330
A02
100
AcDbEntity
  8
Part__Feature
100
AcDbLine
 10
210.666342829
 20
-212.884809225
 30
0.000000000
 11
212.567930688
 21
-216.178456011
 31
-0.000000000
  0
ARC
  5
B35
330
A02
100
AcDbEntity
  8
Part__Feature
100
AcDbCircle
 10
0.000000000
 20
0.000000000
 30
0.000000000
 40
299.500000000
100
AcDbArc
 50
-45.300099760
 51
45.300099760
  0
LINE
  5
B36
330
A02
100
AcDbEntity
  8
Part__Feature
100
AcDbLine
 10
212.567930688
 20
216.178456011
 30
0.000000000
 11
210.666342829
 21
212.884809225
 31
0.000000000
  0
LINE
  5
B37
330
A02
100
AcDbEntity
  8
Part__Feature
100
AcDbLine
 10
198.407526073
 20
224.353969427
 30
0.000000000
 11
212.567930688
 21
216.178456011
 31
0.000000000
  0
ARC
  5
B38
330
A02
100
AcDbEntity
  8
Part__Feature
100
AcDbCircle
 10
0.000000000
 20
0.000000000
 30
0.000000000
 40
299.500000000
100
AcDbArc
 50
48.512049587
 51
52.131797274
  0
LINE
  5
B39
330
A02
100
AcDbEntity
  8
Part__Feature
100
AcDbLine
 10
202.257041555
 20
268.319472162
 30
0.000000000
 11
183.847233344
 21
236.432748983
 31
0.000000000
  0
LINE
  5
B3A
330
A02
100
AcDbEntity
  8
Part__Feature
100
AcDbLine
 10
131.242958445
 20
309.319472162
 30
0.000000000
 11
202.257041555
 21
268.319472162
 31
0.000000000
  0
LINE
  5
B3B
330
A02
100
AcDbEntity
  8
Part__Feature
100
AcDbLine
 10
112.833150234
 20
277.432748983
 30
0.000000000
 11
131.242958445
 21
309.319472162
 31
0.000000000
  0
ARC
  5
B3C
330
A02
100
AcDbEntity
  8
Part__Feature
100
AcDbCircle
 10
0.000000000
 20
0.000000000
 30
0.000000000
 40
299.500000000
100
AcDbArc
 50
67.868202726
 51
71.487950413
  0
LINE
  5
B3D
330
A02
100
AcDbEntity
  8
Part__Feature
100
AcDbLine
 10
80.932069312
 20
292.178456011
 30
0.000000000
 11
95.092473927
 21
284.002942595
 31
0.000000000
  0
LINE
  5
B3E
330
A02
100
AcDbEntity
  8
Part__Feature
100
AcDbLine
 10
79.030481454
 20
288.884809225
 30
0.000000000
 11
80.932069312
 21
292.178456011
 31
0.000000000
  0
ARC
  5
B3F
330
A02
100
AcDbEntity
  8
Part__Feature
100
AcDbCircle
 10
0.000000000
 20
0.000000000
 30
0.000000000
 40
299.500000000
100
AcDbArc
 50
74.699900240
 51
165.300099760
  0
LINE
  5
B40
330
A02
100
AcDbEntity
  8
Part__Feature
100
AcDbLine
 10
-293.500000000
 20
76.000000000
 30
0.000000000
 11
-289.696824284
 21
76.000000000
 31
0.000000000
  0
LINE
  5
B41
330
A02
100
AcDbEntity
  8
Part__Feature
100
AcDbLine
 10
-293.500000000
 20
76.000000000
 30
0.000000000
 11
-293.500000000
 21
59.648973168
 31
0.000000000
  0
ARC
  5
B42
330
A02
100
AcDbEntity
  8
Part__Feature
100
AcDbCircle
 10
0.000000000
 20
0.000000000
 30
0.000000000
 40
299.500000000
100
AcDbArc
 50
168.512049587
 51
172.131797274
  0
LINE
  5
B43
330
A02
100
AcDbEntity
  8
Part__Feature
100
AcDbLine
 10
-333.500000000
 20
41.000000000
 30
0.000000000
 11
-296.680383578
 21
41.000000000
 31
0.000000000
  0
LINE
  5
B44
330
A02
100
AcDbEntity
  8
Part__Feature
100
AcDbLine
 10
-333.500000000
 20
-41.000000000
 30
0.000000000
 11
-333.500000000
 21
41.000000000
 31
0.000000000
  0
LINE
  5
B45
330
A02
100
AcDbEntity
  8
Part__Feature
100
AcDbLine
 10
-333.500000000
 20
-41.000000000
 30
0.000000000
 11
-296.680383578
 21
-41.000000000
 31
0.000000000
  0
ARC
  5
B46
330
A02
100
AcDbEntity
  8
Part__Feature
100
AcDbCircle
 10
0.000000000
 20
0.000000000
 30
0.000000000
 40
299.500000000
100
AcDbArc
 50
-172.131797274
 51
-168.512049587
  0
LINE
  5
B47
330
A02
100
AcDbEntity
  8
Part__Feature
100
AcDbLine
 10
-293.500000000
 20
-76.000000000
 30
0.000000000
 11
-293.500000000
 21
-59.648973168
 31
0.000000000
  0
LINE
  5
B48
330
A02
100
AcDbEntity
  8
Part__Feature
100
AcDbLine
 10
-289.696824284
 20
-76.000000000
 30
0.000000000
 11
-293.500000000
 21
-76.000000000
 31
0.000000000
  0
ARC
  5
B49
330
A02
100
AcDbEntity
  8
Part__Feature
100
AcDbCircle
 10
-185.000000000
 20
-320.429399400
 30
0.000000000
 40
50.000000000
100
AcDbArc
 50
0.000000000
 51
180.000000000
  0
ARC
  5
B4A
330
A02
100
AcDbEntity
  8
Part__Feature
100
AcDbCircle
 10
-185.000000000
 20
-320.429399400
 30
0.000000000
 40
50.000000000
100
AcDbArc
 50
180.000000000
 51
0.000000000
  0
ARC
  5
B4B
330
A02
100
AcDbEntity
  8
Part__Feature
100
AcDbCircle
 10
370.000000000
 20
0.000000000
 30
0.000000000
 40
50.000000000
100
AcDbArc
 50
0.000000000
 51
180.000000000
  0
ARC
  5
B4C
330
A02
100
AcDbEntity
  8
Part__Feature
100
AcDbCircle
 10
370.000000000
 20
0.000000000
 30
0.000000000
 40
50.000000000
100
AcDbArc
 50
180.000000000
 51
-0.000000000
  0
ARC
  5
B4D
330
A02
100
AcDbEntity
  8
Part__Feature
100
AcDbCircle
 10
-185.000000000
 20
320.429399400
 30
0.000000000
 40
50.000000000
100
AcDbArc
 50
0.000000000
 51
180.000000000
  0
ARC
  5
B4E
330
A02
100
AcDbEntity
  8
Part__Feature
100
AcDbCircle
 10
-185.000000000
 20
320.429399400
 30
0.000000000
 40
50.000000000
100
AcDbArc
 50
180.000000000
 51
0.000000000
  0
ARC
  5
B4F
330
A02
100
AcDbEntity
  8
Part__Feature
100
AcDbCircle
 10
-98.351237139
 20
367.051813990
 30
0.000000000
 40
4.250000000
100
AcDbArc
 50
0.000000000
 51
180.000000000
  0
ARC
  5
B50
330
A02
100
AcDbEntity
  8
Part__Feature
100
AcDbCircle
 10
-98.351237139
 20
367.051813990
 30
0.000000000
 40
4.250000000
100
AcDbArc
 50
180.000000000
 51
0.000000000
  0
ARC
  5
B51
330
A02
100
AcDbEntity
  8
Part__Feature
100
AcDbCircle
 10
98.351237139
 20
367.051813990
 30
0.000000000
 40
4.250000000
100
AcDbArc
 50
0.000000000
 51
180.000000000
  0
ARC
  5
B52
330
A02
100
AcDbEntity
  8
Part__Feature
100
AcDbCircle
 10
98.351237139
 20
367.051813990
 30
0.000000000
 40
4.250000000
100
AcDbArc
 50
180.000000000
 51
0.000000000
  0
ARC
  5
B53
330
A02
100
AcDbEntity
  8
Part__Feature
100
AcDbCircle
 10
268.700576851
 20
268.700576851
 30
0.000000000
 40
4.250000000
100
AcDbArc
 50
0.000000000
 51
180.000000000
  0
ARC
  5
B54
330
A02
100
AcDbEntity
  8
Part__Feature
100
AcDbCircle
 10
268.700576851
 20
268.700576851
 30
0.000000000
 40
4.250000000
100
AcDbArc
 50
180.000000000
 51
0.000000000
  0
ARC
  5
B55
330
A02
100
AcDbEntity
  8
Part__Feature
100
AcDbCircle
 10
367.051813990
 20
-98.351237139
 30
0.000000000
 40
4.250000000
100
AcDbArc
 50
0.000000000
 51
180.000000000
  0
ARC
  5
B56
330
A02
100
AcDbEntity
  8
Part__Feature
100
AcDbCircle
 10
367.051813990
 20
-98.351237139
 30
0.000000000
 40
4.250000000
100
AcDbArc
 50
180.000000000
 51
0.000000000
  0
ARC
  5
B57
330
A02
100
AcDbEntity
  8
Part__Feature
100
AcDbCircle
 10
367.051813990
 20
98.351237139
 30
0.000000000
 40
4.250000000
100
AcDbArc
 50
0.000000000
 51
180.000000000
  0
ARC
  5
B58
330
A02
100
AcDbEntity
  8
Part__Feature
100
AcDbCircle
 10
367.051813990
 20
98.351237139
 30
0.000000000
 40
4.250000000
100
AcDbArc
 50
180.000000000
 51
0.000000000
  0
ARC
  5
B59
330
A02
100
AcDbEntity
  8
Part__Feature
100
AcDbCircle
 10
268.700576851
 20
-268.700576851
 30
0.000000000
 40
4.250000000
100
AcDbArc
 50
0.000000000
 51
180.000000000
  0
ARC
  5
B5A
330
A02
100
AcDbEntity
  8
Part__Feature
100
AcDbCircle
 10
268.700576851
 20
-268.700576851
 30
0.000000000
 40
4.250000000
100
AcDbArc
 50
180.000000000
 51
0.000000000
  0
ARC
  5
B5B
330
A02
100
AcDbEntity
  8
Part__Feature
100
AcDbCircle
 10
98.351237139
 20
-367.051813990
 30
0.000000000
 40
4.250000000
100
AcDbArc
 50
0.000000000
 51
180.000000000
  0
ARC
  5
B5C
330
A02
100
AcDbEntity
  8
Part__Feature
100
AcDbCircle
 10
98.351237139
 20
-367.051813990
 30
0.000000000
 40
4.250000000
100
AcDbArc
 50
180.000000000
 51
0.000000000
  0
ARC
  5
B5D
330
A02
100
AcDbEntity
  8
Part__Feature
100
AcDbCircle
 10
-98.351237139
 20
-367.051813990
 30
0.000000000
 40
4.250000000
100
AcDbArc
 50
0.000000000
 51
180.000000000
  0
ARC
  5
B5E
330
A02
100
AcDbEntity
  8
Part__Feature
100
AcDbCircle
 10
-98.351237139
 20
-367.051813990
 30
0.000000000
 40
4.250000000
100
AcDbArc
 50
180.000000000
 51
0.000000000
  0
ARC
  5
B5F
330
A02
100
AcDbEntity
  8
Part__Feature
100
AcDbCircle
 10
-268.700576851
 20
-268.700576851
 30
0.000000000
 40
4.250000000
100
AcDbArc
 50
0.000000000
 51
180.000000000
  0
ARC
  5
B60
330
A02
100
AcDbEntity
  8
Part__Feature
100
AcDbCircle
 10
-268.700576851
 20
-268.700576851
 30
0.000000000
 40
4.250000000
100
AcDbArc
 50
180.000000000
 51
0.000000000
  0
ARC
  5
B61
330
A02
100
AcDbEntity
  8
Part__Feature
100
AcDbCircle
 10
-367.051813990
 20
-98.351237139
 30
0.000000000
 40
4.250000000
100
AcDbArc
 50
0.000000000
 51
180.000000000
  0
ARC
  5
B62
330
A02
100
AcDbEntity
  8
Part__Feature
100
AcDbCircle
 10
-367.051813990
 20
-98.351237139
 30
0.000000000
 40
4.250000000
100
AcDbArc
 50
180.000000000
 51
0.000000000
  0
ARC
  5
B63
330
A02
100
AcDbEntity
  8
Part__Feature
100
AcDbCircle
 10
-367.051813990
 20
98.351237139
 30
0.000000000
 40
4.250000000
100
AcDbArc
 50
0.000000000
 51
180.000000000
  0
ARC
  5
B64
330
A02
100
AcDbEntity
  8
Part__Feature
100
AcDbCircle
 10
-367.051813990
 20
98.351237139
 30
0.000000000
 40
4.250000000
100
AcDbArc
 50
180.000000000
 51
0.000000000
  0
ARC
  5
B65
330
A02
100
AcDbEntity
  8
Part__Feature
100
AcDbCircle
 10
-268.700576851
 20
268.700576851
 30
0.000000000
 40
4.250000000
100
AcDbArc
 50
0.000000000
 51
180.000000000
  0
ARC
  5
B66
330
A02
100
AcDbEntity
  8
Part__Feature
100
AcDbCircle
 10
-268.700576851
 20
268.700576851
 30
0.000000000
 40
4.250000000
100
AcDbArc
 50
180.000000000
 51
0.000000000
  0
ARC
  5
B67
330
A02
100
AcDbEntity
  8
Part__Feature
100
AcDbCircle
 10
-65.000000000
 20
425.058819459
 30
0.000000000
 40
5.100000000
100
AcDbArc
 50
0.000000000
 51
180.000000000
  0
ARC
  5
B68
330
A02
100
AcDbEntity
  8
Part__Feature
100
AcDbCircle
 10
-65.000000000
 20
425.058819459
 30
0.000000000
 40
5.100000000
100
AcDbArc
 50
180.000000000
 51
0.000000000
  0
ARC
  5
B69
330
A02
100
AcDbEntity
  8
Part__Feature
100
AcDbCircle
 10
65.000000000
 20
425.058819459
 30
0.000000000
 40
5.100000000
100
AcDbArc
 50
0.000000000
 51
180.000000000
  0
ARC
  5
B6A
330
A02
100
AcDbEntity
  8
Part__Feature
100
AcDbCircle
 10
65.000000000
 20
425.058819459
 30
0.000000000
 40
5.100000000
100
AcDbArc
 50
180.000000000
 51
0.000000000
  0
ARC
  5
B6B
330
A02
100
AcDbEntity
  8
Part__Feature
100
AcDbCircle
 10
335.611735754
 20
268.821060976
 30
0.000000000
 40
5.100000000
100
AcDbArc
 50
0.000000000
 51
180.000000000
  0
ARC
  5
B6C
330
A02
100
AcDbEntity
  8
Part__Feature
100
AcDbCircle
 10
335.611735754
 20
268.821060976
 30
0.000000000
 40
5.100000000
100
AcDbArc
 50
180.000000000
 51
0.000000000
  0
ARC
  5
B6D
330
A02
100
AcDbEntity
  8
Part__Feature
100
AcDbCircle
 10
400.611735754
 20
156.237758484
 30
0.000000000
 40
5.100000000
100
AcDbArc
 50
0.000000000
 51
180.000000000
  0
ARC
  5
B6E
330
A02
100
AcDbEntity
  8
Part__Feature
100
AcDbCircle
 10
400.611735754
 20
156.237758484
 30
0.000000000
 40
5.100000000
100
AcDbArc
 50
180.000000000
 51
0.000000000
  0
ARC
  5
B6F
330
A02
100
AcDbEntity
  8
Part__Feature
100
AcDbCircle
 10
400.611735754
 20
-156.237758484
 30
0.000000000
 40
5.100000000
100
AcDbArc
 50
0.000000000
 51
180.000000000
  0
ARC
  5
B70
330
A02
100
AcDbEntity
  8
Part__Feature
100
AcDbCircle
 10
400.611735754
 20
-156.237758484
 30
0.000000000
 40
5.100000000
100
AcDbArc
 50
180.000000000
 51
0.000000000
  0
ARC
  5
B71
330
A02
100
AcDbEntity
  8
Part__Feature
100
AcDbCircle
 10
335.611735754
 20
-268.821060976
 30
0.000000000
 40
5.100000000
100
AcDbArc
 50
0.000000000
 51
180.000000000
  0
ARC
  5
B72
330
A02
100
AcDbEntity
  8
Part__Feature
100
AcDbCircle
 10
335.611735754
 20
-268.821060976
 30
0.000000000
 40
5.100000000
100
AcDbArc
 50
180.000000000
 51
0.000000000
  0
ARC
  5
B73
330
A02
100
AcDbEntity
  8
Part__Feature
100
AcDbCircle
 10
65.000000000
 20
-425.058819459
 30
0.000000000
 40
5.100000000
100
AcDbArc
 50
0.000000000
 51
180.000000000
  0
ARC
  5
B74
330
A02
100
AcDbEntity
  8
Part__Feature
100
AcDbCircle
 10
65.000000000
 20
-425.058819459
 30
0.000000000
 40
5.100000000
100
AcDbArc
 50
180.000000000
 51
0.000000000
  0
ARC
  5
B75
330
A02
100
AcDbEntity
  8
Part__Feature
100
AcDbCircle
 10
-65.000000000
 20
-425.058819459
 30
0.000000000
 40
5.100000000
100
AcDbArc
 50
0.000000000
 51
180.000000000
  0
ARC
  5
B76
330
A02
100
AcDbEntity
  8
Part__Feature
100
AcDbCircle
 10
-65.000000000
 20
-425.058819459
 30
0.000000000
 40
5.100000000
100
AcDbArc
 50
180.000000000
 51
0.000000000
  0
ARC
  5
B77
330
A02
100
AcDbEntity
  8
Part__Feature
100
AcDbCircle
 10
-335.611735754
 20
-268.821060976
 30
0.000000000
 40
5.100000000
100
AcDbArc
 50
0.000000000
 51
180.000000000
  0
ARC
  5
B78
330
A02
100
AcDbEntity
  8
Part__Feature
100
AcDbCircle
 10
-335.611735754
 20
-268.821060976
 30
0.000000000
 40
5.100000000
100
AcDbArc
 50
180.000000000
 51
0.000000000
  0
ARC
  5
B79
330
A02
100
AcDbEntity
  8
Part__Feature
100
AcDbCircle
 10
-400.611735754
 20
-156.237758484
 30
0.000000000
 40
5.100000000
100
AcDbArc
 50
0.000000000
 51
180.000000000
  0
ARC
  5
B7A
330
A02
100
AcDbEntity
  8
Part__Feature
100
AcDbCircle
 10
-400.611735754
 20
-156.237758484
 30
0.000000000
 40
5.100000000
100
AcDbArc
 50
180.000000000
 51
0.000000000
  0
ARC
  5
B7B
330
A02
100
AcDbEntity
  8
Part__Feature
100
AcDbCircle
 10
-400.611735754
 20
156.237758484
 30
0.000000000
 40
5.100000000
100
AcDbArc
 50
0.000000000
 51
180.000000000
  0
ARC
  5
B7C
330
A02
100
AcDbEntity
  8
Part__Feature
100
AcDbCircle
 10
-400.611735754
 20
156.237758484
 30
0.000000000
 40
5.100000000
100
AcDbArc
 50
180.000000000
 51
0.000000000
  0
ARC
  5
B7D
330
A02
100
AcDbEntity
  8
Part__Feature
100
AcDbCircle
 10
-335.611735754
 20
268.821060976
 30
0.000000000
 40
5.100000000
100
AcDbArc
 50
0.000000000
 51
180.000000000
  0
ARC
  5
B7E
330
A02
100
AcDbEntity
  8
Part__Feature
100
AcDbCircle
 10
-335.611735754
 20
268.821060976
 30
0.000000000
 40
5.100000000
100
AcDbArc
 50
180.000000000
 51
0.000000000
  0
ARC
  5
B7F
330
A02
100
AcDbEntity
  8
Part__Feature
100
AcDbCircle
 10
0.000000000
 20
0.000000000
 30
0.000000000
 40
445.000000000
100
AcDbArc
 50
180.000000000
 51
-0.000000000
  0
ARC
  5
B80
330
A02
100
AcDbEntity
  8
Part__Feature
100
AcDbCircle
 10
0.000000000
 20
0.000000000
 30
0.000000000
 40
445.000000000
100
AcDbArc
 50
0.000000000
 51
180.000000000
  0
LINE
  5
B81
330
A02
100
AcDbEntity
  8
Part__Feature
100
AcDbLine
 10
445.000000000
 20
0.000000000
 30
19.000000000
 11
445.000000000
 21
0.000000000
 31
0.000000000
  0
ARC
  5
B82
330
A02
100
AcDbEntity
  8
Part__Feature
100
AcDbCircle
 10
0.000000000
 20
0.000000000
 30
19.000000000
 40
445.000000000
100
AcDbArc
 50
-22.770576959
 51
-0.000000000
  0
LINE
  5
B83
330
A02
100
AcDbEntity
  8
Part__Feature
100
AcDbLine
 10
410.317603571
 20
-172.233748726
 30
11.000000000
 11
410.317603571
 21
-172.233748726
 31
19.000000000
  0
ARC
  5
B84
330
A02
100
AcDbEntity
  8
Part__Feature
100
AcDbCircle
 10
0.000000000
 20
0.000000000
 30
11.000000000
 40
445.000000000
100
AcDbArc
 50
-37.229423041
 51
-22.770576959
  0
LINE
  5
B85
330
A02
100
AcDbEntity
  8
Part__Feature
100
AcDbLine
 10
354.317603571
 20
-269.228593949
 30
11.000000000
 11
354.317603571
 21
-269.228593949
 31
19.000000000
  0
ARC
  5
B86
330
A02
100
AcDbEntity
  8
Part__Feature
100
AcDbCircle
 10
0.000000000
 20
0.000000000
 30
19.000000000
 40
445.000000000
100
AcDbArc
 50
-82.770576959
 51
-37.229423041
  0
LINE
  5
B87
330
A02
100
AcDbEntity
  8
Part__Feature
100
AcDbLine
 10
56.000000000
 20
-441.462342675
 30
11.000000000
 11
56.000000000
 21
-441.462342675
 31
19.000000000
  0
ARC
  5
B88
330
A02
100
AcDbEntity
  8
Part__Feature
100
AcDbCircle
 10
0.000000000
 20
0.000000000
 30
11.000000000
 40
445.000000000
100
AcDbArc
 50
-97.229423041
 51
-82.770576959
  0
LINE
  5
B89
330
A02
100
AcDbEntity
  8
Part__Feature
100
AcDbLine
 10
-56.000000000
 20
-441.462342675
 30
11.000000000
 11
-56.000000000
 21
-441.462342675
 31
19.000000000
  0
ARC
  5
B8A
330
A02
100
AcDbEntity
  8
Part__Feature
100
AcDbCircle
 10
0.000000000
 20
0.000000000
 30
19.000000000
 40
445.000000000
100
AcDbArc
 50
-142.770576959
 51
-97.229423041
  0
LINE
  5
B8B
330
A02
100
AcDbEntity
  8
Part__Feature
100
AcDbLine
 10
-354.317603571
 20
-269.228593949
 30
11.000000000
 11
-354.317603571
 21
-269.228593949
 31
19.000000000
  0
ARC
  5
B8C
330
A02
100
AcDbEntity
  8
Part__Feature
100
AcDbCircle
 10
0.000000000
 20
0.000000000
 30
11.000000000
 40
445.000000000
100
AcDbArc
 50
-157.229423041
 51
-142.770576959
  0
LINE
  5
B8D
330
A02
100
AcDbEntity
  8
Part__Feature
100
AcDbLine
 10
-410.317603571
 20
-172.233748726
 30
11.000000000
 11
-410.317603571
 21
-172.233748726
 31
19.000000000
  0
ARC
  5
B8E
330
A02
100
AcDbEntity
  8
Part__Feature
100
AcDbCircle
 10
0.000000000
 20
0.000000000
 30
19.000000000
 40
445.000000000
100
AcDbArc
 50
180.000000000
 51
-157.229423041
  0
LINE
  5
B8F
330
A02
100
AcDbEntity
  8
Part__Feature
100
AcDbLine
 10
-445.000000000
 20
0.000000000
 30
19.000000000
 11
-445.000000000
 21
0.000000000
 31
0.000000000
  0
ARC
  5
B90
330
A02
100
AcDbEntity
  8
Part__Feature
100
AcDbCircle
 10
0.000000000
 20
0.000000000
 30
0.000000000
 40
445.000000000
100
AcDbArc
 50
180.000000000
 51
-0.000000000
  0
ARC
  5
B91
330
A02
100
AcDbEntity
  8
Part__Feature
100
AcDbCircle
 10
0.000000000
 20
0.000000000
 30
6.000000000
 40
293.500000000
100
AcDbArc
 50
-44.992600862
 51
44.992600862
  0
LINE
  5
B92
330
A02
100
AcDbEntity
  8
Part__Feature
100
AcDbLine
 10
207.562639584
 20
207.509037512
 30
19.000000000
 11
207.562639584
 21
207.509037512
 31
6.000000000
  0
ARC
  5
B93
330
A02
100
AcDbEntity
  8
Part__Feature
100
AcDbCircle
 10
0.000000000
 20
0.000000000
 30
19.000000000
 40
293.500000000
100
AcDbArc
 50
-44.992600862
 51
44.992600862
  0
LINE
  5
B94
330
A02
100
AcDbEntity
  8
Part__Feature
100
AcDbLine
 10
207.562639584
 20
-207.509037512
 30
19.000000000
 11
207.562639584
 21
-207.509037512
 31
6.000000000
  0
LINE
  5
B95
330
A02
100
AcDbEntity
  8
Part__Feature
100
AcDbLine
 10
-56.000000000
 20
373.500000000
 30
11.000000000
 11
-56.000000000
 21
373.500000000
 31
19.000000000
  0
ARC
  5
B96
330
A02
100
AcDbEntity
  8
Part__Feature
100
AcDbCircle
 10
0.000000000
 20
373.500000000
 30
11.000000000
 40
56.000000000
100
AcDbArc
 50
180.000000000
 51
0.000000000
  0
LINE
  5
B97
330
A02
100
AcDbEntity
  8
Part__Feature
100
AcDbLine
 10
56.000000000
 20
373.500000000
 30
11.000000000
 11
56.000000000
 21
373.500000000
 31
19.000000000
  0
ARC
  5
B98
330
A02
100
AcDbEntity
  8
Part__Feature
100
AcDbCircle
 10
0.000000000
 20
373.500000000
 30
19.000000000
 40
56.000000000
100
AcDbArc
 50
180.000000000
 51
0.000000000
  0
LINE
  5
B99
330
A02
100
AcDbEntity
  8
Part__Feature
100
AcDbLine
 10
-56.000000000
 20
441.462342675
 30
19.000000000
 11
-56.000000000
 21
373.500000000
 31
19.000000000
  0
LINE
  5
B9A
330
A02
100
AcDbEntity
  8
Part__Feature
100
AcDbLine
 10
-56.000000000
 20
373.500000000
 30
11.000000000
 11
-56.000000000
 21
373.500000000
 31
19.000000000
  0
LINE
  5
B9B
330
A02
100
AcDbEntity
  8
Part__Feature
100
AcDbLine
 10
-56.000000000
 20
441.462342675
 30
11.000000000
 11
-56.000000000
 21
373.500000000
 31
11.000000000
  0
LINE
  5
B9C
330
A02
100
AcDbEntity
  8
Part__Feature
100
AcDbLine
 10
-56.000000000
 20
441.462342675
 30
11.000000000
 11
-56.000000000
 21
441.462342675
 31
19.000000000
  0
LINE
  5
B9D
330
A02
100
AcDbEntity
  8
Part__Feature
100
AcDbLine
 10
56.000000000
 20
373.500000000
 30
19.000000000
 11
56.000000000
 21
441.462342675
 31
19.000000000
  0
LINE
  5
B9E
330
A02
100
AcDbEntity
  8
Part__Feature
100
AcDbLine
 10
56.000000000
 20
441.462342675
 30
11.000000000
 11
56.000000000
 21
441.462342675
 31
19.000000000
  0
LINE
  5
B9F
330
A02
100
AcDbEntity
  8
Part__Feature
100
AcDbLine
 10
56.000000000
 20
373.500000000
 30
11.000000000
 11
56.000000000
 21
441.462342675
 31
11.000000000
  0
LINE
  5
BA0
330
A02
100
AcDbEntity
  8
Part__Feature
100
AcDbLine
 10
56.000000000
 20
373.500000000
 30
11.000000000
 11
56.000000000
 21
373.500000000
 31
19.000000000
  0
ARC
  5
BA1
330
A02
100
AcDbEntity
  8
Part__Feature
100
AcDbCircle
 10
0.000000000
 20
373.500000000
 30
11.000000000
 40
56.000000000
100
AcDbArc
 50
180.000000000
 51
0.000000000
  0
LINE
  5
BA2
330
A02
100
AcDbEntity
  8
Part__Feature
100
AcDbLine
 10
56.000000000
 20
373.500000000
 30
11.000000000
 11
56.000000000
 21
441.462342675
 31
11.000000000
  0
ARC
  5
BA3
330
A02
100
AcDbEntity
  8
Part__Feature
100
AcDbCircle
 10
0.000000000
 20
0.000000000
 30
11.000000000
 40
445.000000000
100
AcDbArc
 50
82.770576959
 51
97.229423041
  0
LINE
  5
BA4
330
A02
100
AcDbEntity
  8
Part__Feature
100
AcDbLine
 10
-56.000000000
 20
441.462342675
 30
11.000000000
 11
-56.000000000
 21
373.500000000
 31
11.000000000
  0
LINE
  5
BA5
330
A02
100
AcDbEntity
  8
Part__Feature
100
AcDbLine
 10
295.460488313
 20
235.247422612
 30
11.000000000
 11
295.460488313
 21
235.247422612
 31
19.000000000
  0
ARC
  5
BA6
330
A02
100
AcDbEntity
  8
Part__Feature
100
AcDbCircle
 10
323.460488313
 20
186.750000000
 30
11.000000000
 40
56.000000000
100
AcDbArc
 50
120.000000000
 51
-60.000000000
  0
LINE
  5
BA7
330
A02
100
AcDbEntity
  8
Part__Feature
100
AcDbLine
 10
351.460488313
 20
138.252577388
 30
11.000000000
 11
351.460488313
 21
138.252577388
 31
19.000000000
  0
ARC
  5
BA8
330
A02
100
AcDbEntity
  8
Part__Feature
100
AcDbCircle
 10
323.460488313
 20
186.750000000
 30
19.000000000
 40
56.000000000
100
AcDbArc
 50
120.000000000
 51
-60.000000000
  0
LINE
  5
BA9
330
A02
100
AcDbEntity
  8
Part__Feature
100
AcDbLine
 10
354.317603571
 20
269.228593949
 30
19.000000000
 11
295.460488313
 21
235.247422612
 31
19.000000000
  0
LINE
  5
BAA
330
A02
100
AcDbEntity
  8
Part__Feature
100
AcDbLine
 10
295.460488313
 20
235.247422612
 30
11.000000000
 11
295.460488313
 21
235.247422612
 31
19.000000000
  0
LINE
  5
BAB
330
A02
100
AcDbEntity
  8
Part__Feature
100
AcDbLine
 10
354.317603571
 20
269.228593949
 30
11.000000000
 11
295.460488313
 21
235.247422612
 31
11.000000000
  0
LINE
  5
BAC
330
A02
100
AcDbEntity
  8
Part__Feature
100
AcDbLine
 10
354.317603571
 20
269.228593949
 30
11.000000000
 11
354.317603571
 21
269.228593949
 31
19.000000000
  0
LINE
  5
BAD
330
A02
100
AcDbEntity
  8
Part__Feature
100
AcDbLine
 10
351.460488313
 20
138.252577388
 30
19.000000000
 11
410.317603571
 21
172.233748726
 31
19.000000000
  0
LINE
  5
BAE
330
A02
100
AcDbEntity
  8
Part__Feature
100
AcDbLine
 10
410.317603571
 20
172.233748726
 30
11.000000000
 11
410.317603571
 21
172.233748726
 31
19.000000000
  0
LINE
  5
BAF
330
A02
100
AcDbEntity
  8
Part__Feature
100
AcDbLine
 10
351.460488313
 20
138.252577388
 30
11.000000000
 11
410.317603571
 21
172.233748726
 31
11.000000000
  0
LINE
  5
BB0
330
A02
100
AcDbEntity
  8
Part__Feature
100
AcDbLine
 10
351.460488313
 20
138.252577388
 30
11.000000000
 11
351.460488313
 21
138.252577388
 31
19.000000000
  0
ARC
  5
BB1
330
A02
100
AcDbEntity
  8
Part__Feature
100
AcDbCircle
 10
323.460488313
 20
186.750000000
 30
11.000000000
 40
56.000000000
100
AcDbArc
 50
120.000000000
 51
-60.000000000
  0
LINE
  5
BB2
330
A02
100
AcDbEntity
  8
Part__Feature
100
AcDbLine
 10
351.460488313
 20
138.252577388
 30
11.000000000
 11
410.317603571
 21
172.233748726
 31
11.000000000
  0
ARC
  5
BB3
330
A02
100
AcDbEntity
  8
Part__Feature
100
AcDbCircle
 10
0.000000000
 20
0.000000000
 30
11.000000000
 40
445.000000000
100
AcDbArc
 50
22.770576959
 51
37.229423041
  0
LINE
  5
BB4
330
A02
100
AcDbEntity
  8
Part__Feature
100
AcDbLine
 10
354.317603571
 20
269.228593949
 30
11.000000000
 11
295.460488313
 21
235.247422612
 31
11.000000000
  0
LINE
  5
BB5
330
A02
100
AcDbEntity
  8
Part__Feature
100
AcDbLine
 10
351.460488313
 20
-138.252577388
 30
11.000000000
 11
351.460488313
 21
-138.252577388
 31
19.000000000
  0
ARC
  5
BB6
330
A02
100
AcDbEntity
  8
Part__Feature
100
AcDbCircle
 10
323.460488313
 20
-186.750000000
 30
11.000000000
 40
56.000000000
100
AcDbArc
 50
60.000000000
 51
-120.000000000
  0
LINE
  5
BB7
330
A02
100
AcDbEntity
  8
Part__Feature
100
AcDbLine
 10
295.460488313
 20
-235.247422612
 30
11.000000000
 11
295.460488313
 21
-235.247422612
 31
19.000000000
  0
ARC
  5
BB8
330
A02
100
AcDbEntity
  8
Part__Feature
100
AcDbCircle
 10
323.460488313
 20
-186.750000000
 30
19.000000000
 40
56.000000000
100
AcDbArc
 50
60.000000000
 51
-120.000000000
  0
LINE
  5
BB9
330
A02
100
AcDbEntity
  8
Part__Feature
100
AcDbLine
 10
410.317603571
 20
-172.233748726
 30
19.000000000
 11
351.460488313
 21
-138.252577388
 31
19.000000000
  0
LINE
  5
BBA
330
A02
100
AcDbEntity
  8
Part__Feature
100
AcDbLine
 10
351.460488313
 20
-138.252577388
 30
11.000000000
 11
351.460488313
 21
-138.252577388
 31
19.000000000
  0
LINE
  5
BBB
330
A02
100
AcDbEntity
  8
Part__Feature
100
AcDbLine
 10
410.317603571
 20
-172.233748726
 30
11.000000000
 11
351.460488313
 21
-138.252577388
 31
11.000000000
  0
LINE
  5
BBC
330
A02
100
AcDbEntity
  8
Part__Feature
100
AcDbLine
 10
410.317603571
 20
-172.233748726
 30
11.000000000
 11
410.317603571
 21
-172.233748726
 31
19.000000000
  0
LINE
  5
BBD
330
A02
100
AcDbEntity
  8
Part__Feature
100
AcDbLine
 10
295.460488313
 20
-235.247422612
 30
19.000000000
 11
354.317603571
 21
-269.228593949
 31
19.000000000
  0
LINE
  5
BBE
330
A02
100
AcDbEntity
  8
Part__Feature
100
AcDbLine
 10
354.317603571
 20
-269.228593949
 30
11.000000000
 11
354.317603571
 21
-269.228593949
 31
19.000000000
  0
LINE
  5
BBF
330
A02
100
AcDbEntity
  8
Part__Feature
100
AcDbLine
 10
295.460488313
 20
-235.247422612
 30
11.000000000
 11
354.317603571
 21
-269.228593949
 31
11.000000000
  0
LINE
  5
BC0
330
A02
100
AcDbEntity
  8
Part__Feature
100
AcDbLine
 10
295.460488313
 20
-235.247422612
 30
11.000000000
 11
295.460488313
 21
-235.247422612
 31
19.000000000
  0
ARC
  5
BC1
330
A02
100
AcDbEntity
  8
Part__Feature
100
AcDbCircle
 10
323.460488313
 20
-186.750000000
 30
11.000000000
 40
56.000000000
100
AcDbArc
 50
60.000000000
 51
-120.000000000
  0
LINE
  5
BC2
330
A02
100
AcDbEntity
  8
Part__Feature
100
AcDbLine
 10
295.460488313
 20
-235.247422612
 30
11.000000000
 11
354.317603571
 21
-269.228593949
 31
11.000000000
  0
ARC
  5
BC3
330
A02
100
AcDbEntity
  8
Part__Feature
100
AcDbCircle
 10
0.000000000
 20
0.000000000
 30
11.000000000
 40
445.000000000
100
AcDbArc
 50
-37.229423041
 51
-22.770576959
  0
LINE
  5
BC4
330
A02
100
AcDbEntity
  8
Part__Feature
100
AcDbLine
 10
410.317603571
 20
-172.233748726
 30
11.000000000
 11
351.460488313
 21
-138.252577388
 31
11.000000000
  0
LINE
  5
BC5
330
A02
100
AcDbEntity
  8
Part__Feature
100
AcDbLine
 10
56.000000000
 20
-373.500000000
 30
11.000000000
 11
56.000000000
 21
-373.500000000
 31
19.000000000
  0
ARC
  5
BC6
330
A02
100
AcDbEntity
  8
Part__Feature
100
AcDbCircle
 10
-0.000000000
 20
-373.500000000
 30
11.000000000
 40
56.000000000
100
AcDbArc
 50
0.000000000
 51
180.000000000
  0
LINE
  5
BC7
330
A02
100
AcDbEntity
  8
Part__Feature
100
AcDbLine
 10
-56.000000000
 20
-373.500000000
 30
11.000000000
 11
-56.000000000
 21
-373.500000000
 31
19.000000000
  0
ARC
  5
BC8
330
A02
100
AcDbEntity
  8
Part__Feature
100
AcDbCircle
 10
-0.000000000
 20
-373.500000000
 30
19.000000000
 40
56.000000000
100
AcDbArc
 50
0.000000000
 51
180.000000000
  0
LINE
  5
BC9
330
A02
100
AcDbEntity
  8
Part__Feature
100
AcDbLine
 10
56.000000000
 20
-441.462342675
 30
19.000000000
 11
56.000000000
 21
-373.500000000
 31
19.000000000
  0
LINE
  5
BCA
330
A02
100
AcDbEntity
  8
Part__Feature
100
AcDbLine
 10
56.000000000
 20
-373.500000000
 30
11.000000000
 11
56.000000000
 21
-373.500000000
 31
19.000000000
  0
LINE
  5
BCB
330
A02
100
AcDbEntity
  8
Part__Feature
100
AcDbLine
 10
56.000000000
 20
-441.462342675
 30
11.000000000
 11
56.000000000
 21
-373.500000000
 31
11.000000000
  0
LINE
  5
BCC
330
A02
100
AcDbEntity
  8
Part__Feature
100
AcDbLine
 10
56.000000000
 20
-441.462342675
 30
11.000000000
 11
56.000000000
 21
-441.462342675
 31
19.000000000
  0
LINE
  5
BCD
330
A02
100
AcDbEntity
  8
Part__Feature
100
AcDbLine
 10
-56.000000000
 20
-373.500000000
 30
19.000000000
 11
-56.000000000
 21
-441.462342675
 31
19.000000000
  0
LINE
  5
BCE
330
A02
100
AcDbEntity
  8
Part__Feature
100
AcDbLine
 10
-56.000000000
 20
-441.462342675
 30
11.000000000
 11
-56.000000000
 21
-441.462342675
 31
19.000000000
  0
LINE
  5
BCF
330
A02
100
AcDbEntity
  8
Part__Feature
100
AcDbLine
 10
-56.000000000
 20
-373.500000000
 30
11.000000000
 11
-56.000000000
 21
-441.462342675
 31
11.000000000
  0
LINE
  5
BD0
330
A02
100
AcDbEntity
  8
Part__Feature
100
AcDbLine
 10
-56.000000000
 20
-373.500000000
 30
11.000000000
 11
-56.000000000
 21
-373.500000000
 31
19.000000000
  0
ARC
  5
BD1
330
A02
100
AcDbEntity
  8
Part__Feature
100
AcDbCircle
 10
-0.000000000
 20
-373.500000000
 30
11.000000000
 40
56.000000000
100
AcDbArc
 50
0.000000000
 51
180.000000000
  0
LINE
  5
BD2
330
A02
100
AcDbEntity
  8
Part__Feature
100
AcDbLine
 10
-56.000000000
 20
-373.500000000
 30
11.000000000
 11
-56.000000000
 21
-441.462342675
 31
11.000000000
  0
ARC
  5
BD3
330
A02
100
AcDbEntity
  8
Part__Feature
100
AcDbCircle
 10
0.000000000
 20
0.000000000
 30
11.000000000
 40
445.000000000
100
AcDbArc
 50
-97.229423041
 51
-82.770576959
  0
LINE
  5
BD4
330
A02
100
AcDbEntity
  8
Part__Feature
100
AcDbLine
 10
56.000000000
 20
-441.462342675
 30
11.000000000
 11
56.000000000
 21
-373.500000000
 31
11.000000000
  0
ARC
  5
BD5
330
A02
100
AcDbEntity
  8
Part__Feature
100
AcDbCircle
 10
-323.460488313
 20
-186.750000000
 30
19.000000000
 40
56.000000000
100
AcDbArc
 50
-60.000000000
 51
0.000000000
  0
LINE
  5
BD6
330
A02
100
AcDbEntity
  8
Part__Feature
100
AcDbLine
 10
-295.460488313
 20
-235.247422612
 30
11.000000000
 11
-295.460488313
 21
-235.247422612
 31
19.000000000
  0
ARC
  5
BD7
330
A02
100
AcDbEntity
  8
Part__Feature
100
AcDbCircle
 10
-323.460488313
 20
-186.750000000
 30
11.000000000
 40
56.000000000
100
AcDbArc
 50
-60.000000000
 51
0.000000000
  0
LINE
  5
BD8
330
A02
100
AcDbEntity
  8
Part__Feature
100
AcDbLine
 10
-267.460488313
 20
-186.750000000
 30
11.000000000
 11
-267.460488313
 21
-186.750000000
 31
19.000000000
  0
LINE
  5
BD9
330
A02
100
AcDbEntity
  8
Part__Feature
100
AcDbLine
 10
-354.317603571
 20
-269.228593949
 30
19.000000000
 11
-295.460488313
 21
-235.247422612
 31
19.000000000
  0
LINE
  5
BDA
330
A02
100
AcDbEntity
  8
Part__Feature
100
AcDbLine
 10
-295.460488313
 20
-235.247422612
 30
11.000000000
 11
-295.460488313
 21
-235.247422612
 31
19.000000000
  0
LINE
  5
BDB
330
A02
100
AcDbEntity
  8
Part__Feature
100
AcDbLine
 10
-354.317603571
 20
-269.228593949
 30
11.000000000
 11
-295.460488313
 21
-235.247422612
 31
11.000000000
  0
LINE
  5
BDC
330
A02
100
AcDbEntity
  8
Part__Feature
100
AcDbLine
 10
-354.317603571
 20
-269.228593949
 30
11.000000000
 11
-354.317603571
 21
-269.228593949
 31
19.000000000
  0
LINE
  5
BDD
330
A02
100
AcDbEntity
  8
Part__Feature
100
AcDbLine
 10
-351.460488313
 20
-138.252577388
 30
19.000000000
 11
-410.317603571
 21
-172.233748726
 31
19.000000000
  0
LINE
  5
BDE
330
A02
100
AcDbEntity
  8
Part__Feature
100
AcDbLine
 10
-410.317603571
 20
-172.233748726
 30
11.000000000
 11
-410.317603571
 21
-172.233748726
 31
19.000000000
  0
LINE
  5
BDF
330
A02
100
AcDbEntity
  8
Part__Feature
100
AcDbLine
 10
-351.460488313
 20
-138.252577388
 30
11.000000000
 11
-410.317603571
 21
-172.233748726
 31
11.000000000
  0
LINE
  5
BE0
330
A02
100
AcDbEntity
  8
Part__Feature
100
AcDbLine
 10
-351.460488313
 20
-138.252577388
 30
11.000000000
 11
-351.460488313
 21
-138.252577388
 31
19.000000000
  0
ARC
  5
BE1
330
A02
100
AcDbEntity
  8
Part__Feature
100
AcDbCircle
 10
-323.460488313
 20
-186.750000000
 30
11.000000000
 40
56.000000000
100
AcDbArc
 50
-60.000000000
 51
0.000000000
  0
ARC
  5
BE2
330
A02
100
AcDbEntity
  8
Part__Feature
100
AcDbCircle
 10
-323.460488313
 20
-186.750000000
 30
11.000000000
 40
56.000000000
100
AcDbArc
 50
0.000000000
 51
120.000000000
  0
LINE
  5
BE3
330
A02
100
AcDbEntity
  8
Part__Feature
100
AcDbLine
 10
-351.460488313
 20
-138.252577388
 30
11.000000000
 11
-410.317603571
 21
-172.233748726
 31
11.000000000
  0
ARC
  5
BE4
330
A02
100
AcDbEntity
  8
Part__Feature
100
AcDbCircle
 10
0.000000000
 20
0.000000000
 30
11.000000000
 40
445.000000000
100
AcDbArc
 50
-157.229423041
 51
-142.770576959
  0
LINE
  5
BE5
330
A02
100
AcDbEntity
  8
Part__Feature
100
AcDbLine
 10
-354.317603571
 20
-269.228593949
 30
11.000000000
 11
-295.460488313
 21
-235.247422612
 31
11.000000000
  0
ARC
  5
BE6
330
A02
100
AcDbEntity
  8
Part__Feature
100
AcDbCircle
 10
-323.460488313
 20
186.750000000
 30
19.000000000
 40
56.000000000
100
AcDbArc
 50
-120.000000000
 51
0.000000000
  0
LINE
  5
BE7
330
A02
100
AcDbEntity
  8
Part__Feature
100
AcDbLine
 10
-351.460488313
 20
138.252577388
 30
11.000000000
 11
-351.460488313
 21
138.252577388
 31
19.000000000
  0
ARC
  5
BE8
330
A02
100
AcDbEntity
  8
Part__Feature
100
AcDbCircle
 10
-323.460488313
 20
186.750000000
 30
11.000000000
 40
56.000000000
100
AcDbArc
 50
-120.000000000
 51
0.000000000
  0
LINE
  5
BE9
330
A02
100
AcDbEntity
  8
Part__Feature
100
AcDbLine
 10
-267.460488313
 20
186.750000000
 30
11.000000000
 11
-267.460488313
 21
186.750000000
 31
19.000000000
  0
LINE
  5
BEA
330
A02
100
AcDbEntity
  8
Part__Feature
100
AcDbLine
 10
-410.317603571
 20
172.233748726
 30
19.000000000
 11
-351.460488313
 21
138.252577388
 31
19.000000000
  0
LINE
  5
BEB
330
A02
100
AcDbEntity
  8
Part__Feature
100
AcDbLine
 10
-351.460488313
 20
138.252577388
 30
11.000000000
 11
-351.460488313
 21
138.252577388
 31
19.000000000
  0
LINE
  5
BEC
330
A02
100
AcDbEntity
  8
Part__Feature
100
AcDbLine
 10
-410.317603571
 20
172.233748726
 30
11.000000000
 11
-351.460488313
 21
138.252577388
 31
11.000000000
  0
LINE
  5
BED
330
A02
100
AcDbEntity
  8
Part__Feature
100
AcDbLine
 10
-410.317603571
 20
172.233748726
 30
11.000000000
 11
-410.317603571
 21
172.233748726
 31
19.000000000
  0
LINE
  5
BEE
330
A02
100
AcDbEntity
  8
Part__Feature
100
AcDbLine
 10
-295.460488313
 20
235.247422612
 30
19.000000000
 11
-354.317603571
 21
269.228593949
 31
19.000000000
  0
LINE
  5
BEF
330
A02
100
AcDbEntity
  8
Part__Feature
100
AcDbLine
 10
-354.317603571
 20
269.228593949
 30
11.000000000
 11
-354.317603571
 21
269.228593949
 31
19.000000000
  0
LINE
  5
BF0
330
A02
100
AcDbEntity
  8
Part__Feature
100
AcDbLine
 10
-295.460488313
 20
235.247422612
 30
11.000000000
 11
-354.317603571
 21
269.228593949
 31
11.000000000
  0
LINE
  5
BF1
330
A02
100
AcDbEntity
  8
Part__Feature
100
AcDbLine
 10
-295.460488313
 20
235.247422612
 30
11.000000000
 11
-295.460488313
 21
235.247422612
 31
19.000000000
  0
ARC
  5
BF2
330
A02
100
AcDbEntity
  8
Part__Feature
100
AcDbCircle
 10
-323.460488313
 20
186.750000000
 30
11.000000000
 40
56.000000000
100
AcDbArc
 50
-120.000000000
 51
0.000000000
  0
ARC
  5
BF3
330
A02
100
AcDbEntity
  8
Part__Feature
100
AcDbCircle
 10
-323.460488313
 20
186.750000000
 30
11.000000000
 40
56.000000000
100
AcDbArc
 50
0.000000000
 51
60.000000000
  0
LINE
  5
BF4
330
A02
100
AcDbEntity
  8
Part__Feature
100
AcDbLine
 10
-295.460488313
 20
235.247422612
 30
11.000000000
 11
-354.317603571
 21
269.228593949
 31
11.000000000
  0
ARC
  5
BF5
330
A02
100
AcDbEntity
  8
Part__Feature
100
AcDbCircle
 10
0.000000000
 20
0.000000000
 30
11.000000000
 40
445.000000000
100
AcDbArc
 50
142.770576959
 51
157.229423041
  0
LINE
  5
BF6
330
A02
100
AcDbEntity
  8
Part__Feature
100
AcDbLine
 10
-410.317603571
 20
172.233748726
 30
11.000000000
 11
-351.460488313
 21
138.252577388
 31
11.000000000
  0
ARC
  5
BF7
330
A02
100
AcDbEntity
  8
Part__Feature
100
AcDbCircle
 10
-335.611735754
 20
268.821060976
 30
19.000000000
 40
5.100000000
100
AcDbArc
 50
0.000000000
 51
180.000000000
  0
LINE
  5
BF8
330
A02
100
AcDbEntity
  8
Part__Feature
100
AcDbLine
 10
-330.511735754
 20
268.821060976
 30
0.000000000
 11
-330.511735754
 21
268.821060976
 31
19.000000000
  0
ARC
  5
BF9
330
A02
100
AcDbEntity
  8
Part__Feature
100
AcDbCircle
 10
-335.611735754
 20
268.821060976
 30
0.000000000
 40
5.100000000
100
AcDbArc
 50
0.000000000
 51
180.000000000
  0
LINE
  5
BFA
330
A02
100
AcDbEntity
  8
Part__Feature
100
AcDbLine
 10
-340.711735754
 20
268.821060976
 30
0.000000000
 11
-340.711735754
 21
268.821060976
 31
19.000000000
  0
ARC
  5
BFB
330
A02
100
AcDbEntity
  8
Part__Feature
100
AcDbCircle
 10
-400.611735754
 20
156.237758484
 30
19.000000000
 40
5.100000000
100
AcDbArc
 50
0.000000000
 51
180.000000000
  0
LINE
  5
BFC
330
A02
100
AcDbEntity
  8
Part__Feature
100
AcDbLine
 10
-395.511735754
 20
156.237758484
 30
0.000000000
 11
-395.511735754
 21
156.237758484
 31
19.000000000
  0
ARC
  5
BFD
330
A02
100
AcDbEntity
  8
Part__Feature
100
AcDbCircle
 10
-400.611735754
 20
156.237758484
 30
0.000000000
 40
5.100000000
100
AcDbArc
 50
0.000000000
 51
180.000000000
  0
LINE
  5
BFE
330
A02
100
AcDbEntity
  8
Part__Feature
100
AcDbLine
 10
-405.711735754
 20
156.237758484
 30
0.000000000
 11
-405.711735754
 21
156.237758484
 31
19.000000000
  0
ARC
  5
BFF
330
A02
100
AcDbEntity
  8
Part__Feature
100
AcDbCircle
 10
-400.611735754
 20
-156.237758484
 30
19.000000000
 40
5.100000000
100
AcDbArc
 50
0.000000000
 51
180.000000000
  0
LINE
  5
C00
330
A02
100
AcDbEntity
  8
Part__Feature
100
AcDbLine
 10
-395.511735754
 20
-156.237758484
 30
0.000000000
 11
-395.511735754
 21
-156.237758484
 31
19.000000000
  0
ARC
  5
C01
330
A02
100
AcDbEntity
  8
Part__Feature
100
AcDbCircle
 10
-400.611735754
 20
-156.237758484
 30
0.000000000
 40
5.100000000
100
AcDbArc
 50
0.000000000
 51
180.000000000
  0
LINE
  5
C02
330
A02
100
AcDbEntity
  8
Part__Feature
100
AcDbLine
 10
-405.711735754
 20
-156.237758484
 30
0.000000000
 11
-405.711735754
 21
-156.237758484
 31
19.000000000
  0
ARC
  5
C03
330
A02
100
AcDbEntity
  8
Part__Feature
100
AcDbCircle
 10
-335.611735754
 20
-268.821060976
 30
19.000000000
 40
5.100000000
100
AcDbArc
 50
0.000000000
 51
180.000000000
  0
LINE
  5
C04
330
A02
100
AcDbEntity
  8
Part__Feature
100
AcDbLine
 10
-330.511735754
 20
-268.821060976
 30
0.000000000
 11
-330.511735754
 21
-268.821060976
 31
19.000000000
  0
ARC
  5
C05
330
A02
100
AcDbEntity
  8
Part__Feature
100
AcDbCircle
 10
-335.611735754
 20
-268.821060976
 30
0.000000000
 40
5.100000000
100
AcDbArc
 50
0.000000000
 51
180.000000000
  0
LINE
  5
C06
330
A02
100
AcDbEntity
  8
Part__Feature
100
AcDbLine
 10
-340.711735754
 20
-268.821060976
 30
0.000000000
 11
-340.711735754
 21
-268.821060976
 31
19.000000000
  0
ARC
  5
C07
330
A02
100
AcDbEntity
  8
Part__Feature
100
AcDbCircle
 10
-65.000000000
 20
-425.058819459
 30
19.000000000
 40
5.100000000
100
AcDbArc
 50
0.000000000
 51
180.000000000
  0
LINE
  5
C08
330
A02
100
AcDbEntity
  8
Part__Feature
100
AcDbLine
 10
-59.900000000
 20
-425.058819459
 30
0.000000000
 11
-59.900000000
 21
-425.058819459
 31
19.000000000
  0
ARC
  5
C09
330
A02
100
AcDbEntity
  8
Part__Feature
100
AcDbCircle
 10
-65.000000000
 20
-425.058819459
 30
0.000000000
 40
5.100000000
100
AcDbArc
 50
0.000000000
 51
180.000000000
  0
LINE
  5
C0A
330
A02
100
AcDbEntity
  8
Part__Feature
100
AcDbLine
 10
-70.100000000
 20
-425.058819459
 30
0.000000000
 11
-70.100000000
 21
-425.058819459
 31
19.000000000
  0
ARC
  5
C0B
330
A02
100
AcDbEntity
  8
Part__Feature
100
AcDbCircle
 10
65.000000000
 20
-425.058819459
 30
19.000000000
 40
5.100000000
100
AcDbArc
 50
0.000000000
 51
180.000000000
  0
LINE
  5
C0C
330
A02
100
AcDbEntity
  8
Part__Feature
100
AcDbLine
 10
70.100000000
 20
-425.058819459
 30
0.000000000
 11
70.100000000
 21
-425.058819459
 31
19.000000000
  0
ARC
  5
C0D
330
A02
100
AcDbEntity
  8
Part__Feature
100
AcDbCircle
 10
65.000000000
 20
-425.058819459
 30
0.000000000
 40
5.100000000
100
AcDbArc
 50
0.000000000
 51
180.000000000
  0
LINE
  5
C0E
330
A02
100
AcDbEntity
  8
Part__Feature
100
AcDbLine
 10
59.900000000
 20
-425.058819459
 30
0.000000000
 11
59.900000000
 21
-425.058819459
 31
19.000000000
  0
ARC
  5
C0F
330
A02
100
AcDbEntity
  8
Part__Feature
100
AcDbCircle
 10
335.611735754
 20
-268.821060976
 30
19.000000000
 40
5.100000000
100
AcDbArc
 50
0.000000000
 51
180.000000000
  0
LINE
  5
C10
330
A02
100
AcDbEntity
  8
Part__Feature
100
AcDbLine
 10
340.711735754
 20
-268.821060976
 30
0.000000000
 11
340.711735754
 21
-268.821060976
 31
19.000000000
  0
ARC
  5
C11
330
A02
100
AcDbEntity
  8
Part__Feature
100
AcDbCircle
 10
335.611735754
 20
-268.821060976
 30
0.000000000
 40
5.100000000
100
AcDbArc
 50
0.000000000
 51
180.000000000
  0
LINE
  5
C12
330
A02
100
AcDbEntity
  8
Part__Feature
100
AcDbLine
 10
330.511735754
 20
-268.821060976
 30
0.000000000
 11
330.511735754
 21
-268.821060976
 31
19.000000000
  0
ARC
  5
C13
330
A02
100
AcDbEntity
  8
Part__Feature
100
AcDbCircle
 10
400.611735754
 20
-156.237758484
 30
19.000000000
 40
5.100000000
100
AcDbArc
 50
0.000000000
 51
180.000000000
  0
LINE
  5
C14
330
A02
100
AcDbEntity
  8
Part__Feature
100
AcDbLine
 10
405.711735754
 20
-156.237758484
 30
0.000000000
 11
405.711735754
 21
-156.237758484
 31
19.000000000
  0
ARC
  5
C15
330
A02
100
AcDbEntity
  8
Part__Feature
100
AcDbCircle
 10
400.611735754
 20
-156.237758484
 30
0.000000000
 40
5.100000000
100
AcDbArc
 50
0.000000000
 51
180.000000000
  0
LINE
  5
C16
330
A02
100
AcDbEntity
  8
Part__Feature
100
AcDbLine
 10
395.511735754
 20
-156.237758484
 30
0.000000000
 11
395.511735754
 21
-156.237758484
 31
19.000000000
  0
ARC
  5
C17
330
A02
100
AcDbEntity
  8
Part__Feature
100
AcDbCircle
 10
400.611735754
 20
156.237758484
 30
19.000000000
 40
5.100000000
100
AcDbArc
 50
0.000000000
 51
180.000000000
  0
LINE
  5
C18
330
A02
100
AcDbEntity
  8
Part__Feature
100
AcDbLine
 10
405.711735754
 20
156.237758484
 30
0.000000000
 11
405.711735754
 21
156.237758484
 31
19.000000000
  0
ARC
  5
C19
330
A02
100
AcDbEntity
  8
Part__Feature
100
AcDbCircle
 10
400.611735754
 20
156.237758484
 30
0.000000000
 40
5.100000000
100
AcDbArc
 50
0.000000000
 51
180.000000000
  0
LINE
  5
C1A
330
A02
100
AcDbEntity
  8
Part__Feature
100
AcDbLine
 10
395.511735754
 20
156.237758484
 30
0.000000000
 11
395.511735754
 21
156.237758484
 31
19.000000000
  0
ARC
  5
C1B
330
A02
100
AcDbEntity
  8
Part__Feature
100
AcDbCircle
 10
335.611735754
 20
268.821060976
 30
19.000000000
 40
5.100000000
100
AcDbArc
 50
0.000000000
 51
180.000000000
  0
LINE
  5
C1C
330
A02
100
AcDbEntity
  8
Part__Feature
100
AcDbLine
 10
340.711735754
 20
268.821060976
 30
0.000000000
 11
340.711735754
 21
268.821060976
 31
19.000000000
  0
ARC
  5
C1D
330
A02
100
AcDbEntity
  8
Part__Feature
100
AcDbCircle
 10
335.611735754
 20
268.821060976
 30
0.000000000
 40
5.100000000
100
AcDbArc
 50
0.000000000
 51
180.000000000
  0
LINE
  5
C1E
330
A02
100
AcDbEntity
  8
Part__Feature
100
AcDbLine
 10
330.511735754
 20
268.821060976
 30
0.000000000
 11
330.511735754
 21
268.821060976
 31
19.000000000
  0
ARC
  5
C1F
330
A02
100
AcDbEntity
  8
Part__Feature
100
AcDbCircle
 10
65.000000000
 20
425.058819459
 30
19.000000000
 40
5.100000000
100
AcDbArc
 50
0.000000000
 51
180.000000000
  0
LINE
  5
C20
330
A02
100
AcDbEntity
  8
Part__Feature
100
AcDbLine
 10
70.100000000
 20
425.058819459
 30
0.000000000
 11
70.100000000
 21
425.058819459
 31
19.000000000
  0
ARC
  5
C21
330
A02
100
AcDbEntity
  8
Part__Feature
100
AcDbCircle
 10
65.000000000
 20
425.058819459
 30
0.000000000
 40
5.100000000
100
AcDbArc
 50
0.000000000
 51
180.000000000
  0
LINE
  5
C22
330
A02
100
AcDbEntity
  8
Part__Feature
100
AcDbLine
 10
59.900000000
 20
425.058819459
 30
0.000000000
 11
59.900000000
 21
425.058819459
 31
19.000000000
  0
ARC
  5
C23
330
A02
100
AcDbEntity
  8
Part__Feature
100
AcDbCircle
 10
-65.000000000
 20
425.058819459
 30
19.000000000
 40
5.100000000
100
AcDbArc
 50
0.000000000
 51
180.000000000
  0
LINE
  5
C24
330
A02
100
AcDbEntity
  8
Part__Feature
100
AcDbLine
 10
-59.900000000
 20
425.058819459
 30
0.000000000
 11
-59.900000000
 21
425.058819459
 31
19.000000000
  0
ARC
  5
C25
330
A02
100
AcDbEntity
  8
Part__Feature
100
AcDbCircle
 10
-65.000000000
 20
425.058819459
 30
0.000000000
 40
5.100000000
100
AcDbArc
 50
0.000000000
 51
180.000000000
  0
LINE
  5
C26
330
A02
100
AcDbEntity
  8
Part__Feature
100
AcDbLine
 10
-70.100000000
 20
425.058819459
 30
0.000000000
 11
-70.100000000
 21
425.058819459
 31
19.000000000
  0
ARC
  5
C27
330
A02
100
AcDbEntity
  8
Part__Feature
100
AcDbCircle
 10
-268.700576851
 20
268.700576851
 30
19.000000000
 40
4.250000000
100
AcDbArc
 50
0.000000000
 51
180.000000000
  0
LINE
  5
C28
330
A02
100
AcDbEntity
  8
Part__Feature
100
AcDbLine
 10
-264.450576851
 20
268.700576851
 30
0.000000000
 11
-264.450576851
 21
268.700576851
 31
19.000000000
  0
ARC
  5
C29
330
A02
100
AcDbEntity
  8
Part__Feature
100
AcDbCircle
 10
-268.700576851
 20
268.700576851
 30
0.000000000
 40
4.250000000
100
AcDbArc
 50
0.000000000
 51
180.000000000
  0
LINE
  5
C2A
330
A02
100
AcDbEntity
  8
Part__Feature
100
AcDbLine
 10
-272.950576851
 20
268.700576851
 30
0.000000000
 11
-272.950576851
 21
268.700576851
 31
19.000000000
  0
ARC
  5
C2B
330
A02
100
AcDbEntity
  8
Part__Feature
100
AcDbCircle
 10
-367.051813990
 20
98.351237139
 30
19.000000000
 40
4.250000000
100
AcDbArc
 50
0.000000000
 51
180.000000000
  0
LINE
  5
C2C
330
A02
100
AcDbEntity
  8
Part__Feature
100
AcDbLine
 10
-362.801813990
 20
98.351237139
 30
0.000000000
 11
-362.801813990
 21
98.351237139
 31
19.000000000
  0
ARC
  5
C2D
330
A02
100
AcDbEntity
  8
Part__Feature
100
AcDbCircle
 10
-367.051813990
 20
98.351237139
 30
0.000000000
 40
4.250000000
100
AcDbArc
 50
0.000000000
 51
180.000000000
  0
LINE
  5
C2E
330
A02
100
AcDbEntity
  8
Part__Feature
100
AcDbLine
 10
-371.301813990
 20
98.351237139
 30
0.000000000
 11
-371.301813990
 21
98.351237139
 31
19.000000000
  0
ARC
  5
C2F
330
A02
100
AcDbEntity
  8
Part__Feature
100
AcDbCircle
 10
-367.051813990
 20
-98.351237139
 30
19.000000000
 40
4.250000000
100
AcDbArc
 50
0.000000000
 51
180.000000000
  0
LINE
  5
C30
330
A02
100
AcDbEntity
  8
Part__Feature
100
AcDbLine
 10
-362.801813990
 20
-98.351237139
 30
0.000000000
 11
-362.801813990
 21
-98.351237139
 31
19.000000000
  0
ARC
  5
C31
330
A02
100
AcDbEntity
  8
Part__Feature
100
AcDbCircle
 10
-367.051813990
 20
-98.351237139
 30
0.000000000
 40
4.250000000
100
AcDbArc
 50
0.000000000
 51
180.000000000
  0
LINE
  5
C32
330
A02
100
AcDbEntity
  8
Part__Feature
100
AcDbLine
 10
-371.301813990
 20
-98.351237139
 30
0.000000000
 11
-371.301813990
 21
-98.351237139
 31
19.000000000
  0
ARC
  5
C33
330
A02
100
AcDbEntity
  8
Part__Feature
100
AcDbCircle
 10
-268.700576851
 20
-268.700576851
 30
19.000000000
 40
4.250000000
100
AcDbArc
 50
0.000000000
 51
180.000000000
  0
LINE
  5
C34
330
A02
100
AcDbEntity
  8
Part__Feature
100
AcDbLine
 10
-264.450576851
 20
-268.700576851
 30
0.000000000
 11
-264.450576851
 21
-268.700576851
 31
19.000000000
  0
ARC
  5
C35
330
A02
100
AcDbEntity
  8
Part__Feature
100
AcDbCircle
 10
-268.700576851
 20
-268.700576851
 30
0.000000000
 40
4.250000000
100
AcDbArc
 50
0.000000000
 51
180.000000000
  0
LINE
  5
C36
330
A02
100
AcDbEntity
  8
Part__Feature
100
AcDbLine
 10
-272.950576851
 20
-268.700576851
 30
0.000000000
 11
-272.950576851
 21
-268.700576851
 31
19.000000000
  0
ARC
  5
C37
330
A02
100
AcDbEntity
  8
Part__Feature
100
AcDbCircle
 10
-98.351237139
 20
-367.051813990
 30
19.000000000
 40
4.250000000
100
AcDbArc
 50
0.000000000
 51
180.000000000
  0
LINE
  5
C38
330
A02
100
AcDbEntity
  8
Part__Feature
100
AcDbLine
 10
-94.101237139
 20
-367.051813990
 30
0.000000000
 11
-94.101237139
 21
-367.051813990
 31
19.000000000
  0
ARC
  5
C39
330
A02
100
AcDbEntity
  8
Part__Feature
100
AcDbCircle
 10
-98.351237139
 20
-367.051813990
 30
0.000000000
 40
4.250000000
100
AcDbArc
 50
0.000000000
 51
180.000000000
  0
LINE
  5
C3A
330
A02
100
AcDbEntity
  8
Part__Feature
100
AcDbLine
 10
-102.601237139
 20
-367.051813990
 30
0.000000000
 11
-102.601237139
 21
-367.051813990
 31
19.000000000
  0
ARC
  5
C3B
330
A02
100
AcDbEntity
  8
Part__Feature
100
AcDbCircle
 10
98.351237139
 20
-367.051813990
 30
19.000000000
 40
4.250000000
100
AcDbArc
 50
0.000000000
 51
180.000000000
  0
LINE
  5
C3C
330
A02
100
AcDbEntity
  8
Part__Feature
100
AcDbLine
 10
102.601237139
 20
-367.051813990
 30
0.000000000
 11
102.601237139
 21
-367.051813990
 31
19.000000000
  0
ARC
  5
C3D
330
A02
100
AcDbEntity
  8
Part__Feature
100
AcDbCircle
 10
98.351237139
 20
-367.051813990
 30
0.000000000
 40
4.250000000
100
AcDbArc
 50
0.000000000
 51
180.000000000
  0
LINE
  5
C3E
330
A02
100
AcDbEntity
  8
Part__Feature
100
AcDbLine
 10
94.101237139
 20
-367.051813990
 30
0.000000000
 11
94.101237139
 21
-367.051813990
 31
19.000000000
  0
ARC
  5
C3F
330
A02
100
AcDbEntity
  8
Part__Feature
100
AcDbCircle
 10
268.700576851
 20
-268.700576851
 30
19.000000000
 40
4.250000000
100
AcDbArc
 50
0.000000000
 51
180.000000000
  0
LINE
  5
C40
330
A02
100
AcDbEntity
  8
Part__Feature
100
AcDbLine
 10
272.950576851
 20
-268.700576851
 30
0.000000000
 11
272.950576851
 21
-268.700576851
 31
19.000000000
  0
ARC
  5
C41
330
A02
100
AcDbEntity
  8
Part__Feature
100
AcDbCircle
 10
268.700576851
 20
-268.700576851
 30
0.000000000
 40
4.250000000
100
AcDbArc
 50
0.000000000
 51
180.000000000
  0
LINE
  5
C42
330
A02
100
AcDbEntity
  8
Part__Feature
100
AcDbLine
 10
264.450576851
 20
-268.700576851
 30
0.000000000
 11
264.450576851
 21
-268.700576851
 31
19.000000000
  0
ARC
  5
C43
330
A02
100
AcDbEntity
  8
Part__Feature
100
AcDbCircle
 10
367.051813990
 20
98.351237139
 30
19.000000000
 40
4.250000000
100
AcDbArc
 50
0.000000000
 51
180.000000000
  0
LINE
  5
C44
330
A02
100
AcDbEntity
  8
Part__Feature
100
AcDbLine
 10
371.301813990
 20
98.351237139
 30
0.000000000
 11
371.301813990
 21
98.351237139
 31
19.000000000
  0
ARC
  5
C45
330
A02
100
AcDbEntity
  8
Part__Feature
100
AcDbCircle
 10
367.051813990
 20
98.351237139
 30
0.000000000
 40
4.250000000
100
AcDbArc
 50
0.000000000
 51
180.000000000
  0
LINE
  5
C46
330
A02
100
AcDbEntity
  8
Part__Feature
100
AcDbLine
 10
362.801813990
 20
98.351237139
 30
0.000000000
 11
362.801813990
 21
98.351237139
 31
19.000000000
  0
ARC
  5
C47
330
A02
100
AcDbEntity
  8
Part__Feature
100
AcDbCircle
 10
367.051813990
 20
-98.351237139
 30
19.000000000
 40
4.250000000
100
AcDbArc
 50
0.000000000
 51
180.000000000
  0
LINE
  5
C48
330
A02
100
AcDbEntity
  8
Part__Feature
100
AcDbLine
 10
371.301813990
 20
-98.351237139
 30
0.000000000
 11
371.301813990
 21
-98.351237139
 31
19.000000000
  0
ARC
  5
C49
330
A02
100
AcDbEntity
  8
Part__Feature
100
AcDbCircle
 10
367.051813990
 20
-98.351237139
 30
0.000000000
 40
4.250000000
100
AcDbArc
 50
0.000000000
 51
180.000000000
  0
LINE
  5
C4A
330
A02
100
AcDbEntity
  8
Part__Feature
100
AcDbLine
 10
362.801813990
 20
-98.351237139
 30
0.000000000
 11
362.801813990
 21
-98.351237139
 31
19.000000000
  0
ARC
  5
C4B
330
A02
100
AcDbEntity
  8
Part__Feature
100
AcDbCircle
 10
268.700576851
 20
268.700576851
 30
19.000000000
 40
4.250000000
100
AcDbArc
 50
0.000000000
 51
180.000000000
  0
LINE
  5
C4C
330
A02
100
AcDbEntity
  8
Part__Feature
100
AcDbLine
 10
272.950576851
 20
268.700576851
 30
0.000000000
 11
272.950576851
 21
268.700576851
 31
19.000000000
  0
ARC
  5
C4D
330
A02
100
AcDbEntity
  8
Part__Feature
100
AcDbCircle
 10
268.700576851
 20
268.700576851
 30
0.000000000
 40
4.250000000
100
AcDbArc
 50
0.000000000
 51
180.000000000
  0
LINE
  5
C4E
330
A02
100
AcDbEntity
  8
Part__Feature
100
AcDbLine
 10
264.450576851
 20
268.700576851
 30
0.000000000
 11
264.450576851
 21
268.700576851
 31
19.000000000
  0
ARC
  5
C4F
330
A02
100
AcDbEntity
  8
Part__Feature
100
AcDbCircle
 10
98.351237139
 20
367.051813990
 30
19.000000000
 40
4.250000000
100
AcDbArc
 50
0.000000000
 51
180.000000000
  0
LINE
  5
C50
330
A02
100
AcDbEntity
  8
Part__Feature
100
AcDbLine
 10
102.601237139
 20
367.051813990
 30
0.000000000
 11
102.601237139
 21
367.051813990
 31
19.000000000
  0
ARC
  5
C51
330
A02
100
AcDbEntity
  8
Part__Feature
100
AcDbCircle
 10
98.351237139
 20
367.051813990
 30
0.000000000
 40
4.250000000
100
AcDbArc
 50
0.000000000
 51
180.000000000
  0
LINE
  5
C52
330
A02
100
AcDbEntity
  8
Part__Feature
100
AcDbLine
 10
94.101237139
 20
367.051813990
 30
0.000000000
 11
94.101237139
 21
367.051813990
 31
19.000000000
  0
ARC
  5
C53
330
A02
100
AcDbEntity
  8
Part__Feature
100
AcDbCircle
 10
-98.351237139
 20
367.051813990
 30
19.000000000
 40
4.250000000
100
AcDbArc
 50
0.000000000
 51
180.000000000
  0
LINE
  5
C54
330
A02
100
AcDbEntity
  8
Part__Feature
100
AcDbLine
 10
-94.101237139
 20
367.051813990
 30
0.000000000
 11
-94.101237139
 21
367.051813990
 31
19.000000000
  0
ARC
  5
C55
330
A02
100
AcDbEntity
  8
Part__Feature
100
AcDbCircle
 10
-98.351237139
 20
367.051813990
 30
0.000000000
 40
4.250000000
100
AcDbArc
 50
0.000000000
 51
180.000000000
  0
LINE
  5
C56
330
A02
100
AcDbEntity
  8
Part__Feature
100
AcDbLine
 10
-102.601237139
 20
367.051813990
 30
0.000000000
 11
-102.601237139
 21
367.051813990
 31
19.000000000
  0
ARC
  5
C57
330
A02
100
AcDbEntity
  8
Part__Feature
100
AcDbCircle
 10
-185.000000000
 20
320.429399400
 30
19.000000000
 40
50.000000000
100
AcDbArc
 50
0.000000000
 51
180.000000000
  0
LINE
  5
C58
330
A02
100
AcDbEntity
  8
Part__Feature
100
AcDbLine
 10
-135.000000000
 20
320.429399400
 30
0.000000000
 11
-135.000000000
 21
320.429399400
 31
19.000000000
  0
ARC
  5
C59
330
A02
100
AcDbEntity
  8
Part__Feature
100
AcDbCircle
 10
-185.000000000
 20
320.429399400
 30
0.000000000
 40
50.000000000
100
AcDbArc
 50
0.000000000
 51
180.000000000
  0
LINE
  5
C5A
330
A02
100
AcDbEntity
  8
Part__Feature
100
AcDbLine
 10
-235.000000000
 20
320.429399400
 30
0.000000000
 11
-235.000000000
 21
320.429399400
 31
19.000000000
  0
ARC
  5
C5B
330
A02
100
AcDbEntity
  8
Part__Feature
100
AcDbCircle
 10
370.000000000
 20
0.000000000
 30
19.000000000
 40
50.000000000
100
AcDbArc
 50
0.000000000
 51
180.000000000
  0
LINE
  5
C5C
330
A02
100
AcDbEntity
  8
Part__Feature
100
AcDbLine
 10
420.000000000
 20
0.000000000
 30
0.000000000
 11
420.000000000
 21
0.000000000
 31
19.000000000
  0
ARC
  5
C5D
330
A02
100
AcDbEntity
  8
Part__Feature
100
AcDbCircle
 10
370.000000000
 20
0.000000000
 30
0.000000000
 40
50.000000000
100
AcDbArc
 50
0.000000000
 51
180.000000000
  0
LINE
  5
C5E
330
A02
100
AcDbEntity
  8
Part__Feature
100
AcDbLine
 10
320.000000000
 20
0.000000000
 30
0.000000000
 11
320.000000000
 21
0.000000000
 31
19.000000000
  0
ARC
  5
C5F
330
A02
100
AcDbEntity
  8
Part__Feature
100
AcDbCircle
 10
-185.000000000
 20
-320.429399400
 30
19.000000000
 40
50.000000000
100
AcDbArc
 50
0.000000000
 51
180.000000000
  0
LINE
  5
C60
330
A02
100
AcDbEntity
  8
Part__Feature
100
AcDbLine
 10
-135.000000000
 20
-320.429399400
 30
0.000000000
 11
-135.000000000
 21
-320.429399400
 31
19.000000000
  0
ARC
  5
C61
330
A02
100
AcDbEntity
  8
Part__Feature
100
AcDbCircle
 10
-185.000000000
 20
-320.429399400
 30
0.000000000
 40
50.000000000
100
AcDbArc
 50
0.000000000
 51
180.000000000
  0
LINE
  5
C62
330
A02
100
AcDbEntity
  8
Part__Feature
100
AcDbLine
 10
-235.000000000
 20
-320.429399400
 30
0.000000000
 11
-235.000000000
 21
-320.429399400
 31
19.000000000
  0
ARC
  5
C63
330
A02
100
AcDbEntity
  8
Part__Feature
100
AcDbCircle
 10
0.000000000
 20
0.000000000
 30
0.000000000
 40
299.500000000
100
AcDbArc
 50
67.868202726
 51
71.487950413
  0
SPLINE
  5
C64
330
A02
100
AcDbEntity
  8
Part__Feature
100
AcDbSpline
210
0
220
0
230
1
 70
8
 71
2
 72
6
 73
3
 74
0
 40
0.000001023
 40
0.000001023
 40
0.000001023
 40
0.018914180
 40
0.018914180
 40
0.018914180
 10
95.092473927
 20
284.002942595
 30
0.000000000
 10
103.127388332
 20
279.363982600
 30
1.850737042
 10
111.242958445
 20
274.678456011
 30
3.150122322
  0
SPLINE
  5
C65
330
A02
100
AcDbEntity
  8
Part__Feature
100
AcDbSpline
210
0
220
0
230
1
 70
8
 71
1
 72
4
 73
2
 74
0
 40
0.000000325
 40
0.000000325
 40
0.004476720
 40
0.004476720
 10
111.242958445
 20
274.678456011
 30
3.150122322
 10
112.833150234
 20
277.432748983
 30
0.000000000
  0
SPLINE
  5
C66
330
A02
100
AcDbEntity
  8
Part__Feature
100
AcDbSpline
210
0
220
0
230
1
 70
8
 71
1
 72
4
 73
2
 74
0
 40
0.000000288
 40
0.000000288
 40
0.008633473
 40
0.008633473
 10
210.666342829
 20
212.884809225
 30
0.000000000
 10
207.562639584
 20
207.509037512
 30
6.000000000
  0
LINE
  5
C67
330
A02
100
AcDbEntity
  8
Part__Feature
100
AcDbLine
 10
207.562639584
 20
207.509037512
 30
19.000000000
 11
207.562639584
 21
207.509037512
 31
6.000000000
  0
LINE
  5
C68
330
A02
100
AcDbEntity
  8
Part__Feature
100
AcDbLine
 10
212.567930688
 20
216.178456011
 30
19.000000000
 11
207.562639584
 21
207.509037512
 31
19.000000000
  0
LINE
  5
C69
330
A02
100
AcDbEntity
  8
Part__Feature
100
AcDbLine
 10
212.567930688
 20
216.178456011
 30
19.000000000
 11
212.567930688
 21
216.178456011
 31
0.000000000
  0
LINE
  5
C6A
330
A02
100
AcDbEntity
  8
Part__Feature
100
AcDbLine
 10
212.567930688
 20
216.178456011
 30
0.000000000
 11
210.666342829
 21
212.884809225
 31
0.000000000
  0
SPLINE
  5
C6B
330
A02
100
AcDbEntity
  8
Part__Feature
100
AcDbSpline
210
0
220
0
230
1
 70
8
 71
2
 72
6
 73
3
 74
0
 40
0.000000233
 40
0.000000233
 40
0.000000233
 40
0.018913389
 40
0.018913389
 40
0.018913389
 10
182.257041555
 20
233.678456011
 30
3.150122322
 10
190.372611668
 20
228.992929421
 30
1.850737042
 10
198.407526073
 20
224.353969427
 30
0.000000000
  0
LINE
  5
C6C
330
A02
100
AcDbEntity
  8
Part__Feature
100
AcDbLine
 10
198.407526073
 20
224.353969427
 30
0.000000000
 11
212.567930688
 21
216.178456011
 31
0.000000000
  0
LINE
  5
C6D
330
A02
100
AcDbEntity
  8
Part__Feature
100
AcDbLine
 10
212.567930688
 20
216.178456011
 30
19.000000000
 11
212.567930688
 21
216.178456011
 31
0.000000000
  0
LINE
  5
C6E
330
A02
100
AcDbEntity
  8
Part__Feature
100
AcDbLine
 10
182.257041555
 20
233.678456011
 30
19.000000000
 11
212.567930688
 21
216.178456011
 31
19.000000000
  0
LINE
  5
C6F
330
A02
100
AcDbEntity
  8
Part__Feature
100
AcDbLine
 10
182.257041555
 20
233.678456011
 30
19.000000000
 11
182.257041555
 21
233.678456011
 31
3.150122322
  0
SPLINE
  5
C70
330
A02
100
AcDbEntity
  8
Part__Feature
100
AcDbSpline
210
0
220
0
230
1
 70
8
 71
1
 72
4
 73
2
 74
0
 40
0.000000284
 40
0.000000284
 40
0.004476679
 40
0.004476679
 10
183.847233344
 20
236.432748983
 30
0.000000000
 10
182.257041555
 20
233.678456011
 30
3.150122322
  0
LINE
  5
C71
330
A02
100
AcDbEntity
  8
Part__Feature
100
AcDbLine
 10
182.257041555
 20
233.678456011
 30
19.000000000
 11
182.257041555
 21
233.678456011
 31
3.150122322
  0
LINE
  5
C72
330
A02
100
AcDbEntity
  8
Part__Feature
100
AcDbLine
 10
202.257041555
 20
268.319472162
 30
19.000000000
 11
182.257041555
 21
233.678456011
 31
19.000000000
  0
LINE
  5
C73
330
A02
100
AcDbEntity
  8
Part__Feature
100
AcDbLine
 10
202.257041555
 20
268.319472162
 30
19.000000000
 11
202.257041555
 21
268.319472162
 31
0.000000000
  0
LINE
  5
C74
330
A02
100
AcDbEntity
  8
Part__Feature
100
AcDbLine
 10
202.257041555
 20
268.319472162
 30
0.000000000
 11
183.847233344
 21
236.432748983
 31
0.000000000
  0
LINE
  5
C75
330
A02
100
AcDbEntity
  8
Part__Feature
100
AcDbLine
 10
131.242958445
 20
309.319472162
 30
0.000000000
 11
202.257041555
 21
268.319472162
 31
0.000000000
  0
LINE
  5
C76
330
A02
100
AcDbEntity
  8
Part__Feature
100
AcDbLine
 10
202.257041555
 20
268.319472162
 30
19.000000000
 11
202.257041555
 21
268.319472162
 31
0.000000000
  0
LINE
  5
C77
330
A02
100
AcDbEntity
  8
Part__Feature
100
AcDbLine
 10
131.242958445
 20
309.319472162
 30
19.000000000
 11
202.257041555
 21
268.319472162
 31
19.000000000
  0
LINE
  5
C78
330
A02
100
AcDbEntity
  8
Part__Feature
100
AcDbLine
 10
131.242958445
 20
309.319472162
 30
19.000000000
 11
131.242958445
 21
309.319472162
 31
0.000000000
  0
SPLINE
  5
C79
330
A02
100
AcDbEntity
  8
Part__Feature
100
AcDbSpline
210
0
220
0
230
1
 70
8
 71
1
 72
4
 73
2
 74
0
 40
0.000000325
 40
0.000000325
 40
0.004476720
 40
0.004476720
 10
111.242958445
 20
274.678456011
 30
3.150122322
 10
112.833150234
 20
277.432748983
 30
0.000000000
  0
LINE
  5
C7A
330
A02
100
AcDbEntity
  8
Part__Feature
100
AcDbLine
 10
112.833150234
 20
277.432748983
 30
0.000000000
 11
131.242958445
 21
309.319472162
 31
0.000000000
  0
LINE
  5
C7B
330
A02
100
AcDbEntity
  8
Part__Feature
100
AcDbLine
 10
131.242958445
 20
309.319472162
 30
19.000000000
 11
131.242958445
 21
309.319472162
 31
0.000000000
  0
LINE
  5
C7C
330
A02
100
AcDbEntity
  8
Part__Feature
100
AcDbLine
 10
111.242958445
 20
274.678456011
 30
19.000000000
 11
131.242958445
 21
309.319472162
 31
19.000000000
  0
LINE
  5
C7D
330
A02
100
AcDbEntity
  8
Part__Feature
100
AcDbLine
 10
111.242958445
 20
274.678456011
 30
19.000000000
 11
111.242958445
 21
274.678456011
 31
3.150122322
  0
SPLINE
  5
C7E
330
A02
100
AcDbEntity
  8
Part__Feature
100
AcDbSpline
210
0
220
0
230
1
 70
8
 71
2
 72
6
 73
3
 74
0
 40
0.000001023
 40
0.000001023
 40
0.000001023
 40
0.018914180
 40
0.018914180
 40
0.018914180
 10
95.092473927
 20
284.002942595
 30
0.000000000
 10
103.127388332
 20
279.363982600
 30
1.850737042
 10
111.242958445
 20
274.678456011
 30
3.150122322
  0
LINE
  5
C7F
330
A02
100
AcDbEntity
  8
Part__Feature
100
AcDbLine
 10
111.242958445
 20
274.678456011
 30
19.000000000
 11
111.242958445
 21
274.678456011
 31
3.150122322
  0
LINE
  5
C80
330
A02
100
AcDbEntity
  8
Part__Feature
100
AcDbLine
 10
80.932069312
 20
292.178456011
 30
19.000000000
 11
111.242958445
 21
274.678456011
 31
19.000000000
  0
LINE
  5
C81
330
A02
100
AcDbEntity
  8
Part__Feature
100
AcDbLine
 10
80.932069312
 20
292.178456011
 30
19.000000000
 11
80.932069312
 21
292.178456011
 31
0.000000000
  0
LINE
  5
C82
330
A02
100
AcDbEntity
  8
Part__Feature
100
AcDbLine
 10
80.932069312
 20
292.178456011
 30
0.000000000
 11
95.092473927
 21
284.002942595
 31
0.000000000
  0
SPLINE
  5
C83
330
A02
100
AcDbEntity
  8
Part__Feature
100
AcDbSpline
210
0
220
0
230
1
 70
8
 71
1
 72
4
 73
2
 74
0
 40
0.000000288
 40
0.000000288
 40
0.008633474
 40
0.008633474
 10
75.926778208
 20
283.509037512
 30
6.000000000
 10
79.030481454
 20
288.884809225
 30
0.000000000
  0
LINE
  5
C84
330
A02
100
AcDbEntity
  8
Part__Feature
100
AcDbLine
 10
79.030481454
 20
288.884809225
 30
0.000000000
 11
80.932069312
 21
292.178456011
 31
0.000000000
  0
LINE
  5
C85
330
A02
100
AcDbEntity
  8
Part__Feature
100
AcDbLine
 10
80.932069312
 20
292.178456011
 30
19.000000000
 11
80.932069312
 21
292.178456011
 31
0.000000000
  0
LINE
  5
C86
330
A02
100
AcDbEntity
  8
Part__Feature
100
AcDbLine
 10
75.926778208
 20
283.509037512
 30
19.000000000
 11
80.932069312
 21
292.178456011
 31
19.000000000
  0
LINE
  5
C87
330
A02
100
AcDbEntity
  8
Part__Feature
100
AcDbLine
 10
75.926778208
 20
283.509037512
 30
19.000000000
 11
75.926778208
 21
283.509037512
 31
6.000000000
  0
SPLINE
  5
C88
330
A02
100
AcDbEntity
  8
Part__Feature
100
AcDbSpline
210
0
220
0
230
1
 70
8
 71
1
 72
4
 73
2
 74
0
 40
0.021816274
 40
0.021816274
 40
0.030449458
 40
0.030449458
 10
-289.696824284
 20
76.000000000
 30
0.000000000
 10
-283.489417792
 20
76.000000000
 30
6.000000000
  0
LINE
  5
C89
330
A02
100
AcDbEntity
  8
Part__Feature
100
AcDbLine
 10
-283.489417792
 20
76.000000000
 30
19.000000000
 11
-283.489417792
 21
76.000000000
 31
6.000000000
  0
LINE
  5
C8A
330
A02
100
AcDbEntity
  8
Part__Feature
100
AcDbLine
 10
-293.500000000
 20
76.000000000
 30
19.000000000
 11
-283.489417792
 21
76.000000000
 31
19.000000000
  0
LINE
  5
C8B
330
A02
100
AcDbEntity
  8
Part__Feature
100
AcDbLine
 10
-293.500000000
 20
76.000000000
 30
19.000000000
 11
-293.500000000
 21
76.000000000
 31
0.000000000
  0
LINE
  5
C8C
330
A02
100
AcDbEntity
  8
Part__Feature
100
AcDbLine
 10
-293.500000000
 20
76.000000000
 30
0.000000000
 11
-289.696824284
 21
76.000000000
 31
0.000000000
  0
SPLINE
  5
C8D
330
A02
100
AcDbEntity
  8
Part__Feature
100
AcDbSpline
210
0
220
0
230
1
 70
8
 71
2
 72
8
 73
5
 74
0
 40
0.061591381
 40
0.061591381
 40
0.061591381
 40
0.071007702
 40
0.071007702
 40
0.080424022
 40
0.080424022
 40
0.080424022
 10
-293.500000000
 20
41.000000000
 30
3.150122322
 10
-293.500000000
 20
45.688705435
 30
2.501045336
 10
-293.500000000
 20
50.355831426
 30
1.711552006
 10
-293.500000000
 20
55.019293280
 30
0.922511280
 10
-293.500000000
 20
59.648973168
 30
0.000000000
  0
LINE
  5
C8E
330
A02
100
AcDbEntity
  8
Part__Feature
100
AcDbLine
 10
-293.500000000
 20
76.000000000
 30
0.000000000
 11
-293.500000000
 21
59.648973168
 31
0.000000000
  0
LINE
  5
C8F
330
A02
100
AcDbEntity
  8
Part__Feature
100
AcDbLine
 10
-293.500000000
 20
76.000000000
 30
19.000000000
 11
-293.500000000
 21
76.000000000
 31
0.000000000
  0
LINE
  5
C90
330
A02
100
AcDbEntity
  8
Part__Feature
100
AcDbLine
 10
-293.500000000
 20
41.000000000
 30
19.000000000
 11
-293.500000000
 21
76.000000000
 31
19.000000000
  0
LINE
  5
C91
330
A02
100
AcDbEntity
  8
Part__Feature
100
AcDbLine
 10
-293.500000000
 20
41.000000000
 30
19.000000000
 11
-293.500000000
 21
41.000000000
 31
3.150122322
  0
SPLINE
  5
C92
330
A02
100
AcDbEntity
  8
Part__Feature
100
AcDbSpline
210
0
220
0
230
1
 70
8
 71
1
 72
4
 73
2
 74
0
 40
0.015150382
 40
0.015150382
 40
0.019626777
 40
0.019626777
 10
-296.680383578
 20
41.000000000
 30
0.000000000
 10
-293.500000000
 20
41.000000000
 30
3.150122322
  0
LINE
  5
C93
330
A02
100
AcDbEntity
  8
Part__Feature
100
AcDbLine
 10
-293.500000000
 20
41.000000000
 30
19.000000000
 11
-293.500000000
 21
41.000000000
 31
3.150122322
  0
LINE
  5
C94
330
A02
100
AcDbEntity
  8
Part__Feature
100
AcDbLine
 10
-333.500000000
 20
41.000000000
 30
19.000000000
 11
-293.500000000
 21
41.000000000
 31
19.000000000
  0
LINE
  5
C95
330
A02
100
AcDbEntity
  8
Part__Feature
100
AcDbLine
 10
-333.500000000
 20
41.000000000
 30
19.000000000
 11
-333.500000000
 21
41.000000000
 31
0.000000000
  0
LINE
  5
C96
330
A02
100
AcDbEntity
  8
Part__Feature
100
AcDbLine
 10
-333.500000000
 20
41.000000000
 30
0.000000000
 11
-296.680383578
 21
41.000000000
 31
0.000000000
  0
LINE
  5
C97
330
A02
100
AcDbEntity
  8
Part__Feature
100
AcDbLine
 10
-333.500000000
 20
-41.000000000
 30
0.000000000
 11
-333.500000000
 21
41.000000000
 31
0.000000000
  0
LINE
  5
C98
330
A02
100
AcDbEntity
  8
Part__Feature
100
AcDbLine
 10
-333.500000000
 20
41.000000000
 30
19.000000000
 11
-333.500000000
 21
41.000000000
 31
0.000000000
  0
LINE
  5
C99
330
A02
100
AcDbEntity
  8
Part__Feature
100
AcDbLine
 10
-333.500000000
 20
-41.000000000
 30
19.000000000
 11
-333.500000000
 21
41.000000000
 31
19.000000000
  0
LINE
  5
C9A
330
A02
100
AcDbEntity
  8
Part__Feature
100
AcDbLine
 10
-333.500000000
 20
-41.000000000
 30
19.000000000
 11
-333.500000000
 21
-41.000000000
 31
0.000000000
  0
SPLINE
  5
C9B
330
A02
100
AcDbEntity
  8
Part__Feature
100
AcDbSpline
210
0
220
0
230
1
 70
8
 71
1
 72
4
 73
2
 74
0
 40
0.010920293
 40
0.010920293
 40
0.015396688
 40
0.015396688
 10
-293.500000000
 20
-41.000000000
 30
3.150122322
 10
-296.680383578
 20
-41.000000000
 30
0.000000000
  0
LINE
  5
C9C
330
A02
100
AcDbEntity
  8
Part__Feature
100
AcDbLine
 10
-333.500000000
 20
-41.000000000
 30
0.000000000
 11
-296.680383578
 21
-41.000000000
 31
0.000000000
  0
LINE
  5
C9D
330
A02
100
AcDbEntity
  8
Part__Feature
100
AcDbLine
 10
-333.500000000
 20
-41.000000000
 30
19.000000000
 11
-333.500000000
 21
-41.000000000
 31
0.000000000
  0
LINE
  5
C9E
330
A02
100
AcDbEntity
  8
Part__Feature
100
AcDbLine
 10
-293.500000000
 20
-41.000000000
 30
19.000000000
 11
-333.500000000
 21
-41.000000000
 31
19.000000000
  0
LINE
  5
C9F
330
A02
100
AcDbEntity
  8
Part__Feature
100
AcDbLine
 10
-293.500000000
 20
-41.000000000
 30
19.000000000
 11
-293.500000000
 21
-41.000000000
 31
3.150122322
  0
SPLINE
  5
CA0
330
A02
100
AcDbEntity
  8
Part__Feature
100
AcDbSpline
210
0
220
0
230
1
 70
8
 71
2
 72
6
 73
3
 74
0
 40
0.068317504
 40
0.068317504
 40
0.068317504
 40
0.087215867
 40
0.087215867
 40
0.087215867
 10
-293.500000000
 20
-59.648973168
 30
0.000000000
 10
-293.500000000
 20
-50.352073093
 30
1.853932404
 10
-293.500000000
 20
-41.000000000
 30
3.150122322
  0
LINE
  5
CA1
330
A02
100
AcDbEntity
  8
Part__Feature
100
AcDbLine
 10
-293.500000000
 20
-41.000000000
 30
19.000000000
 11
-293.500000000
 21
-41.000000000
 31
3.150122322
  0
LINE
  5
CA2
330
A02
100
AcDbEntity
  8
Part__Feature
100
AcDbLine
 10
-293.500000000
 20
-76.000000000
 30
19.000000000
 11
-293.500000000
 21
-41.000000000
 31
19.000000000
  0
LINE
  5
CA3
330
A02
100
AcDbEntity
  8
Part__Feature
100
AcDbLine
 10
-293.500000000
 20
-76.000000000
 30
19.000000000
 11
-293.500000000
 21
-76.000000000
 31
0.000000000
  0
LINE
  5
CA4
330
A02
100
AcDbEntity
  8
Part__Feature
100
AcDbLine
 10
-293.500000000
 20
-76.000000000
 30
0.000000000
 11
-293.500000000
 21
-59.648973168
 31
0.000000000
  0
SPLINE
  5
CA5
330
A02
100
AcDbEntity
  8
Part__Feature
100
AcDbSpline
210
0
220
0
230
1
 70
8
 71
1
 72
4
 73
2
 74
0
 40
0.015198102
 40
0.015198102
 40
0.023831286
 40
0.023831286
 10
-283.489417792
 20
-76.000000000
 30
6.000000000
 10
-289.696824284
 20
-76.000000000
 30
0.000000000
  0
LINE
  5
CA6
330
A02
100
AcDbEntity
  8
Part__Feature
100
AcDbLine
 10
-289.696824284
 20
-76.000000000
 30
0.000000000
 11
-293.500000000
 21
-76.000000000
 31
0.000000000
  0
LINE
  5
CA7
330
A02
100
AcDbEntity
  8
Part__Feature
100
AcDbLine
 10
-293.500000000
 20
-76.000000000
 30
19.000000000
 11
-293.500000000
 21
-76.000000000
 31
0.000000000
  0
LINE
  5
CA8
330
A02
100
AcDbEntity
  8
Part__Feature
100
AcDbLine
 10
-283.489417792
 20
-76.000000000
 30
19.000000000
 11
-293.500000000
 21
-76.000000000
 31
19.000000000
  0
LINE
  5
CA9
330
A02
100
AcDbEntity
  8
Part__Feature
100
AcDbLine
 10
-283.489417792
 20
-76.000000000
 30
19.000000000
 11
-283.489417792
 21
-76.000000000
 31
6.000000000
  0
SPLINE
  5
CAA
330
A02
100
AcDbEntity
  8
Part__Feature
100
AcDbSpline
210
0
220
0
230
1
 70
8
 71
1
 72
4
 73
2
 74
0
 40
0.000000288
 40
0.000000288
 40
0.008633473
 40
0.008633473
 10
79.030481454
 20
-288.884809225
 30
0.000000000
 10
75.926778208
 20
-283.509037512
 30
6.000000000
  0
LINE
  5
CAB
330
A02
100
AcDbEntity
  8
Part__Feature
100
AcDbLine
 10
75.926778208
 20
-283.509037512
 30
19.000000000
 11
75.926778208
 21
-283.509037512
 31
6.000000000
  0
LINE
  5
CAC
330
A02
100
AcDbEntity
  8
Part__Feature
100
AcDbLine
 10
80.932069312
 20
-292.178456011
 30
19.000000000
 11
75.926778208
 21
-283.509037512
 31
19.000000000
  0
LINE
  5
CAD
330
A02
100
AcDbEntity
  8
Part__Feature
100
AcDbLine
 10
80.932069312
 20
-292.178456011
 30
19.000000000
 11
80.932069312
 21
-292.178456011
 31
0.000000000
  0
LINE
  5
CAE
330
A02
100
AcDbEntity
  8
Part__Feature
100
AcDbLine
 10
80.932069312
 20
-292.178456011
 30
0.000000000
 11
79.030481454
 21
-288.884809225
 31
0.000000000
  0
SPLINE
  5
CAF
330
A02
100
AcDbEntity
  8
Part__Feature
100
AcDbSpline
210
0
220
0
230
1
 70
8
 71
2
 72
6
 73
3
 74
0
 40
0.000000233
 40
0.000000233
 40
0.000000233
 40
0.018913389
 40
0.018913389
 40
0.018913389
 10
111.242958445
 20
-274.678456011
 30
3.150122322
 10
103.127388332
 20
-279.363982600
 30
1.850737042
 10
95.092473927
 20
-284.002942595
 30
0.000000000
  0
LINE
  5
CB0
330
A02
100
AcDbEntity
  8
Part__Feature
100
AcDbLine
 10
80.932069312
 20
-292.178456011
 30
0.000000000
 11
95.092473927
 21
-284.002942595
 31
0.000000000
  0
LINE
  5
CB1
330
A02
100
AcDbEntity
  8
Part__Feature
100
AcDbLine
 10
80.932069312
 20
-292.178456011
 30
19.000000000
 11
80.932069312
 21
-292.178456011
 31
0.000000000
  0
LINE
  5
CB2
330
A02
100
AcDbEntity
  8
Part__Feature
100
AcDbLine
 10
111.242958445
 20
-274.678456011
 30
19.000000000
 11
80.932069312
 21
-292.178456011
 31
19.000000000
  0
LINE
  5
CB3
330
A02
100
AcDbEntity
  8
Part__Feature
100
AcDbLine
 10
111.242958445
 20
-274.678456011
 30
19.000000000
 11
111.242958445
 21
-274.678456011
 31
3.150122322
  0
SPLINE
  5
CB4
330
A02
100
AcDbEntity
  8
Part__Feature
100
AcDbSpline
210
0
220
0
230
1
 70
8
 71
1
 72
4
 73
2
 74
0
 40
0.000000284
 40
0.000000284
 40
0.004476679
 40
0.004476679
 10
112.833150234
 20
-277.432748983
 30
0.000000000
 10
111.242958445
 20
-274.678456011
 30
3.150122322
  0
LINE
  5
CB5
330
A02
100
AcDbEntity
  8
Part__Feature
100
AcDbLine
 10
111.242958445
 20
-274.678456011
 30
19.000000000
 11
111.242958445
 21
-274.678456011
 31
3.150122322
  0
LINE
  5
CB6
330
A02
100
AcDbEntity
  8
Part__Feature
100
AcDbLine
 10
131.242958445
 20
-309.319472162
 30
19.000000000
 11
111.242958445
 21
-274.678456011
 31
19.000000000
  0
LINE
  5
CB7
330
A02
100
AcDbEntity
  8
Part__Feature
100
AcDbLine
 10
131.242958445
 20
-309.319472162
 30
19.000000000
 11
131.242958445
 21
-309.319472162
 31
0.000000000
  0
LINE
  5
CB8
330
A02
100
AcDbEntity
  8
Part__Feature
100
AcDbLine
 10
131.242958445
 20
-309.319472162
 30
0.000000000
 11
112.833150234
 21
-277.432748983
 31
0.000000000
  0
LINE
  5
CB9
330
A02
100
AcDbEntity
  8
Part__Feature
100
AcDbLine
 10
202.257041555
 20
-268.319472162
 30
0.000000000
 11
131.242958445
 21
-309.319472162
 31
0.000000000
  0
LINE
  5
CBA
330
A02
100
AcDbEntity
  8
Part__Feature
100
AcDbLine
 10
131.242958445
 20
-309.319472162
 30
19.000000000
 11
131.242958445
 21
-309.319472162
 31
0.000000000
  0
LINE
  5
CBB
330
A02
100
AcDbEntity
  8
Part__Feature
100
AcDbLine
 10
202.257041555
 20
-268.319472162
 30
19.000000000
 11
131.242958445
 21
-309.319472162
 31
19.000000000
  0
LINE
  5
CBC
330
A02
100
AcDbEntity
  8
Part__Feature
100
AcDbLine
 10
202.257041555
 20
-268.319472162
 30
19.000000000
 11
202.257041555
 21
-268.319472162
 31
0.000000000
  0
SPLINE
  5
CBD
330
A02
100
AcDbEntity
  8
Part__Feature
100
AcDbSpline
210
0
220
0
230
1
 70
8
 71
1
 72
4
 73
2
 74
0
 40
0.000000325
 40
0.000000325
 40
0.004476720
 40
0.004476720
 10
182.257041555
 20
-233.678456011
 30
3.150122322
 10
183.847233344
 20
-236.432748983
 30
0.000000000
  0
LINE
  5
CBE
330
A02
100
AcDbEntity
  8
Part__Feature
100
AcDbLine
 10
202.257041555
 20
-268.319472162
 30
0.000000000
 11
183.847233344
 21
-236.432748983
 31
0.000000000
  0
LINE
  5
CBF
330
A02
100
AcDbEntity
  8
Part__Feature
100
AcDbLine
 10
202.257041555
 20
-268.319472162
 30
19.000000000
 11
202.257041555
 21
-268.319472162
 31
0.000000000
  0
LINE
  5
CC0
330
A02
100
AcDbEntity
  8
Part__Feature
100
AcDbLine
 10
182.257041555
 20
-233.678456011
 30
19.000000000
 11
202.257041555
 21
-268.319472162
 31
19.000000000
  0
LINE
  5
CC1
330
A02
100
AcDbEntity
  8
Part__Feature
100
AcDbLine
 10
182.257041555
 20
-233.678456011
 30
19.000000000
 11
182.257041555
 21
-233.678456011
 31
3.150122322
  0
SPLINE
  5
CC2
330
A02
100
AcDbEntity
  8
Part__Feature
100
AcDbSpline
210
0
220
0
230
1
 70
8
 71
2
 72
6
 73
3
 74
0
 40
0.000001023
 40
0.000001023
 40
0.000001023
 40
0.018914180
 40
0.018914180
 40
0.018914180
 10
198.407526073
 20
-224.353969427
 30
0.000000000
 10
190.372611668
 20
-228.992929421
 30
1.850737042
 10
182.257041555
 20
-233.678456011
 30
3.150122322
  0
LINE
  5
CC3
330
A02
100
AcDbEntity
  8
Part__Feature
100
AcDbLine
 10
182.257041555
 20
-233.678456011
 30
19.000000000
 11
182.257041555
 21
-233.678456011
 31
3.150122322
  0
LINE
  5
CC4
330
A02
100
AcDbEntity
  8
Part__Feature
100
AcDbLine
 10
212.567930688
 20
-216.178456011
 30
19.000000000
 11
182.257041555
 21
-233.678456011
 31
19.000000000
  0
LINE
  5
CC5
330
A02
100
AcDbEntity
  8
Part__Feature
100
AcDbLine
 10
212.567930688
 20
-216.178456011
 30
19.000000000
 11
212.567930688
 21
-216.178456011
 31
0.000000000
  0
LINE
  5
CC6
330
A02
100
AcDbEntity
  8
Part__Feature
100
AcDbLine
 10
212.567930688
 20
-216.178456011
 30
0.000000000
 11
198.407526073
 21
-224.353969427
 31
0.000000000
  0
SPLINE
  5
CC7
330
A02
100
AcDbEntity
  8
Part__Feature
100
AcDbSpline
210
0
220
0
230
1
 70
8
 71
1
 72
4
 73
2
 74
0
 40
0.000000288
 40
0.000000288
 40
0.008633474
 40
0.008633474
 10
207.562639584
 20
-207.509037512
 30
6.000000000
 10
210.666342829
 20
-212.884809225
 30
0.000000000
  0
LINE
  5
CC8
330
A02
100
AcDbEntity
  8
Part__Feature
100
AcDbLine
 10
210.666342829
 20
-212.884809225
 30
0.000000000
 11
212.567930688
 21
-216.178456011
 31
-0.000000000
  0
LINE
  5
CC9
330
A02
100
AcDbEntity
  8
Part__Feature
100
AcDbLine
 10
212.567930688
 20
-216.178456011
 30
19.000000000
 11
212.567930688
 21
-216.178456011
 31
0.000000000
  0
LINE
  5
CCA
330
A02
100
AcDbEntity
  8
Part__Feature
100
AcDbLine
 10
207.562639584
 20
-207.509037512
 30
19.000000000
 11
212.567930688
 21
-216.178456011
 31
19.000000000
  0
LINE
  5
CCB
330
A02
100
AcDbEntity
  8
Part__Feature
100
AcDbLine
 10
207.562639584
 20
-207.509037512
 30
19.000000000
 11
207.562639584
 21
-207.509037512
 31
6.000000000
  0
ARC
  5
CCC
330
A02
100
AcDbEntity
  8
Part__Feature
100
AcDbCircle
 10
190.000000000
 20
329.089653438
 30
0.000000000
 40
5.000000000
100
AcDbArc
 50
0.000000000
 51
180.000000000
  0
LINE
  5
CCD
330
A02
100
AcDbEntity
  8
Part__Feature
100
AcDbLine
 10
185.000000000
 20
329.089653438
 30
12.000000000
 11
185.000000000
 21
329.089653438
 31
0.000000000
  0
ARC
  5
CCE
330
A02
100
AcDbEntity
  8
Part__Feature
100
AcDbCircle
 10
190.000000000
 20
329.089653438
 30
12.000000000
 40
5.000000000
100
AcDbArc
 50
0.000000000
 51
180.000000000
  0
LINE
  5
CCF
330
A02
100
AcDbEntity
  8
Part__Feature
100
AcDbLine
 10
195.000000000
 20
329.089653438
 30
12.000000000
 11
195.000000000
 21
329.089653438
 31
0.000000000
  0
ARC
  5
CD0
330
A02
100
AcDbEntity
  8
Part__Feature
100
AcDbCircle
 10
190.000000000
 20
329.089653438
 30
12.000000000
 40
5.000000000
100
AcDbArc
 50
0.000000000
 51
180.000000000
  0
ARC
  5
CD1
330
A02
100
AcDbEntity
  8
Part__Feature
100
AcDbCircle
 10
190.000000000
 20
329.089653438
 30
12.000000000
 40
5.000000000
100
AcDbArc
 50
180.000000000
 51
0.000000000
  0
ARC
  5
CD2
330
A02
100
AcDbEntity
  8
Part__Feature
100
AcDbCircle
 10
-380.000000000
 20
0.000000000
 30
0.000000000
 40
5.000000000
100
AcDbArc
 50
0.000000000
 51
180.000000000
  0
LINE
  5
CD3
330
A02
100
AcDbEntity
  8
Part__Feature
100
AcDbLine
 10
-385.000000000
 20
0.000000000
 30
12.000000000
 11
-385.000000000
 21
0.000000000
 31
0.000000000
  0
ARC
  5
CD4
330
A02
100
AcDbEntity
  8
Part__Feature
100
AcDbCircle
 10
-380.000000000
 20
0.000000000
 30
12.000000000
 40
5.000000000
100
AcDbArc
 50
0.000000000
 51
180.000000000
  0
LINE
  5
CD5
330
A02
100
AcDbEntity
  8
Part__Feature
100
AcDbLine
 10
-375.000000000
 20
0.000000000
 30
12.000000000
 11
-375.000000000
 21
0.000000000
 31
0.000000000
  0
ARC
  5
CD6
330
A02
100
AcDbEntity
  8
Part__Feature
100
AcDbCircle
 10
-380.000000000
 20
0.000000000
 30
12.000000000
 40
5.000000000
100
AcDbArc
 50
0.000000000
 51
180.000000000
  0
ARC
  5
CD7
330
A02
100
AcDbEntity
  8
Part__Feature
100
AcDbCircle
 10
-380.000000000
 20
0.000000000
 30
12.000000000
 40
5.000000000
100
AcDbArc
 50
-180.000000000
 51
0.000000000
  0
ARC
  5
CD8
330
A02
100
AcDbEntity
  8
Part__Feature
100
AcDbCircle
 10
190.000000000
 20
-329.089653438
 30
-0.000000000
 40
5.000000000
100
AcDbArc
 50
0.000000000
 51
180.000000000
  0
LINE
  5
CD9
330
A02
100
AcDbEntity
  8
Part__Feature
100
AcDbLine
 10
185.000000000
 20
-329.089653438
 30
12.000000000
 11
185.000000000
 21
-329.089653438
 31
0.000000000
  0
ARC
  5
CDA
330
A02
100
AcDbEntity
  8
Part__Feature
100
AcDbCircle
 10
190.000000000
 20
-329.089653438
 30
12.000000000
 40
5.000000000
100
AcDbArc
 50
0.000000000
 51
180.000000000
  0
LINE
  5
CDB
330
A02
100
AcDbEntity
  8
Part__Feature
100
AcDbLine
 10
195.000000000
 20
-329.089653438
 30
12.000000000
 11
195.000000000
 21
-329.089653438
 31
0.000000000
  0
ARC
  5
CDC
330
A02
100
AcDbEntity
  8
Part__Feature
100
AcDbCircle
 10
190.000000000
 20
-329.089653438
 30
12.000000000
 40
5.000000000
100
AcDbArc
 50
0.000000000
 51
180.000000000
  0
ARC
  5
CDD
330
A02
100
AcDbEntity
  8
Part__Feature
100
AcDbCircle
 10
190.000000000
 20
-329.089653438
 30
12.000000000
 40
5.000000000
100
AcDbArc
 50
180.000000000
 51
0.000000000
  0
ENDSEC
  0
SECTION
  2
OBJECTS
  0
DICTIONARY
  5
F000
330
0
100
AcDbDictionary
  3
ACAD_GROUP
350
F001
  0
DICTIONARY
  5
F001
330
F000
100
AcDbDictionary
  0
ENDSEC
  0
EOF